<mxfile host="app.diagrams.net" agent="Mozilla/5.0 (X11; Ubuntu; Linux x86_64; rv:138.0) Gecko/20100101 Firefox/138.0" version="27.0.5">
  <diagram name="Page-1" id="_wl219emiWi-AVUmnk8V">
    <mxGraphModel dx="1055" dy="671" grid="1" gridSize="10" guides="1" tooltips="1" connect="1" arrows="1" fold="1" page="1" pageScale="1" pageWidth="850" pageHeight="1100" math="0" shadow="1">
      <root>
        <mxCell id="0" />
        <mxCell id="1" parent="0" />
        <mxCell id="ZmMm5j11PDI9N-WYyKy6-1" value="CLIENT" style="shape=umlLifeline;perimeter=lifelinePerimeter;whiteSpace=wrap;html=1;container=1;dropTarget=0;collapsible=0;recursiveResize=0;outlineConnect=0;portConstraint=eastwest;newEdgeStyle={&quot;curved&quot;:0,&quot;rounded&quot;:0};" vertex="1" parent="1">
          <mxGeometry x="130" y="220" width="100" height="400" as="geometry" />
        </mxCell>
        <mxCell id="ZmMm5j11PDI9N-WYyKy6-2" value="&lt;div&gt;SERVER&lt;/div&gt;" style="shape=umlLifeline;perimeter=lifelinePerimeter;whiteSpace=wrap;html=1;container=1;dropTarget=0;collapsible=0;recursiveResize=0;outlineConnect=0;portConstraint=eastwest;newEdgeStyle={&quot;curved&quot;:0,&quot;rounded&quot;:0};" vertex="1" parent="1">
          <mxGeometry x="560" y="220" width="100" height="390" as="geometry" />
        </mxCell>
        <mxCell id="ZmMm5j11PDI9N-WYyKy6-4" value="" style="html=1;points=[[0,0,0,0,5],[0,1,0,0,-5],[1,0,0,0,5],[1,1,0,0,-5]];perimeter=orthogonalPerimeter;outlineConnect=0;targetShapes=umlLifeline;portConstraint=eastwest;newEdgeStyle={&quot;curved&quot;:0,&quot;rounded&quot;:0};" vertex="1" parent="ZmMm5j11PDI9N-WYyKy6-2">
          <mxGeometry x="45" y="80" width="10" height="310" as="geometry" />
        </mxCell>
        <mxCell id="ZmMm5j11PDI9N-WYyKy6-5" value="Connect to websocket server localhost:3000&amp;nbsp; " style="html=1;verticalAlign=bottom;endArrow=block;curved=0;rounded=0;entryX=0;entryY=0;entryDx=0;entryDy=5;" edge="1" target="ZmMm5j11PDI9N-WYyKy6-4" parent="1" source="ZmMm5j11PDI9N-WYyKy6-1">
          <mxGeometry relative="1" as="geometry">
            <mxPoint x="535" y="305" as="sourcePoint" />
          </mxGeometry>
        </mxCell>
        <mxCell id="ZmMm5j11PDI9N-WYyKy6-7" value="localhost:3000" style="text;html=1;align=center;verticalAlign=middle;resizable=0;points=[];autosize=1;strokeColor=none;fillColor=none;" vertex="1" parent="1">
          <mxGeometry x="560" y="178" width="100" height="30" as="geometry" />
        </mxCell>
        <mxCell id="ZmMm5j11PDI9N-WYyKy6-8" value="" style="shape=image;verticalLabelPosition=bottom;labelBackgroundColor=default;verticalAlign=top;aspect=fixed;imageAspect=0;image=data:image/png,iVBORw0KGgoAAAANSUhEUgAAAm4AAACMCAYAAADFuyWzAAAABHNCSVQICAgIfAhkiAAAABl0RVh0U29mdHdhcmUAZ25vbWUtc2NyZWVuc2hvdO8Dvz4AAAAtdEVYdENyZWF0aW9uIFRpbWUAU3VuIDE4IE1heSAyMDI1IDA0OjE2OjI5IFBNICswN0YFwb8AACAASURBVHic7J19XFRl2vi/zjBzBoYZGMYBBEYU8GWEwBc0RVNR0zRLst0fVk+07Wpbadmu/uzNp9Y2S/tZW6m9PLptuVvJ9qxp5UtlWq6ypfgCgaCCigPyMg4DDANzZpjx98cMiogKpmV5vp+Pn5GZ61z3de5zzn2u+7rul26xCQNPcxXQd9djPWW9Gqovi2vNHgmJXzwyN2lpzRhsgWwpVCD+6OUP4OEVDzI+1M5XLz7NG9//2AZcPkIPB7f08WD5XkuO7ae2RkJC4lqim+S4SUhISEhISEj8PJD91AZISEhISEhISEh0jqsWcZOQkJCQkJCQkLiySBE3CQkJCQkJCYmfCZLjJnE+6ig++Gg8xz9KZX6Pn9oYCQkJCQkJiVYkx+1KIAvlrT8N4/iLKTzX8zKOV6qZc08ie/48lONLf4CeaxI3s/5cyPG1x8jq3u4nbT1/W3uAQ0usJPwktklISEhISPy8kBy3awDDoGgeSVZjCPBiPtlIYbkDs+snNMjjpHCflZwD9Rxx/jBV2mHVPDDQjWVnONmn2v3YEMKqbSqExGrmj/L8sIIkJCQkJCSuAwJ+agMkIDxEgQCIh45z67tWGn5qg5y1LH6x9goocpM5zYaBQNZ8qe5wHa+c7TpKbq0kPcNGws7ulFyBUiUkJCQkJH6pXFXHzRAfycJ0PWkxQRiEbojNIiWlFpZ9cpLtdr+QTCBzSiyzBoaQoPbJmKsaWPPxMdZYwDi8P1vv0CJYq7h72QlyvAAq5s9NZk4UFG7M49YdXmY9MIin42Hfv8sw947ilqgAGsqreX7NCTbY2xil0TL/thimJagxCl4sp+xsy6lg8XeOzjtMMoHMjHjmD1KjbXaQ/VnH68MZ+0fx9M0G0iMFBK+bklIrqz41k231TeRNHJ/IxonqM/KCKZ78pfHgFVnzZh7PnOiELQnxbH2xF2JOOWJiFAn2kyz/UkbmjEiMTadY/OfvWVMBGPQ8/V89SU/UYgwJQHC1YD5Ww5o1R1h1uMWnK7oXG1+NJ7E1DuutZ8WjuSyrPFuckNKPnc/EYLBWsWK7gmmTdYTjJOejAh781H6uc9ajnowkD9Ro2XLkAvaXask5WUlWHxsZsd1ZVtaJc5aQkJCQkLhOuaqpUmOfcKb1CUJwihSWNVKDQGJyDK/dqcfglxk8IYGlN4WSECCyr7SBQjuE9w5jiH88lPl7CzkuQKfjlhj/Qfow0iOBlkY2f39uHGfwiBgGe0VqWrph6BnJwpu1CK0/BmpZ+lB/5qQEY1R3Q3TLMESGkpmqIbwL5zV4QgLP3RiMQdkNQRNM1q9jSBfOldH2ieWD+2K4JUaJWO/ELAaQYIpk6e/jmOb31cT6JgrLGymp96/I0ixSWH55qdLEYeEYWrxoe8bw9P3hCE1eBEM4s8ZrEADBGE7mqDCMAW7MJfUU2sFoiuLp+X24ReVX4nJSUlJP4fHmSzuxukhmjVdisbQgqINIvzuBLMO5IoZBdhJkIB5Ws9d7AT3eQHKOKEDWTNpAd8cyA37NXz94nX99sJiHb+h0lUhISEhISPziuKoRN0tpBXP31rLB4ndMDFFs/GMMifE60gKsbGiRM6SnGjhNzuZC7v7ON85J0AWT2Pqid9SypbgX6ckC6clqhBMOjImhJMpAPGZlQ7vtYBoOHmP6+7WE3DSArVODMUQHk0ADhUDC0Bgy9ICjgRXvHGFZuQdBrSbDJKe+syclU5MxUI0AmPcd5u6P7CRM6c9bN6nhjHOiIHN8OEbZafZt/J67djgRZQJzZiYzP17PA0PK2bBDpCT3GLfmwuCJyawbr0IsNTP977WXtTWQmH+E6R+p+fDFXiR8f4TpqwJ49/U+JEQGAnbE6hoWLz7O5n1+p0wZwnOvp5Jl6E56P9iSB1iqmPtklW9W6bsm0i5aop01z+9m8ckwXntjENN0Wob0gVWWsxJJcc0IyCipUF30nErMAtBIQryIwE+wNZKEhISEhMTPhKvquJmPNZIwpAfPjQ0kXNUNQS4QLgMClBjVQL0Hc60bUJA2NZEPetayvcjGluJG9rW0ajnN5n21PJ1swDhAz5BNLQy+IRg4zd68Wsztyiw5YccCNNhERIIRBBmCDPB2Iy3O73AdKGd5uc9JFB0OsnO7cFJCEAk6wOtk+646zF4wf3OKwpFqBrfKBGhIi+4GnMaQ0osP+/sPDfN9JsQEIiBeUQdFdLppcLgRAdHZQkMj1AOCQuYbP1dhoyAmikce0GAMDUCQyzEGAQQQHiqjjdfZOert7D0JuJox1wO6AARVWz1ewnW+i1hTL7+oqpoG3+9andtna3sBVxPVp+xAPXUXCMpJSEhISEhcD1w9x02mZv5DA5gT063Dn1X+krd8eYw14b3J7K0iLTWKtNQonrbXseydI6w46YvUNRyxsrneQKYulFuSXCRFAa56thR08BZ3+x0Hj88BOJvBDECr8tlisf0Ap0kpw5dZdPkcFoBmNzUtnK3NQAUhAQDdMMZoMbZTISgv7shcNi0dfCeXISAj/YEbeWtSEMJ5AjIE5WWU5fUitpbXUbltucSEUdFzNmN/vn1AyUaeenRjF4yTkJCQkJD4ZXLVHDehd3cyY7oBIlvWlbB4rwOzwsAHz/Q+NwVnr+OZt/azTKcmvZ+OySMiuCUylEcmhZH9NysWgJYGNhSIZI5UMXlqDwwBIBZY2ezoikUtNDhPA90w6AQE3JfnvLm8+FbIkBOiAuyAohvatqMFxRbqvQBOVi3PZ/HJyynoCqLqTtYYn9Nm/vJ7Hnz/FIUOgfn/L405va5WoTLqHXLAQ4jaC1zYWQ1X+6OfjfKffkathISEhITENczVm5ygDPBFT1ocbN/vwNwC2thg+rQrMSE+lMFqaLA52PBtOXO31NIACMHCORMG9u6zYvaCIUQBeMjJq8VCVzhNzlGfp2ccGMOs1khgoJqsG7UYLnLkOYhNlNgAWRDpJgEBMJp0JLV1gV2N7D15GmQqbrkpDGPrOQcoSLsxhjnxXTL8hyMP8EfVXOzLraHQ7gV1CImdPunLwzd2zUt4lNhxJM1PQpQLkGG+0Fi4hFtZtmIxf12xgPv6XxVTJSQkJCQkfhZctYibWN5AgUtPmlLHrF9FoTUHkH6T4TwHKSE1nreSwVzTjLnBS7hRixawVDSes6aXWH6KDVVRzIkCHHWsLz7dZZtK9pwke3hfMvVa5j8ylEccHgiUI5SfIOe7hs45gl4H6w84yBqvJnHyADYOEAmJVqM9Z4iYSPZXNWTeF4FxcAL/Nrkxu2SEa+QIstNs/6AC6Lr9l02zjX1HvaQlKEn/dT/m9GjGmBZLurqtkIxpvxvMA33xjUGUAWjIXJBKuguoKOfB16uo6UKx5nw1ZhoxxjeRIAumsMNhdG4S412Akr35F8jZKoPQhWkIBdSKLhggISEhISHxC+PqRdzsFh7/4CQ5Fi/GG2KYf5OGhu+q2dfu5W0utrDd7EYVoiatrxYjIvv2lTF3c0O76IuTnGO+bxoOWdl+OTsLNNfxzNuHWZHfiKX5NEKgDNHWyJYD9i45JPu2lvBMbiOWFgXG7t3Yu8XM9nahIktxGXe/c4Itx0Qa5AqMahmi3cm+vErWl/+IThuAt5nlrxeSXdAMPWOY/+sY+pSb2XDOOnEyQqJDSEwIIbFXIFr/d4ae/u+ilReNmnWEeCSU7ZVAbAPp7be7aqV7A+N6e6EmhA0FXT81CQkJCQmJ64lusQkDf2Qv4jJRBrP0sQFk6t1sWH2AuUd+HmZf7yRMP8rG+xsp+Ud/bs0+P6KWML2Ejfc3XfB3CQkJCQkJibNc+3uVBoay9MEBbJ1vIlMPnKzmvVLJafu5ULIpgvU1kDjRSlp7v0zWTNbNTQinwlj+meS0SUhISEhIXIprf6/SAIE+scEkyE7TUGVleXbleelWiWsYp5rFz8WREwv1KqBtijtQTs6Hvcgxq9nSpRnCEhISEhIS1yc/n1SphISEhISEhMR1zrWfKpWQkJCQkJCQkACuYqpU312P9ZT1aqmXkJCQuCiJPZJ/ahN+Mgor839qEyQkJK4S1/4YNwkJCYnLxO66/vbi0Ci1P7UJEhISVxEpVXq9EWjggxeHcfzFAczX/9TGSEhISEhISHQFKeIm0Q4Ft9wUwRC1l5K9J8lut52E0CeWnTMjMNRXc/+SMrb/xDN8VVPfY+pvkqHoFT7777/795H9CVFOZtg7L9BTVUHx49MpKL2claLb0CuDpNFxcGo3hzbtxH1lrPzFoU2uZOOfLfBpHyasDvQv3i0jc0E8sxOg8MNjPPQj36zKBD1/XxBKj8YGFj5uYd+wHmy6L+isgNvB0seq2HitX9ToOF78KpmU0kM8cnsR5oxh/HNJFI5/7eKeJywQl8DLm5IwndmOWOTz32/mtW0/kb1CKDM3jmV67NmvzKu/4vdL7efKjUvm/bfj0FUd5ckJ+eRd1ubVXcOY0Y9JA2Q07j/K2s3tCpRryPpkPDPiLbwxfhefcW69l3quoCGyZO74zWymxMfTQ6cn2Gun8sRO1n/8MtlH2g5x0jN46p+YO3YYsUEilead/PMfL/Kx2X4VZNzMWVLMfKOWx+fEkm27guf7C0OKuF1vuEUKD9WRc6iRIx35FDIlaTdGMSu9B+kR3X508yTORd57PP1vv5f+41JQSU/rBXCRlXUKY0swaz4J7Hi/22sAl91F4XEnRyo8/EB3/tpCdHLiYB2lRXYcV9K5uFxaPFQdqqW0qI6qayxTHjkmgen392PiSPWlha8m8jhuvHEYfcL1BCsAQUOPPpN5aO4rZLbZJDz25ldYMm0UsSFKUGjoETeZuY88yeigKy8DCtZ8FkqD1sacXzu6vFPP9YT0KrjeaGlg8buHufvdE2ywX1pcQuJaRxh4ivv6eRDzdazvyt51PzKufCsPvVDBQ+/Z+UVN26oo57XpX/PIr/PZcy04Sh47n83ewSO37yB7/09tzDWK5yTfbXqFJ/40gYmzBjHxiafYWgMIyUwY1t8nIxtGxvhklLgo/PguJv5hPhtrAN14MkZEX1kZPw27w9h8CozjTpEhDdW8INdXqlQXytOTI0mPU2NUyxFaPJgralmz6QSrTrR2Fbsx+MaeLLypO4l6ObS4qTnlYPv2YzyT7wZDFFv/GEMCjSxbdpAV/hY4/Y4U/jZcQCwqZdS7VowTk1k3XoVYXM5yUccDiUEI9npWfVTKsrYxb5nAtIlGHhgcQoJGhljfxN6CSpZtqr3Apuxt6Ubmb1JZ2s/BspcOsqJdaDl9+iD+NtTLmjfzeKY5io1/jCGx1VX3NrJi2UGWtb5BZKG8trAv0850BOXccu9Qjnck6zuAhJHxPJ0ehlEmkvNlKQ/ucnQq2qG6/T2mZvWn6q0J7Nx6rvcoH7Oc2x8ZRd3a6Wz/32PIoydjum8WvQb0RiWz4zDv5thHf6E4t6KdVi36X71N8m0DUbkqqPh0CXs/2U1rTSuSZjLo7gx69IpGgR1nbQXWnSvJXdsm/Rg5maTfni3LXrCJgvdeoaKibXxEg2bCH0mZchOGSD2IFdQVbKNozStUtUsr+6qpNz0XrGJYqh7PifXsenYRNXZAlUzv38ym740D0ajBXVNM+Rcryf9kN25APf1DJt/d/6yeXjOZ9M+ZALh3zmfDq1/5vtePp/+smSSY4lAFgttWQcPhTexfvpq6roR1OqPnEjYDED2bCX+ZSSi7KVh5iO7TMzD00EB9PoV/vo/S8BeY/MRkVNb1bH9oEVYvIBtG8utv0zfSzomXb2X3f+yAHv3t80iePIpQvQbqK7Du/Tv572ZTd04+3Ev6uDoMyMjZo6WjSwBAqJo/LNBxa1wAjcfrWfG2la3+5yVsQChzJgYzuJeSsKBuuJrclB1sYFV2Hd/WA8jJXNDLl3L90kJlnzBG95SdpwddEH/4bXdujguAKjurvu5C/bejR3Ios6dqGR6tQOn1UHbEztp/1rKxqnXZzW5MeKAXz6TKqNxlYZ1cw12DVITJvFTn2rl5GVwLPlR7dBP7MXtOHKl9BWhwULTtMKtfKKO0rbGCmrR5idw12YDRIMdtaeDgtsOsfuEkZhGQaxj7jInbRuqJjxFQtnixVVjZ9U4+q7PtlxHNlBN//zAe/m0kEXIHuW/u5aXVdWf0KPtGkbXARPpQDTq5iDnXzIdLD/J10dkGWj0ygdnzejO0rxo1bmxVdko2F/HSyxYcyJj07u3MHXm2xMjM0WzK9P0/79lPePKDH3nMiXc3H2/YffZv61dsOmhlQrie4CC/xxQ+lCQd4D7A1q+LcTUdZf3+Cm6dFE1S36Eov6rAdaVkWu1wqdn+vZLM9AamjfKQvUmOxPlcVxE3IUJHZooWo6wFc3kjhXYw9jbw9H/15Ba/CyvE9+TtjAgG68FcVkdhlQdV91DSjf5N1i1W1pcDsmAmJ/qDubJg0vsJgIec/LpzXh5C32jui/BgdoCgC2XO7T0YfOZXBZl3DeC19DASQ+TQ4kUIUZM+sjtDOuVSn+aIRQSZQJ/zNnGXk9BdAd5mSixAi0hJeSOFJ8ULNOgtmE82UljuxNLi+6bB6qCwvJHC8mbMLe3E1WHMvyUMo9ANIVBF+hQjWSGdsRmcJytwokQd1fu834J6RCPHjsNcAbrJDHnmBfoP7o2iuQJ7Pajix5O04G2SkzXnHtg7k9QZw1AHKpHretMz6wUGpvplNBkMmjebnn0NeE7mU3W4ArcQR/Sg/pzZaEszmSHP+spSKV14AjRoBmcy4pkXiNa1Oe2pyxj3YAaRPfXIceEVotGPyCA6toMtu+Qa9FkvMyRVD5av2P2i32mT9ab3ghUMmTAMjcKOvdIO4cn0zlrOqBm+JSw81mNYS4ups/gdW5eVutJirKXFWKtand3exD/yAkmp/VE0HaWmoBiHtzuhQ4ai7dKT3Qk9nbD5HGQDMf3+XgxBp6g7dgy3Uo9KpcRT8G9qHIAuBUOMXzZ8KPpwwJlHVb4dUBI6YwWjsyaj14OzsgJ3YDThE55gzIJ7OSfJJBNJS3SBN5B9hRdu5PuM6c4dsQEoZd0IiwtlztTAM9e+h0nLhAFKlGILR0qcWL0K+qTqeeZeDWHt9CSO1ZPodWN1t9ejIPO3kdzRT0GwohvB0Vr+cGcwlzP/J3iAgVcf1jO6VwCuBjeVThmxSaE8/gcDEzp4xvTDujN7mBKxxskRG+i6dvEvja2adc/m8tqKcqo84Mot4dWFuaxcX9clNcqRSSx5xUSayedsoVOTcucglqyMI/LMpRMY+8poFt4fRXykAkQPishQhmbGMqA1dyaEkJ4ZhckAtaW1FB11o44zMHXRMLJSL+P8dEay5kQSESRDqdWQ9lgiU1vHxxkieOyvw5g+RoNO8OIKEDCOTGDBXwczNrJVJoo//CWJsTcE4iqzkPe9g0ZtKENHhqDxn1dtmT9163fyXTY7pUV1lBbVYm51/D0Odq3I5bVnD5NnO7/erwoyJUpBQ5jxDqbcoAesFB4qAkAZEU0PGdB4kjIngIvKSl+HWWmIpscVlGlLTmEgIh6GDGykw6CbvDfT5z7Ak//3AR4Yfd6L77rguoq4iVYbi1efZPMRv/MSEMxzfxxAlj6U9FjYUgoJvYIxyKBhXym3Ztf5IkiBKtJ0bn80SWTDgQYe6akl8QYdCTuqMMeEkR4CNNexpajdE1Zfw4LlZeRExrB1dhTG8CCSAmFfMwgxEcxJUgButq8rYu53ThoCFKQP0SJ2sgNWUtmESBhGvRxOhfDcFB3hJ6tZ8A0YQwG7kxIRaLYyd6XVN6v0md6ktVfkbWTZ6oMsk6l57o+JZBk85Gw6yIMFF9hYI6CFLe8WMLc8lL/Niyc9UM0QI6yq74TRZUdxeCHUEI1cBj0fysIgy+PwymxUkd3BW0FduQvN5Fn01IM7dwmfv5SN06sk9O61TJjem/ipUyjKzz6rU9VA+ct3sXd/NP0XLScpXk/MmFEcyN2MJzYFvQao+pidC5ZQ5wVkekL7Gc5MZlBPyqK3AajazM7/foqqlvEMen4Z8dHjMU1OpuKDfFCOp/+0YSgA+/an+GbVZpwtGtQDpxBae/5pBo15gRGTeiO37Wbvi09R4ffo5QOzSEzWgGUzOxc8RZUd5IOfZeJTGegnzSByXT5V3zzF9m9Anr6cO2aPgpMf892TK7G3vS+U/dEnKMFbTOGiuzhcBaBEZRqIvCthh07o6ZTN55SppGnXfLat/MoXjdP0Ro0LnLupOuSi5+BowpOiKT5RgSIpmVAZeEp2+5w6zRRMk/sj9x6j+Nn7KCiygy6DEa88S3RyJvF9s8k/7C8spImk7oBLxZHKi5zjSRu/W1aP8g4jb05SENZLIJZmjgC1h2w8920jWyv893pkKH/9k54+/dQMVtjZ2mbyQGNeDQ/9jwPNpGj+fqfqrJ5wNRP7dAM8fPt+BQu/hay5MWQldOE6+GqaW6dq6CE7TeHHZuZuduOSKcj6g5GZ/TTclWZj6+ZzZzMo3U5WL6lkjfk00I0B0SFXdpxfk4M92W32pCur5euyDm74iyIw8cE4jALYtu1n3qNl1A4y8fLqfsQP70fmmKO+yQzD+5A1UQBE9vx5J4vX2HEFCaT8yoCrtfPoaeTz53bw6r9qsYkAMtJen8zCyRqGjtewOreLY0CEZnIe/ZqX9kewaGMqQ7WhJNwAlIHxHpPPQaso4/l79pPjMTD3HyOZFBvDXfcd4uuldujbnTgdUHGU56cXUCQCcgXxw1XUegC87Hl2B3uAoX+5lUVTFdR+sZ9HFravQy+lm8spPfN3u3q/CoSNXsW6e/wdr8Zj7PjfJbya568/QePrlIgiPaZ8yGejK3hzkwsXoBQ0BMuuoEybdk08rqKGeoxGJwmyEGmLyw64rhw3LPUUdA/nkTuCMAbJEWQyjCqAAMJDugGnMdtERNRoB8azMfAUW4rq2XawjpyTZ9WYD1jZe4uWtJgwbtFXkXNDKEYZNBy2srn53CLFqkb2toBoFTEDRgLQqoBmMMZpMcqA8mqWfef0OZMtbrZ/1/kRMGKNkxovGLoHYnCFkZkchhDtZs23DowhIB5r5sjVuPEdDWw+5AGvg0IbpAfKEZS+Orwk9cdocIA+PA6VPppeY8ajJ5q6dTshXAPNFTRYogk3+SNyMVMY9swU3/+1vj6Y3NgfrQzONGsV2yj9rgK8FZR+c4Ck+GEook0EyTZjr67A6QJ1ZCajXuzOie/2UJW7lZqiYv/BesIHxAFQt3ONv1f8FYe/KSb+7v6E9k1BRT7OXkPprgNcuzn8wWacLgA7jn3ZnN+8RtNzkm/8hnXzEo6dOOvVBPVPQQWg6k/fee/RF0Dub9zUvQk1QFX7THBHtFTQZAWi+5O46D1C//NvKnK/oqpgd9dm13ZCT5dt9hZTtv6rsylU+zF/HVmpyS/GMzgZnSkZ+SYLepMJOWDN3+krr08KejXg0hJ59wrCPABK1DKAaEJ7a+Cw/xnp3uLrlTfIaWgfFW5D2fcOjnhPoyxz4kKBUiFH6X9hVB5yEpsWwh8mKNEHyVDKA9DLAIWcKC20HZBWVuakFmi0unGhOqNHGa30RxUcfJbjxuWGtTuamZGgpoNY7IURVAwx+p6jsEEGXhvg+1rpHzAea1SgxH1OOrCxoI615tbn7jRmi/fam6AhhDJggAxwsOuDMqpE4NsSPsvtw9yRAgOGamCbncghYUQCFB1l9fv+tGeTSN6a8rO6xDryDkcxaUEyCZEqlAGgi/eFtoK7q1DSxXSpzcbObW5oqae0CoZqFajVMkDOgCG+9qb00xJyKgAsZH9cy6THwjAONKDDjq2yEZsIkdEJLPwoiF3bTrLn82r27PqZDSIOiqZPn6HE/ns3hU3tfvO6cLldiBebMnCFZMQGBQ1eQOcmPADOv5gtNNbbcaigsflamA3z43MdOW7dSL/9Bt4aqerglumG4M8uNBww80wvgaeHqkkwRTDHFMGc20W2fFzM3FzR1yA6atlwuCdpScFMTg4jpK8KcLN9f/35aUj36Qs2otogX/WLdpGSyzwrsaaZEi+kdRcYghrB4aEhJIjEGC9GGdTUNF+dsS4trS+H0+f0ljqF6yj2SqBHNJoE0LbYcXujCe0dh9sAWI5hb9EQ6s+JKSKTCY9spyNAQN727m1owOm3w2uz4wYUgUrfS9Oyhtx/9Cctczya+PH0jR9P37v/iH3rn/jmrc040aJQ+16vTtvZRLfTdsr3n2AtcpnvUwHgsOLoTEfYC8hAf3MW4Z8v8kWTUKL0O59oehOe1O4YmYYAlZIOWqsO9OdzaNVqQmdnEWlIpufUZHpOnY279O/sfO4VrJ3trF9Sz+XY3IB4gRvPmbubuqxk9H2HEaq0Et5PA95jVOYeA0Ae1N1Xz0o9oabzk41y4aw3JYD/2e12UWfF5fQ38B6flcrWbKJCYOb/jSarV8czqJXts6+u0x3rEWS+e63ei9VflMvmoRHOS7deFJUcjcJ3Pj16BZ6XRlKeZxDYHT+DkISgQK0GPG5qz0wgcVNrcQMCCt9Jow7xfbpqHFRf4J2suzOVFYtj0HWQGVcKl5EmFl3+ToUXV9sy5Up0vt4CjZazXaHaU/7uiFZBsBxsR4/zxsthLHgsBqMpiqmmKKbO9mL+Vy5PPH0S2zXsW9R+fR9jvwalfhSZv3mB36XMZOEdedz3/k4Q7f6omEDllvuYvgmCR77tj57ZafRy5WTacqa+Tnfs3nnMfPHuh3xxxWvj58P147gF6Mga6nPazN+V8ODnNgodSuY/ksKcmDZyXpHsdYWs3yyQ1ieU9CGRZPYXuGVKFOkHjrGlBcDD5v11PJ2kJ3GEkXANYK9j85FORJva0NDkCxEIGoEEoPByzqvFidkGgi6YdKUS8/fVlKToSTK1YJSdZm9187XX+6aCuko7JETTI0WDzLyJUtcd9EgaRXMIV+ilogAAIABJREFUuIuP4vTacfsdD+uaqWz/pOMQlKr1P1otKhk4vSDTanyDN5tdflfChX3TfD7fqkeTdBM9htxB35uT0UyYTd9tX5F/uAG3wwUoUekMtDoFKp1//ERjAy6v79MNqNR61AKX8K3sVLw5n5oxyxmUlEHynR+zdU0+4MLT1ADo8eQu4pMl6/kh7bq7YCU7H1qDKn4Y4UPHEz9pMvr4e0me9DHb1x27Ynouy+YL+RM1/8ZSPhN9TAqGQad849tqdlPlD6p4mnyOt9y2mR2/f4qai/glYqPc1ztXedB22Du/OMo+Wqb26ga42fF+NStzRCoFLa8uM7QZi9oJRK/v5aSSnX3ZBNFhtM0FvvupI5ynsXsA3GQvOcHK410x4gIogwgNCoDTIvZ68Qfdb5dCbI16tn+ziG5fZ0erICwcKAJQEGbwOWpum88ZctT7PpXhaiLkYD7PWIGRv/I5ba7vD7H4iRLyDrsxLbqZF+8+f4kNsbX3JL+MQe4eF7YG3/HBBl/nHCCsu89mGtw0+lOhpX/L5ffZecQPj2DouFhu+5UB450m7lx/ktXfdr3oSyNHFaJG1Q3czQ04fmAj77LuJHv7bu7tP54evVLowU7Kqiuo9EKf4ChiVbCvSUmPcINP3lJBJeC6QjLnEOLxPUOOi0fRr2eun8kJCjlCAICbfQdrKXScBnUwie069EKkllsi5YjNItvzq3lmbTl7W4BABeGKs3INxRa224EQAYMMLIUWtnfxJjMfb8TsBaIimJ8q+FI+MgXpI/Wkddal9jZRcuo0hIUxLtJLYWkNey0BpA3QIODCXNPFZtrrQfQAyNAGX63bw0VDRQXIehM5KBpnyU4qSi0EDbnJl/4sO4YHC9ZSn7MWOvZen3MMgAb14HtJmtRuQHz0OOIH60GZTPyYgcgBd0URTV5AnUzk4N7IXVbs+9ZzeNWfOFwCYEClB7BSc/Cor6xRmUTqAM0o+o7xzeqsO5zna7KP7+GUDVAOo2/WZFRKACXq1HuJjm//im7AfuIApR98jN0LoRPnEe+PGtoPFuME5KY76BN/dpKFoudk+s7I8KcE/bj9HVB1d5Tn3RPR6G8chkppx1n6FSfW/on93/jqTKU3nCsqNzLld/fy6MP3cvdQXZf1dMnmS+EtprLAd/1jpo0iVAbOgp2+sYcAR/KwOgHdMOJv7s+ZV64umegZs4lsOy/FqqKkEQh2kXA5ywcI3XzOldvFf74VqXRDcJxAry7e+q4KF5VeQBfImF7dgG4MTw4kuCNhu38dN4WSvsZ2v4lOCsynQaZg9Di1L/0KoJAzeIyerAFdswtANWAcD82awUP3jqTXVZ2k58bRBCDQs087J0qs4+BBL6Bm5N0xRAqgTI1j6iAZIHJwvy+tWLW3lioAUxz3ZfpT8YJAysxYTEGAPIBgv+rq/ZXsOezGJVcTPyCwA3u8OHxeMBFxwXR95TQ3Bw/4wsbxkxMYGgkYDEy/3RdDNR+wYAPQhTJ0nBplk5vSbeWsffYAnx4EUBHZbuy8yz94WaNTdS2F3h5ZBKMzZ/DQrBncmXwZN36vDO4dMYo+er0vahyczK03DkQJuJwN2AFq9lBgAxQDmXBTf5TBN5GR2htwUXB4j+8evlIybRAiXL4hRFUCBR11cC7all0fXD8Rt+YG9p08TVqMgvTxsczRixhv6EF6u+ddiInkrV+H0GBpoqTOjRCmITEAsDRR0LZX09LA+kKRacMF8IpsO9DY5ciWeKKSFQf1LE1SkP7rFPZM9SAq5GhldTyzx0pOp7ScpsQigkmFIaCRArNI4UkXhuECeBsoqQHoxrTbTTwQC8gUvocCNZlZA0hvAaqqefAjK2afVRRUeyBSTtptyWwdKiJ6m1nzj2Nkd2biQSdxnjiGm/6o9S4qSvKocxfjnToeFXZqKo4CLuo+XU3FyGeJ7pnJ6Len4Kx3IQ/Ro1CCc/t8Cj5vo9ChJeaJrfR0gVwJYKX8m50+p0dzE6YnZjKi/hh1FRY8gfHo4wFXMdZjvmbD8fkajo1/gd6RGYx6ewqeFqVPj+0rijb7N+x2fUXxp/nEZCWjSX+BqSOfxO0VUKhEji3JpsOY4OFVFOyZwogbk0m6N4MT/2897n1rKCoYxaCkZJKWbqWfxYInKBqVGqj4OzX/PHu450Qxdu8oQg0ZjHothYYGEff+v7Bz7W6QRRN979v0fdhKXUUpTpeB0L7RgJ26w6XtDAlAFRyIWgnOwHZv707o8XTB5kvjwnogH+eUaEL79gfsVOxvszSB/WOKNmUSOb030bM+5PZfVeDEgFqnBG8++79c2UZVIHsPy5mW2kxSfy/s7JrH5Tru5LCoYbAQxIx7Qwk2yxkxTtu19CZAjYMvjoTRp5+COx410rcK+hgVHcvamik4BX3CFdzxaE8G13hweZ2897KVHW43n22yc+vDWnoMjyQ72UOl2A29ToaS03z7Ti2dGkf6UyA2kPe9yPRYAdMjY3lnigOHKLLn5f+wZpfIF28d5bZBCRjHpfLO3sG4/Ollx7eHyP7Gr2PPEbK3GZk7TiBt0Xj++bgbt1yBOqCa1/5ZRlGTg7z9DjCpMU5O5GFLJY39enLbwI6v+8E9tbimRqAcM5j/2ZpAbZOX6k/28/zqzo0/M79fxNd3jmBsbCyLvjbiapGhFABLOR++59dh6E7WG0kYa+2Yy5poVIdiMgGinYMHz9V34lADLgyoJ6byt40N1Hq8FL25kzc2/8i7eoSP597fjuJ35/1iZ1/ONmoBvLtZ/1U+t/6fZBJ/9SFf/MovYvuK9f/xt3ZXSqYNQ/o3ISCjpEhzgeV9LtKWXSdcPxE3RJZ/UEp2qeiLcN0cQR9rNRtOtpM6aWNDkYN6lYrE+FASNV7MpdU884+K82a35Bxp9I0fs9nYUHY5NrnJ/vAgj++opaT+NIIgR2h2krPH6ovydZKCaqfPaaxvZF/9afaW+ddTq2+msBlARkh4MIkxwSRG+SN7dMMQ6f8uUtFmLMFptnx+jOxSJw1eBQkxwSTGBGK80i5++VFfist7FNthO55Dxf6/T9HQum6adT27//spir8rxuEWUOk1vnXT8jdz+D/F5+o7kU3u/+7G6XbhsR+j4oOnONA6u8yeR8W/d2Nv6Y627zDCe2twn9jN4eV/orTKf7x9M3sXPcXhfcdwtiiRY8een81//vQUFW3Wx3N8ModvVq2npsKOJ0CDAjt1+zZRUXahHJ2ViuxsrC5Q3DiTpMEa8BZTumQOuzftps4KMn00Cqw4SndS+uVOzhmydGIN+9fupM7qQmbojT6+P/rWkJO3gpqcr6ixgrrnQCKTopHbi6n430Xs/6YLS7x2Rk9XbO4MB/3LggA486goaFt/Luo+mMWOd9dTU2GFkGjUgSLOinwqtmzyLalyBjmbd2kRcTNkSFPXV1u3NbB0VR37qk7TI1XPrAmBNOY0dGINxfa4yX63io9L3LhUAcQGuVj7ScP5aSAAr8iqd618W+HBFaQgtpeKPr2UvgkRQG2+hcdWWNlR4qZRIadHcDdcNjeFu+v54njXnbaQEN/y9GLlyau3rAQAXvYs28e6b+04WhRE9g0l/oYwIv0BIdeuAp74YxE5RSKuAJlvHbd/7eeJR4+etcsj8vkfdvDSmmrMFi9KQYGiyU7eejMH/T3jopf38MZntdjUBqbOMTG2ey2ff9HxgE7Hv/J5NbuWqgYZuthQ4k1hxPXowsveUs2rv9vNul12bC0ylIiYvy3hpd/t4+vWtsNSy67N1ZhdSiJviCClrwLH4WrWLdzLuqPnqrNl57P6s1qqGkDX12eP8XKCRoogdIGA105FeddnnroqdrIxr5jKersvbe+2U2veycfvPMAzbZypsi+f4pkNOymrd4HbReXRzby2/EV2tJm8cKVkAJC5SBsogjeQLf/+QTHJXzTdYhMGXpXum767HuupX9T64O2QM+2eZF5LVlCyvZAJW67utG0JCYkLoGpk6ZslZCr1zP2dkQ3+ceSJPZKxu67FZWivLhqllsJKf5SYIIbd/V+Mj7azN/uffHHiGh4pL9F5Ykfz6P/pj6psFyv/WdjBrPafJ0Kfaja+UokxN5YJi3T+LJBEe66jiNuVQiArcwAb5yfzUrICXA1kf/dLeWwkJH6GOINZtU6LqK0jc9y1vmP7j4wyihg9eE7ks1ty2n4x6GMiUWPnwHfFvxinDbyk32YlwRvImrWS03Yxrp8xbleMbhijgkk0gGhvJPvTY6yyXfooCQmJq0fJRiP325ox2HxLhFx7M6l/IlwlrFt+uYsNSVyrWHf9kxd3/dRWXGlOU/OfGOZuU7H90E9ty7WNlCqVkJD4RSKlSiUkJH6JSBE3CQmJXywa5eWsESIhISFx7XLdOG5SBFBC4vpCijpJSEj8EpEmJ0hISEhISEhI/EyQHLdfEuooPvhoPMc/SmV++00OJSQkJCQkJH72SI6bRDuU3DItnqezepHZ81Kybmb9uZDja4+R1XZrF7mGrI0ZbCoeydRoIDqOF4sz2LTRRLwcIh8by6YjGSyfff4mNLoHR7PpSAZvP64577eO0M30yW/6MI6LrWOpHh7Hgo9u5qOCDNbnTeadjSOY+1gEkVd64e2gKBbmZbDpyHhmpl4BfQNjyHrKRNZMw2Vs2SPRaXRhTH3KxMzH/Vsr/dzKEiJYsDeDTUduZubwK6Tzl8YN/Xi7+BJtS1sZIZSZWzN87Yv/X2fbpatCZ+0JimJhQQabiseSdcOPZNsPbaeEUKb+ZQTLv57MRwUZbCq4lXc+GsT0ke12H5ErSJk3jLdzbj8jM7X9rhmdkQEiM5J4ceutrC++nY+2juThO9XnbEOmvHMY649k8P4S37Z/KUsms+nI7Sy881xdg7MOcfzTYpam/ni7X0iO2y8Jj5PCfVZyDtRzxHmZOmQCaTf3Yta0WNJjLn57aIdV88BAN5ad4WSf6nwRtZVNuAB12PlbAoWFKPwyl3sCHdA3joUrkxk7UI06wAtygci+EUx6MI6Ua9wbUvYzMuP+fsy4I4yw63N3lx8HXRjpWf2Yfn8M8Vf7nvgxy5LwI2NoVhxGsZpP/3Gh7a7aybR4qDpUS2lRHVXXwuTka82eNvzgdkoezNDJEcRHC6gFQFAQOTCWmW8MY7rprJhx1jAWPRiF0SA7I/Pw8hTSdF2TUQ43sej5BFJiFSjlMtSxBqYuHk7WyK67RPs2hZPjdJKRdYrEH8mjkhy3XxLOWha/eIC7Fx9hw1VfW85N5jQbBgLZ/KW6S+tmuaqcOACNQThvo+VgjQxwY7NcuYVUjVN6kqIFV9Eh5o34hIyk9dxzVy7rvrHTuR0LJSQkftZEG5k6UcC27ShfdLipcAcyHjufzd7BI7fvIHv/j2nsBbjW7LmSeJrY87d8nv31RjL6rCdj0m6+LgOCDKRP8UcVhTBum2FAiZeilV+RcdMuPq8AIo3cdqfQeRlkpN4dh1EAxzf7+e2Qzby0TQS5hklZkV2PGJ4KYcN+BULvUzzwI0XdrptZpdceMjKfHMPSVBklnx9ii8FIVpIKrDay3ylg8b6WM3LT5t3Ea2kBmLcVsUYexQM3hmCQtWDeWcCtK600RPdi46vxZ719bz0rHs1lWZuNEgffM4J104MQ95Wy3BnOA6lqhHobq1YUsKygBZR6XvufgUw7E3kP4JZ56Ryf17E+etSTkeSBGi1bjnTx1CubqPVAvE6FIiiKBf8eRppQzUs3fYdLqwSPkyp/Wcq+UWQt6Ev60FB0cjdVRy18vSKPNV+0cxUDFKQ8NoKs+w2EiQ3kvnOAv7xVhwMI6+6L4rkr6znhd2htueWszi0/R4WvLBPpQzXo5CLmXDMfLj3I10VtH0YZ8XcnMfO+aEzRAjQ5KN1zgrUvHWJPR/vVytVMemM0c8cJuI4eZfF9+eypArShTHoqkenj9Bi14KiqY8/aAla+VYsDiJw9mncea7PVeV8Tbxf7up6Ozf/hnkerudDuqOcRG0HWUyYmDdeiE8BR6+DE/jJW/7GEotZqvIQ9AJj6sfxjE/FYWPN0LaYH4kiJVUCthbW/30VexnheztLg+GI398w+6bOvbwLLP0kivsXCGxN28VkVgALTg0nMnBFFfKQCGuwUbSth9QtllLZGEoQwHv58NFOj3eS8nEftGBPpN6hRe0Rylm7j+Q862VUQ1Ix9Kpm7bjZgDJPhanBQXXqKdc/t5/MiYHgS7/w9gcgzBxh4OCeDhwEqSpg3qYAiEdRjEpg9M4aUAVp0Wp8e87cnWP3nQ+S17ll5KZuP9ulUWQC6if2YPacnKXG+4817zHz4cpt7UVAzdtEQZk0ORe2o44uXys/rBHUWX1lxpPYVfPuHbjt8zrWIf3w8y2dqcO06xBpHBHeN0aI4ZWXds7tZ801nOlgyxq6eyoJRdayZsoO17fbvHLpkMovubOGz33zJG7tkxGelMDMrClOMAkSR2rI6ct/ZxxvrL39ZZeOM3gwV7Kx978LPTWdkLsQVaTvkGsY+Y+K2kXriYwSULV5sFVZ2vZPP6mx7l20COcGp/Vi0PIGU7mD+Mo/FT5RTdeaZ1zBpQTKZE/VEasFWWsXnK/JYs7lNPV+i7bhi7ZRYy2dLa8/+ffQkn+eKjI0VUAf5Q3hxBkyRgGhh+/t2XBY7n31hZ9L9GkxDDShXl+PqjIwQysBBCsDNnvVmqhq81P6rCtu4WHQ3RDBAOMmeLt1qMrbtDkYcYSM9vRHtbi1XOyAqRdyuARLS+5DVw4253ou2h55Zj5nI7GDAVviofjx9kxpnVT2FVggP9acaXU5KSuopPN58yRtGGNib+2LcmO0gGPTM+V0sg2VASwvmo/UUljRh8T9pDZV2CkvqKSxxYG739BkG2UmQgXhYzd72nQyPg10rcnnt2cPk2QBbNeuezeW1FeW+zaSrnNS2ACEqwuI1RKgBIZgBA+RotArASW0VEB3FgneHMX1MKGqHHfMpCDNFMeP1UTw8pt2t2zeBx2ZHECnIUOpCSZs3gpkTfTInSv2p2XGDWPJ6P8amnp+ixRDBY38dxvQxGnSCF1eAgHFkAgv+OpixZ9+0GGeOYMmiOFLiBJR4IUiNaWIC6QM6qm0FKU8N5aFxAlSU8+oDfqdNrmbqypHMvdOAUXBjLmuGyDDGzhvFknk+z1k8ZaeoqI7SCv+LURQxF9VRWlRLSZm78424XM30JTcyY1woalsdeXvqqHKpiB9joKdwVuZS9pyrU8+MRf1I0TgxH7TjUKsIVkPRDgs2QJ3cHZNftzrVgFEOFFWTa/F9Fz9vJC/Oi8UUCbVldhyChpQ7B7FkZWwHYw4VpM5JZeoAqD1ch1lUEKHrfH8z/rGhLLg7AqPgoGiPhVILhA2KIqWXX8DRxNHv6yg97PDXqZuqw3WUFtVReqiJRn//KXJkLGOHa1E2OSg9UEu1R038RBMLn4/pYGzlBWzuZFnqccm8/LqJNFMgnLJT5VBgHOO7F9Miz57XY3eGoQuSoQwLY+oi02Wl/ZUjk1jyiok0k89RQKf2X4u4866Fcngf7kzwUmUDZbSBGQsSiO9UWsyL+agD5GoiEs6vq4hYAcRGThwG5bgknvvvWFJioPr7aopKXQixEaTeEHi+2jHJvH8kg01HJjN33EWKDzIwPSMU154SPj3wA2QuxJVqO4QQ0jOjMBmgtrSWoqNu1HEGpi4aRtbljJeVq0l/zERKdzlKQUH81BRmTvW3m3KBSa+MZm6mgUgduFpk6PpGMeMvo3h4nOzM8ZdqO7rUTp0Z/3uRsYKCDKVWgS41lknDfXugFOf63mrKXkG+e9LmwOx/0VUd9+1Sr4xREyHvnAxBQUToAI+DqjLfy8t13E6tBwgLIsK/9KMrt4RXF+aycn0dACfW5/Hawn18mnt+VM1SqKbEC9rERob8CF6VFHG7FrCWM3f+EbbLw1j68iAyDd2ZNkJJ9qZzX8+Cu45lT+ax4rgXkJHQI8CXorRUMffJKt+s0ndNpF20rJMsePwQOT3j2bq0F8YYDUlq2GevZ9lzuSyTaXju9WFk9Wgh54NcHszpOPSbFNeMgIySClUHaVIvpZvLKT3zt4M92W121BObqLYBOoHIeKXvQfOoMZrU1GoBh0itDeLnmUgz+MLZj8wuo0qUEf/4aJbPDGXivVG8902biFmQi5z/u5WXtgWS9Y/RzDAJjJoWyZtfnMSWXcjaiSPIShWIn2xiweR+zDpwnDWLC/j8gO/8jPeYfI1sRRnP37OfHI+Buf8YyaTYGO667xBfL7VDUAR3/dY3+LZq/W6eevYkVaKMyPFG+te0rwMZkRmpLMgMRWmr5o2Hcn2hf0A5Jp67hit8Zc3YT04VqCcms3xlHPGZCQx9cz97svczLxuUmSNY/3wElB3l+TsOYe7qdpNCCAMGyMBTx9oHdrD2sO9r3cgwBLEL9jSde261n/2HeU9XY/MABrUviuSoJs8Wx1hDGCl9Ie97GSnDw1ACpd9W+5x2Qwx33R2K0mNn3W+2s/pbL0THsPDjVNKGJzB1aBmrv213DkcPMe++IopsgCAQGd3ZNLoCU1Io4CXvtR08ucZ3nDIujPjWevz+KM9PPwpxCby8KQkTdaz7zS4+s5yrqfbbQzz/8UlyWiMordHHoVGkBJXzddO58h3afLQTZckFJj3Ui0i5l6JXt/PkSjsuQc30d8czMzWGO+8sIme1gvTJoSiBqs92M+8JCz0XjGRRVmgn66UVgYkP+lJGtm37mfdoGbWDTLy8uh/xw/uROeYor21rI151nJfuyCdvgIm3P+yHMT4UUxiUWi5YwBnMpU240BAZrYC4CB6eF0XwkWO8+qaHnj2AU3ZKGyBiUBg6wPFFLo+0Rmt0Gkyxlz/mVZeRQHqkSM4LZi40gqQzMhfiirUdnkY+f24Hr/6rFpsIICPt9cksnKxh6HgNq3O7OrBDRu3/fs0jL7mZ+o/xzByoIC45FP5VC8P7kDlGAWId636/g9XfKhj7+jgWTNQwcVYv1n1zlKpOtB22K9VO+dHdPYL3nzL4ldeR82o+Kzf7n7kgBQoA0UvknNEszGhi9TseXIBSUBAcANWdkEGr9H3ixTUgibff7UHeS8doBEBOsA6wAGW1fF12Ngpo+/Ykn7dvm1qxqihphsSQJhK7w/bz3gdXFslxuwaw5NeQ4wSoZfvBFjLHBNCnZyACrnOcoob9J1h1vNWR8lJS2fXguVhWz14XiNXNmL1gJACtCro22MtLuM4XHqipv4yRqC0itRYgXkV8vyAUFdXsaYkgIbE7pWrA5sSGQMogf6+sVyxz340BQKn19byVCWEkCOWcaNVZVs6/NosgivzrYyszTAbUvUIwyk9S2lTH2v/ayp5fJXDXPb1IMwnoBsYx969qFL/+D58dVTBgiK+bVfppCTkVABayP65l0mNhGAca0GHHlmygvwEQLax7+SRVTb66qPqijNZs2VnUpGX6QiBF7+XzWdHZX4xDDb4oTVAYd/5lJLcBBKjQAGhDiI+FPUXnKbw8xCaqqoC4UGb8dTQ9vzjJ7h2V5HxTe+YF1WV7PHV88Z7faQOwOPznb2H3fjdjx2kxpQpwWM3AZAVgJ+8b/w12gwGTFhCV/7+9e49vur4XP/4yaZK2aZKmadpAaUsvlhawgAIOxEsBLyBOxO3A3BF3YdNNp/sNj0fdxePmdYdtOmXHTY7b2IayOURFGSogUipypxZaai/Q0JI2TdMmTZtLE39/fFMupaUXQejx/Xw8fKjpJ5/v5/vNN9/vO+/P5cuE+6bx5H0AalJ1AAZy8jSw/dTArPzVKiUAAggEcPToautbiEZHANAxYelVPHlJA9u2HWPbOy2U9wy0+uHe7ib0lYv5/rcMJBlVaNTxyiBsXSxJVqBHN/mQ26y3MjZPBUQwzyrk0RnKywnK6U/GGBNao4YcG4CXkr814A6A+6U6qr+eSMFgvo66ROXGjI9tq44oXWjbq1i362Luu0LH2CkG2HTiwhCsih63I8pQh3Q0aA0oN7l+BKtbaSSV1NEG9B0jue66kWjHdPDm31pJTYbgXi91AeBoB0ES0V83medW2Nn2QSPb3mmkvLcsWCCAo94HBKKBTi/UBm5alIq25hD/3NTH+KOBlOnTWbx2BFrZXzmS6x8oJNcWizYGzNGUZkJyLFoG213qY+e7rQQDUH2oEybqMRg1aIGkKcnKj629tfxzWwQI8P5f7Cy+Lhfb2GTydTU4BnDtGJRwiBaHD3c8tLQN4DibjWRPSiLD3HLiu3S8rjDBQJjAmToNB1IGCAZC0HXSC119Fu1bl5o2D6DvIsUMSOD2f1+bP3I8QPP4Q0AMurjTP5o2z1DOqB7C0W2drTGUQ/llFe7E4YzA2FgKxuuhqpaSjiSm5FjJMQD1HTi6tEyJLpWgz0xiQmaPOuLVp47pcQdoiR7EkDOAD9Dr1Whjom0Mh6heXc5jq8sxzxzDT/67gAJjKjd91cC6ZRHMeuXL3e488cu+pTkaQBg1JKjBbdSgA+iIZgz73U9ADQWL8piyai87o+9JMEdbbjZQMLlHl4FaTcLZnGkYbuXln5eT/vgYpqQlcc3iJK5ZPB7fx4d47Nvl7HcPpT0h2nudRRxh57YWgjNTyZ1sQb8tXhlv4nCy82OlhNaoUQb/6nTkTLaeVoM2vudFNoS7ZegTVXY+s4c1oy9l3kQDE+aPYcL8MXz/AScr7v2QNb10efRKl6hkcS/p7QagQqvr+dpnaLNBq8yqQ4XtEutJ4+EU+njViXM/7Kele9yp268EL4NZXkSnQa9HuaEev9GEaHGGAB0aQ48hBYHo8RrKZajaiyMAE9IMjMWE1h3CZzORc0kYWwy01HiVsZRrD/DM5HjuvimR9KuzWXR1Nose8FHyRAmPrfKdWuf2Qyy95sxPI9dencX1BRH2P1FDdR/B3UDK9EmtPWvXDvOtk3n+8VHfZPPtAAAgAElEQVSYewm+tboh9L+FQwSjhyzY4zptNigb8bn9J8awNvlxh8Gm0yjf+Y7+rx2DEnDyu+vf5XdnKOL+4zbm/hG02VYWPD6VxVeP5z+WtnHXT5zQESKEciwc/7ONrz8D+tumKd+FQEgZajCQMp6g8u8YFdqDZfxgOspYXOWg0T7UGWvdx/hziKokcLsApCRqUXrzVVij49YCnWchSBuqfu9nKtp8aiCMSR8BBpt1i+B2doLawNhCDY2r2tjf7oWZSeQCwb1+fOEg7dGsSPmv1rP0hd6vqMfHFxl1JKnBHQZNkk5Jl/tCBLtQbmYnZVjcmw7xyge5PDpPQ1JaPNpwC26P0v2cYI0FlItu96QGPCHaw8q/AwDxscoYidPTbCcJUPLIhxycdxVLvpTJku/Vsv+JVoJAuycI6Ahu2cW/LTk6hEHHg+PbdohHrvkE82QrU68eybyFmeRcMoYlt9Xxg+W+IbQnQqiP09O3pZHqh1MpKExmwhV60tXg29V4fNB9sCOED9A6j/BI0d5BDgIegvpGVnx1PS9nJzHh6lRmfiWb6XlWFt8zkg3fOIqv/xrgSxlcf4kKCFDyiw9Z/morbn0mT26dxISz3V5vUDln8bJm0UZW9JZpsmZGPyMNCUagHtBp0Az2axgI4fMBRg1JKUC5UmeSNTqZx332ZnbT0Y7dAVPSTUzRx+HYVIN9TjpjZ4ZIVUcor47eLQM+3v+P93n/l3omXJHKlPk5zLtCz/Qf5jFlbc8u+/5oKLotHbOzgeX/7OtEG0gZCKBcH1D3OMjh4Fm6dui44itK0Bb8+BCPP1jF/soQBY9ey5O3nf5Lrs/2DJDbq0QZenMselDOp5RYJWjsCNEe/WL0d+04V4I1TtasbmTR5FHYCpNIVTuxH+7AEYYcs550I+x3gm208ksleNRHYxiCAyhzPHi26bFlquDjCNrRBiWD7uygcUgzCyLo9EBEjaf97ByDM5HJCRcA46XpLE5TocsYxR3jY4AI9rrOQS2xcfaECYQBVBgT+z49quw6IELKyACnJRwGoPFYANCgjw9hP+TBUd6KW6dBr4OWZj9BApSXKhfznJsuZkJ36kGtwjYzm8U9x/Nkj2LedRqIT+Sm+Ra0gO+wF3sYCn54Bb96KpspBdGLqc3KlLHKf3udAYKEOLhP+bbmzMllig2wWlnwZWW2lH2fMuieUicVbkCXyk0/HImtOzMyJ5trJvbcwyCO6lbWLa/BHob0heOYl6f8xb5L6WrQTslmweQTx1h/SSqLlo46dVB4QBmfgV5H0lB+Zql1FMxJwhwfwb2rkQ2/2svv3lSOq36EbvDt6c/RRnZWAlYrt96UhJYQ+4udJ4LBvU6qOgCrjXkLT1rw0pbINUtzjw++P1tsV6dSYANfTQslfyznl883KIFjkv7U9aYCkePBUFLyqXVoDdroL/ZWdq5txd0B2klJZAx1Xb0zbAufm/2VEVAbmH5H9zkGxOsoWDyeBVcDnjaqjwJqIxNmKjd183WpjB3sFzHQysGDEUDPFbeNwqYD7eRs5k1SgtSDe8/iYjkBD/bDEUhL44qcMDXbj1BerWHC1Ra0dGKvjo4/vMTK9Es04PSxf20NK/5fOfsDgDFemcR0si8V8NzWOfxt6zUsuaKXbRZkM2+GBvu6Kkr6uhkPpAwRfNFAJzU7ocdyEWfp2qGOOZ7Zbtx7jJ2VIYJqPTlje5mUccb2DIxjZ7MSO07K4tYrVKDWcc1t6diA4MFmKgIM6Npx3ECuU7pU7ntvDn8ruZYn7+6R2Z88ikULreRka5QMti2R6+ZY0QJBXzT4rXFS7gB0Vor+zYDWamXeTAMQoXxn9BozkDKBVvbtDQEapsxPxxavY/rNNmVs5ceNHBzKjTchSLoJ6Izlk2P9lv7MJON2AQioTPz4t0X8uPsFXzNrPxxoHkbFzd++lO/mATFa0lUABhY+MJmiIFB/lLt+e8bU0KkifsqOdkFGDNNvn8Z7szoJBH2sXFbOateJYvZSPXbaSc/pIFeVwIFBdr22OPzKgNGwj6pDEWhuoy4AZh24jym/5MpXHqJkzmSm5+Xy5HuZuJsjaJOVBRrda7ex8uQKPVpm/PZGigJEu64C7FznUL6o6lgKbi3k0VsLlZumTnX8Rvz+m8qMIfvfynn/1mlck5nJo++nE+yKdoE5j/Lyn6M3sI5GXn7JyZSlVtJvncpL80L4wmr08WHev7eG93vJjgS3H+LlLZk8MNPK15aOYvOdR3FvrOSfu0ayZHISi1+ex62OToJGPeZ4oOYQO5856f2H2rCHR5KTls1PNiTh8ERo31LGQ79qOX1jvYnRU/SfVzHvMR/2Ix20BDRkXGIAQtg/VvYrOIj29CvsY+d2L4sLDBRcAgQa2fnBSSeHs4FXVrUyYUkiU356LX+/y0dLTBw2swrCLax4tWoQG+tf9q2T+clMcBzx0tgSJmmMMkDcfahF+fXdrbkVuxMm2BJZ8OdZTHGE4Vgdv/x+Dfa9Tg52jGJKvJUFj41Bf1DDlK9nnvFJHWd0pm2FfWx44TDzfpuNbd5UXpoZwOFRkWTToCXCzgcPsibQyuZ3W1mwJJGCH1zF76/pJCHPOIQbeIB3Xqjhpkm5pM+czEu7Lz3+3fBtP8TqLUPdwd5EqDvig6sNmGNaOFjqo7oyxOJLdBD2UBedyaS5JJefPGrFfcSD41gI0hOVGco1LZT3DKx0GpJsOswQ7V4+mYoJd2Qoy9D8rbWPNg2kjOLgzhaC81LRXn0pf3gvl5aOCI1v7OWxFd6zdO3wsX+vDwr0pM8Zx/edx2gfk8FNvaz43197BmT7J6zeksl9Vyey4E/zmNehQhsPhL288+JhZSKRrv9rR7cBXafUagxWHeZ4He0JpzZHmzmSRY+NZPFpDQ2xf229EvwGWnjzFSfXLbVS8MNZrP1htIjTzpvd2dKBlCHCrlU12GeOIf3qSby0P/py2MuGlY6BZeF70OX7GK+CQHU8e851FwqScbsg2DcdYtlHHXiCETzHXLz4TDkrBzx+QIUpzcS4XBPjRsdhjL5mzYi+lqYdZEYswr9WlbO6rAMPWnJHmxiXqye9xyJRgU8S2XwMyPRQ1DNrMABBh58WULIHNdF/O5TtH19898hRfvmNHbyyqRVHQI3ZplHWPtp+hDff7XEVr6li+QuNtIQjBN1edj7z0fHZSNWvlrHyn41U1wcIxqjQdoRw7DvKyns/ZGV3sOVs5Jlv72DNNi/uLhVaAti3V/HLb+/h/ZPiXvsLH/LgL2rYfyRAMEaDnhD2bUco7nOoTYj3n6miOgD6mQUsvk4FYR9r7vyAZ1c1YneE0Vj16LsCOMob2fCP6OzLbuU1rHiugWpHCE1aIjkFSeRmaga+ZleXj33rj7LfAUk5FiZMNqJ1t1Lywg6eeTV6nAfTngGo3tJ4oieovJEdpwxej1D+9DYeevoI+2sCkKTHpgvjPtJCyeoa9g9goPtg2LccYWe5H501kQlfspKq9lG+rpTHnnCe2iUcaOHlJw6xsyYARgM5BYnkjIlXZp/VH+GZBw+xsyZM6nUFLF6cjG9tDeVDnDl3xm0BvndKWXpvOe/v8+FT67CZ1YQcXvav/4QNH0fP6Wd28+zaVtxdOlIzYf9zhygZ5IQLgOC2Mh78UTkl5cp3A4+P8n/u5cF7awb9ufene1keHC1U10eo2qsMHcDpxR693oUqG9iwpZVAvJ6cKVYKzBHsu2p49v5Dgxt/ZhvJgmv1uDdVsbm39RUHWibK989SnlndgsOjwpypfA+zR0RTrmfp2lH+q538bl0Lbr2VefcUcE1yCxve6T2MOGN7BiIcYMOPPuDZfzqV5V10EdyVDbzy/4r5XfcEjYFcO7p9xutUsLKBd7a04HCGlPF4gRDu8kbW/eQDHl994oO3v7iLx19owO6MQCCEY98Rfvf9/ZScdL8cSJng9nIe+UkV+4+ECIYj+I44Wffj7azcNrTB39Mva8eImt3bErEPqYbBuSgzd+Kn56JiS7IFV7Or/4KfkwutPacswLvmQ2b/bQhX3fMsd0ENb32znaq/5nPj6qEu/ymEEGdX+g+v4fd3qVnz7xtZsWvoZYTol7adZ1dUcTPJ3Pe9Ubx+7ob+HSddpWLIqt5OZe2N7Sy8zsX010ZQ8jmkiIUQoj/2Z95nbj9d/AMpI0R/rEUuisxq9vwx5XMJ2kACN/FZ+PU8/vNsSjKhLRbO+fRIIYQQ4gISe9TMT59O4UDJ59frJF2lQgghhBDDhExOEEIIIYQYJiRwE0IIIYQYJiRwE0IIIYQYJiRw+6KJs7LqyakcfnIs91vOd2MuRFnkPb2Xr7y6lxmzDf0XF0IIIT5HMqtU9KDhhitTuUwfoWp3A6vP8oKoAtDO4rLfLyOrt7jQtZbN33sU12DWgRw9n/FXZUPzDg69XcxZfMLkZ2IsPMZbv3DCmxcze0XcKY9wu3TxIdZ89VNWP5rHf+46178f1YyYtoDLRjSz+40P8I+fxxW5IQ7+621qBvpcQdVIJswrIj02+v+RMKHOFpyflPJxpeP8HnOVkRETpzBmlJWEWGURVnfpm2yrGNJDF4UQFzjJuH3RhAIcONRKyaF2Pult+Q6VlumXj+Q7RSMoSr3oc2/e+RfEd6gYR2kxzU3n52mxg6XOmkX+l28nf+YEYi+Yb3SQxYubSe9KYOUbcac9d3fP2ymU+P3MX9zMuHPdZpUVc5IW2ppwR+IwWxKg04V7MGte68wkRGf7R7rCRFCj0VsZOXE6YwezYv05oEm/jMJcGwnaMJ1uN26Xg8aWz2lBKSHE504ybl80XR4e/5P8Eu9bPfUv/YD6z2VbXmr/+0b27T01rAkP7akrFxTdxGbuGBMmsMvM2qZeCjSbeH2vhunTmvnu5GTu23EOo7c4C+Y46Kx34VfZMJsg0ujCM5jjnGgiQQV0VrHjrY9ojhnJ+FlFjDbEYbYmwbHzlZrWkDwyGQ3QWbONjXsazlM7hBCfFwnczidzIj+eY6MoW0+6Xo2uK4y9voWVb9fxYl2Ehd+YzNNjfCz75UGe7/Hs0qIFk/jjlAgr/2c/P/OeqZ7oAwetI3nrR6NOZDci7Ty/7CDLupe2UyXy7E/yuPn4k6rV3HD7FA73VrY/qnwyvnE3OZdOIDHFgLoriN+xj/o3f0Pp5gq6H4GoGb+ESbfNZ8ToNDR48bfU4ypezq5XiglpZzDp2efIsQZxvDCX4veUjaunLWPe0llo3OspvvthHPmPMO9n84l1baRss4HMOROJx4njHw+zY10pJx63aMAw+0dMmHslVpsFAvW0lm2ifOWvcTgB1VQKl/+ePOuJ3XC8cBXF7/V4aLNtDuO/9R1Gj80iVuXFW/Y2ZX/+NfX1Q1x9OBQgHOzlvZYlFP3P3VgoZe+dd1Dt1mJbupUZ07R4193Jhj/tQL/gZebcln/iPaOXcP3flyjVFt/P689sHFA9AKTdzezfLCGRHZQtP0TygvlYRxigrZQDv7iDyjogtpCsb9xN3uUTMegh1FTB0XeWU/rGjh5dhRGKZrZiRUXJTiO9hzQqNu1IIDDNTVFRO8YdRs76z4mEcVxxw0TM3ed83izm5UX/O+1y5nylgKqNb1IxgOcCx5sS0QB4PbRFgKCb9k7AANClFDJN5Mprx2GKNLD3jc3Ud2nIuPJWCkeoaSt9k60VHogr4IobL8WMm8NlLkw5WZhiw3hrd7FzTy3+ge6bysrY668j+6Tu9rjcIublAt5ytm7Yo7RTZ2P0JYWMTksiQQMBbyP2st1U1J90tLuP06cOqva40eeOJtUUByEnFe+/Q00boLWSMb6Q7FFWErQQ8jmxH9jDoTo3YSA+fy4zC82E6krYsL1WqdcyhVmz8ojrclC2fiOHO/uvZ8DtEeIL7ILpWPki0qWaWTjBSLqqC/vRdg54IT3Lyo//PYMbYj7lE2cAVDouPu0h7mpykzUQ6aTK2V890bd0Bag62s6BhkAfN8gu7A3tHDjqxxm9D3lcPg4cbefA0U7sXYPYsZh80m6YgSUxiL+uFFeDF03GVHK+9wQFedH+JsN8Ji29m4w8K+GGUhyV9YR02aRNylceTBzcQe1H9YAW69TZyk0TA9bLp6IB/Ps24jw53jHPomCWlU6nF7U+jbTbljL6pCBMP28ZM++ajy3DgpogEV0almnzScvsXu3aj+9IBa7qWvx93T0Nc7jskSfIvzSLWG2QcIwBw6ULmfazJ0gzD+L4nEyjQ63VHv9nMN/IsKsWV3UFrc5ocBl00Vpdgau6ApfDe+Y390U1kYI7b8ca30xrbS0hrYXYWC2ossh64Hkumz0Vg8aL95gXUgrJWvwcMxYV9qgjwPRxQYjEsedA392IzgN6qiJgHNfOZefiShQL/kYHbX6ATtoaHbh9YSBIe7ODpmN2GgcUBKgxJCq/aDo9bkKoiR0xnnSLUm9zo/KNUieaMagAX5sSNKksJCSogSC+tmjXZaKZeBWgMpKRZ0MFqNRaTNkFjBrUXJhYCLhpa+tESRwq3aRtbjfuY07aI0CMjfyrrmF8tpUEDYQianSmkeR+6WryzSc+F7XJomQTL7KSfVkeSTF+2traCV8UItAZrefqWUp3bEyQzs4waoON7KlXUTBC+WYGOpR2aHSa6HdVTWp2OnFAoL4S+wDrGVB7hPiCk4zbeRRwuXl8RQPrP4kGUzEJ/PxHY1lsSaQoEx4/1kGAJNItamg28fO5ZlIaGnlgC6QnAl4/VYH+6/lXNeB2cd9ylzKr9GdZTO/ZmEg7y1YcZJlKz89/NI7F1jAlbx/krrIhPFijq4a6P9zJ3g924A8CGLD98C1mzMjCNjmbssoKyJyAxQA4XqP4gadojd7oEsdYo1mHIK3vb6J17u0kjp3JCMNq6gJTSZtgAFzUb916UjYNoJbyxxdR0XAlly1fRpY5C0uulmpnELSzyL9ZCfi8mx9my4vr8XcZ0E+cS2JL9/6XUv3U16gmi7yn11CYc/pu6a9fTJYVcKyn+KcP4+iaxaTHlpGTNouCOYXUryod5IEykPUfH5B10iveNXewYYD1+Lc8zOYtoC56jlvungENr/HRQ8vxfqauVi0d2+5n0/KNShbNkIWeIOqJixlXaADneoofeBiHF9SXPsJ1D8/Hcv0ibGtKcXQH0qYOxicDwVg+OXaGTbliqeqEcaYOxiXD5t66VD+L5gPs3mon99qbMIXslG3dR/y0WzFrGjn0/gccG/BxMmIwKAF+XNY1zM1So1IDhGmv2klVYxhQk2AyogIi7W46I4DOSEI8EGmj1aOcrfGmRHQAgUb2v7uZevVErrxhHCaVBm2MGnqc1X2K2Dm4yQ7JU5g1M4+4YAMHN566Twn5U8g1q6HTzt7N26jvSCJ/1nXkmo2kZVmpcDuUfTKblGDrUx91JZspO6bM2FDHJaAKqjEVKvWEmg+wvXgfbUE18fmzuKbQSlrmKMqP1RLuaCcAxGnj0QAhXRaj0uIg4sFeaSeMGtPYAdTTb3sG+pkJ8X+XBG7nk7ONsuQUfnBLPOnxanQqVXTWWgwpposINPlpioA1OQ5rMImFhUno0kKs3O4j3QSB2k4+ifRfD5yTp5r1LVJKU+18shY9gsGajFYDmlE6AGLNaUAFNNbjD4LetpAZTyZT99FOHLveo6m84kQ9h1+jrvZ2EnMmknG5hfrWWYwwAM73qCvrcQVvq6ClIQjBenxtgNmAtnsG4OgpJJuB4A4qV62PBpNefHtWM/Ah3BZSxmYD0Fq8EocbYCOVWyrIuS2fxLwJxFI68K6uC1WkgiNrN57o+vTW4gMM+ROIBYjNJ2/pn8kDUBuU7Kg+i0QrOLoHBiZ3YQTwqPGcKVPbpabNA+i7SDEDZztwA4ixYDJApNGNBwsjEtXgdSkZsYFSJWLqHkKgVitJ0UiQ5tL32F7Z3c+qwmSKA8Db1qqEXyYzBjXgb8fTCaDGEK0o0FBFfSdgir493E57xwCDtpNoEo1KIOjznLpPKisZ6UYgTHP5Hurbw0ALja5Ocs1xxOjiunfoeJtCDWWUHzsxzTbc2U5YNZL0TKPygi6FgunXKe/SmZRsoSaaKevswB+BOK0GnQoimdmkaiHSeIjDbkCVOrB6+mvPoI+QEP/3SOB23lxE0Zcv4YUrYpULb4+/6VQQaOqkKgLTk3Vchh6dL4zHFM+4URHSVdDU1IlnAPV83mJnLGP2vbN6neGo7r4+O1ey66/5TF84C0POLPJyZpF324/wvvdfbHlhfTQAqqVuaynjcgqxTp2LrW0qsYDvo02nL5cRCRDuAggQOX511wFBSDAqv+B9LnxDnmxnRKNXsi5+94lRW353s/IfCUbUKmBQ2S4vtU/MZveeCymN4CFwWl+6Fq0xetM1ZJEyvsefVQZiYrWAsh86iJ53F502m/Q03Z/V2b4SqWzkThtHki4BcwyQmMdlV6qVAEydSeGVFpoObqPGNYBQwGDGEAN0NbD7jQ/wZl/DFRNtJOfkYq7aiTuaLTYalYxZR5tyADVGE3EA7W6l6xI9BqMWCOONnjdqU7R71evBO+g1RdQkGBNQASGv69RjrTFj1AMRH63OE8GPVqN0kUZC0dKqJEwJSrvdjqOnB0bxZkzRC4vGYCW5R3duwN+pvCcauKGJI1ZlxpJpRUUn9srouL2B1tNfe4QQEridNzFmFk9Rgi37R1XctcHNAZ+W+38wgXtGRct0+bG7QWdOoEirxf5xI1UTLIwv6CJd9Sm7GzsJDKSez1UaabOVoC1cvZptv1lOkyOA5VtrKJqbdlK5IN6372fDexYM469kxGW3kHdtIYbZd5O3aSOllUoQ4N/2Ns7bCrGNv4PCgAWoxb513+Ca1O4hBMTqLeijsdzgeQj5goCWWLMVUCZLxJqTj28jeJZngx6/aUUDYLWmr5JnuZ7T9iNIuMMDWAjvepQ3nlp7xhtqoF2tzNiMDWOM4QzHO4JOD0TUeAa6ntpAmdPJTLPRnVdCbyalO2sWayY5tYumPQMLC9QmkzIuzduGNxKmvaYG51gbI/U2Uk3gdgNaMwlxQMRDm0fpOk2yKOm0gKdNCV5UFiWYohNPq3JQEhKVwCvidQ9ulisAWkzGBADaW9tO/UxiNCghWoDjc19UVixJ0cCxNZopVJkwJgARH57WXiJHjQ6NCgjUsvPNEhr7bGMnnQEgToMuNZdMM+CuoboxNLh6+muPEEImJ5w3GjW6GIAQew62cMD3KegTGHfy0wwiHVQ1fwpJScy0RThQ3cRuZwzTxxrQEcTeFB5YPYMRCRNQfvpiTBjK6aFFHb1bdhx4myaHF0jDkms9tZi+ENulWaiDLrx71lL54n9RWQVgJfbktrvfo640CFoLegNQV8yR2kFGXod30uwGtFPJWzyHWK3STv3k20nL0fbz5m4umg7WAJA4YyE2M2CYQd7VyqzO1sr9p86sVKcz99u3c+/3b+e2KUOYueD3EukCVBb0Fi1oJ2IZ1UdbQ9HgTJ+MtudPscHUcwbegxX4AXXBLVyccyJdosmYQ96i+ehPPlVcsVS1AwlBco1nqDQhSLoJ6OxnLNxQuHay8e9/Z29DGIJ2dr/6Ctuq2iHi5OBbf2Pdq+9QM8Ds6/HgqnvsWpeDZncYVEYsqdEdTEg4fgwiXUBcDpkjlON8PEjSm9DHoHSLesKAhgQlkqPD0zb47JLKTIIBIEh7W4+dCQWUDJjKRLItAdBgyi8k3QAEG7Hbo6P8TWbi1UCkjbbeJmr4O6OZNCvW1ONhMGpDOqPzs4jvfiHSHp3Uk0Ba/mjiCNNUXRXNNA6inv7aI4SQjNt50+lhT8OnTB+loWhWJvdYAqRfMoKiuJMLfUqVMwAFsVhj2imzBzjQEMT6JR1EPFQ1DbSei7j5ywV8NxNQaUhXAehZuHgsRV2Ao5G7/uHCDkCAssYw2NRMv6mQ96YECEQ6WfnXWlYP6EJaj+tQPeSkYbhyKYWt7xHMvIUxeT2CBcOVFDy4hGlttbTWOwnH5WDJAYIVuE4JzFzUF28lNHkWGqB1x9uDH3wf3EjFm6WMWlyIoegJ5l3xEKGIDk1sgNqnVlMPxBY9wbQbsgAd+mhi0HLrHyi6Fgjvp/znT+HYsJLaWU+QZZvPjN/PJdylRa0F3BspX99zQkEMsQlx6LXgjxvCAq2d+2luANvoNHKW/plEnxVLSu9Fw3UVeCMzSLTOZ8azE/B4AoT2/obiV3YMqp4zCe9ZSXnZDCaNL2T80+8xxukkHJ9GrB6o/wtNfz+pcDCO3ZVqbp7cyfj8CBT3/gNAl+9jvAoC1fGck95ilRWzWQ0eJ270jLIkgK8B96BmJp4Iro6PXaOTFqcHUs2YUm1oKjyEQiGCEYhTmbn4qrlkxBijC/a20x7NrqkTjdHMnYe2aDBtMijdgt7Wlt42fmY6Ewk6INKGt7VH2Besp6GhkxEZcaRMmcf1haDRKTNcm8p2Ux/tKdWYjErQ5PXQ6zzkTjsNjvEkj0xg9JU3k9bZSUSdgE4LkYaPotcM5Zh0doTBkoDZAnRWUXO4fdD19NseIYRk3M6fAM+tqmZ1dQBGpnL/talc7Grk9R7rZ5Y1+pWxK23t7Gn7lN1HfNH/7+RA50DrUWFKSWDcqATGjdQpA8e5CKst+ppNc9L4uE/514ZaVlf78UQ05I5KYNyoONIHHOIHca16mN1bKvDFFZK36DtkWvZT/VGPJW29+6nfugNvVzLGvKmkZBkI1e2g8rn/otpxatHw/p24gkCkgrr3KxgK3xv3sOXFtTTVewnHGNDgpXXP29Qfid5ULVlYcvKx5GQRG53UoLHmK6/lZhGnBrzr2f3ow1TuqcXfpUWNF2/paj78r4epH8BaYIMSqeCTP63A4QyiNqQR1/Qan/QV3dStZO8rxbS6gqis0f2wGQZfTz/tqX7qHna8vYNWF6gsaWhw4asupvrdYnynBNNq1m8zEtmaM8YAAA9+SURBVCDEZZd19DL2UjH9snaMqNm9LfGkAOAs0qdg1kF7czP+mBSSjBBqbR5cl+RJwVX32DWA9mYXnYDKbCM5BmirouqIh1AY1KoumqtrlckC4XY8XiWo6p4tGfFGx7zFdM869dDmHsJorkSjMj4u2IbntMGEnRzbtZXSWiedQdBoIOBuoGb7BnZXde+H+ng2MeRtU7KJp2mnbsf7lNU4aQ+ARheHKtJO27EqDlbWn5Il9J+0VkdbbSXNkcHWM5D2CCEuysydeE6mHFqSLbiaB7pi67l3obVHDFzs3N8z51tToXw563+6YvjP3PwiiG3n6f+pYqHWwn3fTuf1nh+atp1nV1RxM8nc971RvC5PaBJCiAGRjJu4QGlJ/PJzFD29juu/MRU1Xuo3vCZB23DhT+DFNUYCxlYWzjx9kLm1yEWRWc2etSkStAkhxCDIGDdxwVKPLMCSYwG/i6Z3nmRvsWRMh5Oqt9L5prsTq1tZIuTk3rzYo2Z++nQKB0oGP1FCCCG+yKSrVAghhBBimJCuUiGEEEKIYeKcZdyEEEIIIcTZJRk3IYQQQohhQgI3IYQQQohhQgI3IYQQQohhQgI3IYQQQohhQgI3IYQQQohhQgI3IYQQQohhQgI3IYQQQohhQgI3IYQQQohhQgI3IYQQQohhQgI3IYQQQohhQgI3IYQQQohhQgI3IYQQQohhQgI3IYQQQohhQgI3IYQQQohhQgI3IYQQQohhQgI3IYQQQohhQgI3IYQQQohhQgI3IYQQQohhQgI3IYQQQohhQgI3IYQQQohhQgI3IYQQQohhQgK3vugXMuPve/nK318mz3a+GzNcxXH/07M4/M9ZrLpWTjUhhBDis5K76ReR0cMLK/dx6NfNjBs2Z0AKX566gnevf4A5sT3+pL2CR65bxVtfupE+Y2xjG398ZR+HnnKRe45bKoQQQpwrw+a2/bkL19O8ZweOffvxBc53Y86u6bce4wazhpI3zRyInMsthfmk0kXJ/iYONH22mrQpX+XrKfG0NLzDRn+PPwZ38PrRJrTJ8/hmanzvFXhMvLgpFt24Ru6fEf5sjRFCCCHOk5jz3YALlr+YiqeKz3crzj69h8WzO8GdzOoP1ed4Y0Fe/999vP6Z6zFxQ/ZUkj5t4lX7PoKn/T3EPnsJdVnzmZFThK3xLRy91FKy2UzVjccomu8mtziZqs/cLiGEEOLzdU4DN03hEgrnzyUlJw29XkvYV09r6XoOvLScJne0kDaLtH9/kPHTJmIwaQn7XHiP7KDypYepq4PYub9nzremonas5r17n6I1Aqjyyf/ly4wfDa5VC9i8JkjOL9YxqQBc65bjKVhERpaBUNVr7PrVUzhcJzXKMoO82+8mZ1I2ek0Av6Oc+g3LKd1QShgg7W5m/2YJid25yEgFpfd+jcoekUDspXdTuPAWRmRZUPnqcX30F0r/tJrWntmgM1Jx89IreXZ6DPZN5axUj+S7l5uwqrqwF5dx43IX0+++khdmanG+u4sZL7QRSBvNW8/kMA4XP7t9Hyv9cOnXp7FmQTyBPdU850/hu5P16NrcvPh8GcvKuk7ZonWamyIjeD4wUnJyW1VJPP2HScx3NLA2LoX5Jh+r/9FE+i05TI/3868/7Oa+4iCo4ln4zRwWT0okN1WLrqsLp6ONTW9W8rNNHQQAVCae/t1kFlpPVF/ywmZue/dEek83YQzFPxuF1eXg+c0abp5jJgU/Jf8o4643vZyS5IwrYpZFA/59fNTWx6Fs38sO33y+Yr6Cmfq3WOXrpUy1kZKGYyy+2M38zGSWHRnMZyWEEEKcf+ewq1SLfuJcsgrT0PrrcZVX0BFJwzJtCdPunI8mWsrwlV8xbe5UDFonrrIdtLpBP3YG1hQtAP6tm3D4AdsMMnKV1xgxi1EZQLCUuq21p2zVct1iksNO/EEtsXkLmfzVGSf+qJ/FpEefo3BGvhJIhnTEZkwlZ+ZUjg+bCjbjrqrAdbieUB97ph7/IFffv4SMHAuariAY0kiZ/SBXP3A7+iEerZQZY/jxlXr8jjYOuCAlUdP/m3rQTczijlEh7F7QWS3c8+1MLj3lE44wfVI7OlSUVejx9FZHgY2ZugiYTSz+bg7juwKgj+fmG23K2LAYIzfckMI4MzTVtbGnIYQxw8LC703g/rzuWkLYj7RxoMqLs79A1mzjO7O0OJ1d6PTxFN2Wy2LrqUUSrOPIvQja3Qc5+Gkf9Xx6mAPuDrhoNJcnm3ovE4mj5BMNqDqZPrGvT1cIIYS4cJ3DwC2Iv2wlxT+azet3LmDzT7/Ghp+soDUCmvGzUOIyC8l5WUAQx1/uYPPP72Tzj2az7t77qa6Ndoh536ZuvxdIY8T0iQDoL59BogrCle9R7zx1q6Hdv2bTw19j899LAYjNnXA8mNJfv4TRNsBXSunDV/HaHZfz2nfuYMe7FSe635yr2f3w19j8yF9w9Tr+K42MBbdg0IJ/11Os//fLeePhv+AKgqbwDvIKtUM6WrpQK8v+YytXLt3Fjfds5caXWhj00DpXAw/8514W/LIOO8AoA+NPjiRVQcZnhgEt9iN9dJO6Hfz0/gOsdQO+Jh67/2NWHwMscaSrgC4fa/+wiyu/qbR1wdLtPFDcBap4iqZEx5dFOnj+yV3c+J8fs/pof432svKxHSx46ACvuwGtkcsuPrVErmkUWsDhPdpLN2m3EFVeZSBdRmIWfX0KVXYdECE3J4Cuv6YJIYQQF5hz2lXqL9tPpGgxhTdlERuvQ61OJlYFaI3EmgCnF5/TBViwfePPzBiziWN7iqnfvYPW43doL44PivFfPgfD5JkkrnKSMjkfCOL8cBM9EzqeT/YTAkJOJyFAozGgUQERA5b8bNSAr3g5lZVeAMLuUureG8ROaQux5mgBF/XrXsMXASr/THXZQiyXWrCMz4bSikEfK8/eOl483B0pRqg61neI0pfAkTZ2ByHQ2Ik9AunEYIwFvN0lukgxRiCixtlXl2NXF55IiIAfiHThiYTxBABjDLoYIOilpDaFhYvGcLFVi1ELpjQl/k9JjEVHx+ACzjYvuxuAYCf2NsAcgy5WBXQfCw1JWiUgbA+0nrGqlqDy9wRdIlroNchr8igBq9EcQgeDD46FEEKI8+jcBW7aQvJ/8SLjc3rLfWhRqwGCNL3yJJW2h8gpSMNWdDu2otuZ5N5B6VM/oLJaufWG975NvWsOObYZZFzWTOJowL+PupL602oOd0U7ALvv+8cTS0Y0CdHu10Znz7cNnMqINg6IOOl0d4cGXvzeAKBFozcOqdo2T1f/hfoTjiiBSF8zRWM4cTz6mlh5hmbogPQZ41hznw1rb7la7UUDa+fJIhEC3dvsY9vHM2N9dZMer+t4Q/osEgifaLhk3IQQQgw3566rNP8WcqOZqboX72DdbZN49ZtP4egZVLg2UvrT2bxxz50Uv/QX6uqCYJ7KuIW3HB8HR3AHdR/VA2lkfGMRKVoIla3nmJdB8BBqVwKt2GRrP2XPIOIh2AmorMSZuwMEHbEGJQwIeXsbOTZ0JzJC0YhLox56wNGlps0HqCIYhzQYT8sN1ypBW6DqMHfds4Uxt27ktrc7h9qiAXF1KePREjQJZyyXoFN2KtjV2meXaopeiVgD7epex/gJIYQQF7JzF7jFGZRQI1iOY0sp/iCox0w4MVszSl84h0SzlrBjB463f83uVRsJAeqk5JPyJkFcW4rxArEWC+ClqXhjn5MHeufFVVGjbPPKb5OXY1BeNhSScf0sBjwVIFiKszoIWEibMxe9CtR5i8kZqwSproM1pxS3TJ7H975/O/cuuYoxQ1h9I+BTAg2jRYsRSB9jUMaaDUVES1W9CgiSPnIoC7ipMUVncTQdaGLzsS4CxHFp7rnMXYWoi45dS0oYecaSGfHKpIS6M4yFyx0ZBFTY62Olm1QIIcSwc+66Sqt24vLPwhY7lYK77kZTY2DEjXM4ddF7LYaZDzFj6kP4GmrxekCfVYgG8NdWnDp+rXYtR+oWMj4D8O6gbteg0m0A+N5dQfW1y8ixTqXw6Q8Y5/MqAWbtctZvgBAGbN96noIxWlAbMKoAssl54GXSQsDR1Xz43Frq1rxGXv5CDJc/wpy/PkRYq0UNhEr/TGVpj5BBpyNRHwexOoayalpZZRse4jBeOoaXHxuFLsP0Gbr41JQcjIfJ7YzP70S3WT/I4KWTkspO7smNI/2qXH7c5sSTOZLv5J0aSabPLOCF6/WAipRRymvjb53MW7MjEGnjuUc/YfMgtupoOYDj09HYjHlksI+6XkulMDYxBWjjoKuhj5pCjMsJAlp2lw5tEokQQghxPp27jJtrNbue+QuO+gDx05dQeNMEgpvX9pipGcS7923qDzejtuRjKywkXlWPa8tyiv+08dRhWJEanOXKmDb/nvXKEiGD5d3I3p/dT9mHFfh8QdRxOiJNpdRtLY0GiVriRhViycnHMjotmoXTos/IV14blYYaCJc9xZZlK6g/7CIcowVfPU2bn2LLr/5Cb8uHfRae7TU8vsWLJxhDegqUvHGUqs/wtIOq4kQOBMFa2D6kx12V/G0fj29pwxmXxOJFOdxsaWPlR6d2lRqTDIzLNTEu14A1Gqkbrd2v6UkZbATbtoNiH2Aax9Sej7vqFjuRSUbA9xFb3X2USfYwMysCTSZeLxtkG4QQQogLwEWZuRP7G/J9YYidwaTfPEeO1UXtE3PZvWfwsy4FQJiFP63g6alqVj6Yz88OnO/2DIwt61H+d9zF1B28n+/VnJ5RU/4+mrqDD/X6d4DcBVW89c0Oqv6az42rJeMmhBBi+Lnwn1VqmMOkX7zM7Gd/RY4VqHubyn0StA2dmrV/tVIV9DN/roehzYH9/Dnq/s6/fJCbeR0Te2bsLrqYmzMvRtu5jT8e6aObVNXJ4ms70DUn8dw6CdqEEEIMTxf+s0pjkjGMySdRFSRUt5HS3z6P95w+GP3/vkBtMnf9IpZxcRpMMDxmV4YP8Medv+SAAdpVnLqcicrH3kPL2du+lx19LXMSp6bk5dGU2PX862z3ZwshhBCfk+HTVSqEEEII8QV34XeVCiGEEEII4Bx2lYZCskqWEEIIIcTZJBk3IYQQQohhQgI3IYQQQohhQgI3IYQQQohhQgI3IYQQQohhQgI3IYQQQohhQgI3IYQQQohhQgI3IYQQQohhQgI3IYQQQohhQgI3IYQQQohhQgI3IYQQQohhQgI3IYQQQohhQgI3IYQQQohhQgI3IYQQQohhQgI3IYQQQohhQgI3IYQQQohhQgI3IYQQQohh4v8Dvs18o5Sbl7MAAAAASUVORK5CYII=;" vertex="1" parent="1">
          <mxGeometry x="510" y="128" width="222.15" height="50" as="geometry" />
        </mxCell>
        <mxCell id="ZmMm5j11PDI9N-WYyKy6-9" value="&lt;div&gt;Init websocket server&lt;/div&gt;&lt;div&gt;&lt;br&gt;&lt;/div&gt;" style="text;html=1;align=center;verticalAlign=middle;resizable=0;points=[];autosize=1;strokeColor=none;fillColor=none;" vertex="1" parent="1">
          <mxGeometry x="501" y="100" width="140" height="40" as="geometry" />
        </mxCell>
        <mxCell id="ZmMm5j11PDI9N-WYyKy6-10" value="" style="shape=image;verticalLabelPosition=bottom;labelBackgroundColor=default;verticalAlign=top;aspect=fixed;imageAspect=0;image=data:image/png,iVBORw0KGgoAAAANSUhEUgAAAqwAAACfCAYAAAA8s4saAAAABHNCSVQICAgIfAhkiAAAABl0RVh0U29mdHdhcmUAZ25vbWUtc2NyZWVuc2hvdO8Dvz4AAAAtdEVYdENyZWF0aW9uIFRpbWUAU3VuIDE4IE1heSAyMDI1IDA0OjE3OjE0IFBNICswNyUDN2sAACAASURBVHic7N15XFT1/vjxl8PMGWAWlhEEhpFFUBQVw+UquWRo5nJzq+jWF/19r1qZdm2xbpnfunXbM9s062p9U8viVmrlkt80Tc24LigqioEsArI5LLMAMwPD748ZFBEVzC37PB8PH8LwOZ/zmTNnZt7n/VlOhxHj72lsKC/H7t8JHw8b5cePU1aHIAiCIAiCIFwXZJK9gmKjDee1bokgCIIgCIIgtEJWWVJOrbPxWrdDEARBEARBEFolKzGLYFUQBEEQBEG4fsm79+zR7FclAVExeBYe40SVCGQFQRAEQRCEa0/WpocEQRAEQRAE4RrpEBbVp5EOKkK6heEnVgkQBEEQBEEQrjMinSoIgiAIgiBc10TAKgiCIAiCIFzXXEMCBEEQBEEQBOE6JTKsgiAIgiAIwnVNBKyCIAiCIAjCdU0ErIIgCIIgCMJ1TQSsgiAIgiAIwnVNfq0bIFwdscG9r3UTrqmM4oPXugmCIAiCIFwiEbD+gZjtpmvdhGtCI2mvdRMEQRAEQfgNxJAAQRAEQRAE4bomi+3Zg+b/Ovt2uNZtunHJfPngHwPIeyWOFzpfwvaSitn3xbLnn/3Je6399cRO7Mz2f3Vh80wV0iXs/reRMfGRLmz/Vxc+Gq0AmZJHX3T93vRv5UTFVWqLgxn/zCDvi1ymdLz8tfsnLmfb0v1sezwZ/8tfffspRvPCov1s+3AdM8MvwytvmMC0Ox9jWuJg1K0WcDD71UPkfZZPkt9v350gCIIgiAzr70jATXoe7q0iQO6k4KSFjEIrBfZr3apL5eTkiTqy8mwU11zdPWsHlHJ/HwflOwNJOXV1930jkEITSR6VTPLNcehaLaFgxTpfTNpKZt9lRXmV2ycIgiDceOSnco5SXnfmAadT3PjqehXoo0AJ2I7lMfYTI7/rEalOByn/KiKFDoydHcnfr9qcMAdJ4ysJwIsVP6iwXa3d/sGYdvuz8ZSRpFtPMeELFSm/65NVEARBuNbkjc5GnM5r24iALkHMH64jIdSbAGUHbLU2so+Xs+Dbk2w1uwvJlCSNCWNGHx+iVK4yBSUmVqzJZUU5GAbGsHmiFqWxhHsXnGCXE8CTuXN6MzsEMtanM3a7kxn338QzXSBtRz4FESHcHiLHVFjKiytO8I25WaM0Wub+OZTxUSoMSiflp8z8uKuIl/5jbXugKFOSNKELc29Soa21krLO2GoxQ0wIz4wMYHiQEqXTQfZxI0u/KyDF6Lp4iE2MZf1tqtPlld27cPC1LuC0sWJJOs+eaOcB91AwdmooUwdIqE21fPFJKcuOuU8CnTezJvoysJuSYI0MyeGkuMDC6q+MpOS4ysRO7MyS0Qrsh42sqFNzT5yE1LIeOhA7PICnxqgJ9qzn8GYjaR7tbKebFKRi1t1+DItW4i9zUlFkZd06IysONtCUYPYfFsza+7yhoIq30jyYdIuaMA1Yiqp5+Q0HGU2VBVczoWcDlGn5PuvMPoJHLufzu2NI/WQET/1sPnv/A95j3YzB5K+ZxIwNuUiBo5l29wxGxkTgLzNTXLSbzd++xUeHilocZy3xYz5k2qg+6BxFpG56ldd/2I2l6e9+iUy7ZzpjYyLx9wRLdRH5xzfw/tJlZDQdRkUMY+9+lP/q14dgb6go2s36Na+esy91ZDIzJyYxLEKPhJHiE7vZ8O2bpGS2ds5FMHbmUp6I12EvWsuzC54n1QIoezP2zlnc3a8PYd5gOZVJ6rbFvO1uc/Coz/n8zpgz1Rims3zpdAAsv8xl0sdbTr8e2FVsPSSRNNzE+MENpGy4xBdfEARBEACZX+eudIvpSlSEngD1tVk0wBAdyPhob5R1NjLyLZShJLZ3KO9M1hHgLhM/IorXhvgSJbeRdtxEhhkCI/zp6x6DWHConF12wM+P20PdG+n8GR4E1FvYeOjsXFr8oFDinTbK6jsQ0DmI+SO1Z7ouvbS8NjOG2XFqDKoO2BwyAoJ8SeqnIbAdzyt+RBQv/ElNgNQBpUbNlLtCGd6if1QbHcaqqaHcHiphq66jwCYnqnsQrz0QyXh3jGqrriGj0EJ2tTv7XWsjo/DShwRI3fyYNUBC7dEBSefNlHv8iHUPDpGCVYwd4EWwRwPFeXVkWSA4SsusB3QMbdF2qYc/k4KdFFs4px51j448+xcNYT4dkBQK4scGco+h/W3FR8WzjwYxsacSdZ2DfBOowzVMeUjPrB6tjLcO8mHWeDW6WjtZRfWglaFqFisF3GQmSga2X1Xsa3ahZiwpogKJ4MCIc6oMDtQjYSa/pAh8RjN/7sskxUWgrisivxJ04Ykkz/6QOTGaszfsnMSTEwcQ7Ckh+UQw9O6XmdmrqUwESX99meT4GNS1OaRlZlLs6Eh0XH/CTw/ljWDsA//iiVsGEKwGu0PC3zD4nH1J4Y/x1mOPMTZGj1phx46OsOjRTOjZpZUDqiH+zjeZE68D4xZef8cdrBLBxIcW8cQtAwhTmMkvM0PH3oy4+z3eGudKf9tMuWTkZZJV5g7obUby8zLJysvk1zIzLU/FXRle2Gigbx8Lra/ToGH0/Hf5etW7fP3scHxbLSMIgiAIIJdLcvcPPgR6eyHPz6XY0nBVG1F+vIg5+yr4ptwdkAWEsP6xUGK7+JEgN/JNvQd9O6uARnZtzODe/7jap/RTE9sUdFgr+D4znOG9lQzvrUJ5wooh1pdYGdhyjXxTefY+TUdymfRZBT5DerB5nJoAvZooTGQAUf1DmaADrCYWfZzFgsIGlCoVE7p7UN3WJyVTMaGPCiVQkPYr935pJmpMDB8MUcHpQElBUmIgBlkjaesP8ZftddhkSmZP783cLjru71vIN9ttZO/NZexeiL+tN6sTPbEdL2DSyopL78521LL4nyX8YAjg09la/IMlunpDhgXsp6wsfreKnw47XJlAhSePvqBnok7FoC7lbD/SrJ5KM6++XE6aXsfKeb4En66nA/EJaoIBiqp48k0j+dEBvD1Te55JOucXe6uOoX5gOVjGzPfN5Ds7EDtRz5LRSsaOULP8iJmK5hsonKQtL2L+zw7sgDpQQZDD6/Sfe0bWokRGdpHnWcfPfjKHYidEB+qRZDD2vinc5JHOyhUpBAd2BGcR+YV2om+d4WpP+qvMeD+FYqdE9MQvWDomgrEjxvBRZkqztpjYvuQvvJihZ9rc90gO1zEsYTDvHNqIXRFDbIQEzkxWLvwLK8sAJPwj+6B0uLePTuK/emnAkUvKW1NZktWREQ8sZX4/PWPHTuDfmSspRsfIcUlEK8Gel8JTixaSVg1qfSLDOpafczyDb36Z+bdEIFXv5p2357HZ/b6QekwhuYcGjBt59sV5bLeAusdzLJ0zgejEexi46SCpv8xj1i8gDXqP//vrYChbw7MvLSb/PK+dLc+TMqoxGOqIkvmQdo17cgRBEITfL/nRI0dBrqKjXk+ASsI30JdTFiOOi2972RTkWojqG8wLt3gR6NkBpYeSQBkglzCogOoGCiocgIKEcbGs6lzB1qOVfJ9pIa2+qZZGNqZV8EzvAAw9dPTdUE98LzXQyL70Cgpa7DP7hJlywFRpw4YapVKGUgY4O5AQ6Q40DxTyXqErOLZZraTsbceTUnoT5Qc469j6cxUFTij46RQZN6uIbyoj15Cg7wA0EhAXzufu3lale2p5VKgXSmyXfZylPc/KD5VgcdjIc4I/MjRKwAKU1PJrsIap9/kSrPVA8uhAsBeADJ3W1dbT9RTVcdgB9lMOip0QfLoeOV0DXanWrNQqVwYvvYrtRVqS9O1pqQc9o93pxiAtTz3qziq6ewKkYIlwGVQ0D4SMZr74xXE622cpc1AqNQWsTgL9XCdMWXWLLurKXIprILZjJMF+ekYMTiQWPVkbdmLvpIG6IvIr9cRHuzOwwWN44tExACg1rvyhFBpDVxnkNdVZ9iMpB4rAWUTKzwdIDh+AOrg7YWwky1FEcSUQFEPyY8sJ27uD1MNb2J65+3QAHhwdR7AMyFxDSpYZMLP5h81Mi08iOCKOWMVKihv6cFMXCTCTunExadWuZ24p2sj6FiMUkOkZeovrBcj44VXWlJzJiYZ1i3OtaKCMIemB5UwA8NCgkQHeEUTrILXkQq/VuWwmBSYn4OcgUA7npGCpx1JlpKpCwl5d277KBUEQhD8UudPZCHYLZSWVaCM7olR64SUDx9XKhshUzJ3Zg9mhrS+n5ekepfD9D7msCIwgKcKThH4hJPQL4RlzFQs+zmLRSVcQZcoysrE6gCQ/X27vaadnCGCv5vvDrYTfTU+wAWzQbCazHK2nqy3llb8hWJRkeAJgp6ApLVvroKyeM7dr8FLgIwfogCFUS8sec6V0hcb9OZyu2OGc17gDA+8z8OIwRSvLXnVAarnqVMN56pHJUHoCNGKsdv/R2cApC+0jk9HRHWuqAz2JbTkeQy5D7dFi/zUNmNty7rbsRHDmkFUGIwL1hEVAWIMZi1NPdHgkZh1Qlku+Q0O0d1N7ehN/TnuUZx83swmjuy12kxkLoFZISDLAeZCVK5YRNm0KA3W9GTGqNyNGzcKSs5Jn31lIWo2Ev7crQLdYTp0Z91p9igogWKFxXRzYNKiVgNNEcUUbzlYnIIPY4VMYuO15Um0AEhpvd6e9OoLYmJYbaVB7SrQScV7Y6WPceJ6VAmrZseh5drSvVkEQBOEP6Myg1Wu0OIAyoiNJoR0AG9+vzualfVYKFAGsejaChOYFzVU8+8F+FvipGN7Nj9GDOnF7kC8Pj/In5X+NlAPUm/jmsI2kmz0ZPS6YADnYDhvZaG1Pi+ox1TUCHQjwU6LEcWlBq92Ja/EFD3w8ATOg6IC2+UJitnpc8VwdS987yEsnL2VHl5HSm0kDXcFq8Y4S5q+pIatGzvRnOjOlPeNPnU5sdQAdkJRNWVkPV4DVKtfxRibjrLDI6cTsTrxlfJ3HzE1tGKrScKGwSka11QNowEflBJpfEBSRX2yGcD03ddMgFWxgTcNEBkYPxqIBy7EcijFjcS/BlfHvccz6oWUK0+X02qsaLTqgApDUGlcw67BjdwexlqzFPPXUCvwNAxgUl8iExNFERyYzc8gaZmzKpaLGNVZUre6I2l0PPh1d9TvMmG1AgxmLDVBr0fkrIe9CQaWZ7Z/MJWPge8zsMYGZY9aQtuYgduyYa0yADnv684xbtLa9oWnrfBpcgarVA1P9xQoLgiAIwvm5wie5N7pAX5QdAHsttVdzrJkkd32p1VvZut9KQT1ow9REt1ghNqqLL/EqMFVa+Sa1kDnfV2AClGrlWROh9qUZKXBCgI8CaGBXegXnjuS7kEZ25bgiXEOfUGY0ZX69VEz5k/b0JLCLstWQXQnIvBneXYkSMHT3o2fzeW12C/tONoLMk9uH+GNoes5yBQl/CmV2a3NmriQPD3cWtYGMdCtZlkbw9qRr64ttXkA9v5a4TqKucSqCcc3079vqcIBGzDWuq6XgYKnFGNcG9uW6suPRA30ZePqPHQjrqWXWMGW7b4CQXaAEnASG2Fpk/ezkFxeBLIJhcXqMJ3byn7xyguOGECyD4uJc7JRzOMcVpEYPSib+dHs0BPdIZtrQFmtzBd7KhDgdKHoz8eY+SICl+Kh7zKee2LgB+CvMVBRsYf26f/D2z6661X6us6w4M51iJxA9hqRIDaBnROIIgmVgz00nwwE4D7D/uB3QMHT0jNNtkoJGMzG+xQQyp4ni4gOs+WYN+U4IS3ycie43T352piuwjp5IUviZCV1q/WiSx01wjUdu4nBfFHh3RHeBlZyVneyuc7pEyeFWP1O8SJzzHB+9/xJLHh0oJl0JgiAI5yWPje0BTb3xjXYqy6uu6vhVW6GJw3YdCZIfM+4MQVsgZ/iQgHMCw6h+XfigNxSU1VJgchJo0KIFyossZJ9V3ym+KQlhdghgrWJtZvtTx9l7TpIysCtJOi1zH+7Pw9YG8PJAWXiCXf8xtS0AdlpZe8DKlEQVsaN7sL6HDR+9Cu1ZX9w2UraUkTS1E4b4KHZ0d1BglxGo8UApa2TrqiKuauq7rpbDJxqJD/dg4LgApnRyENzXl4He7a2okbRUC8UDtQT3DGDJPC1mPyXB5xnhcPhYLfaBKqTeAXz8gg/GukaK95Qx/wcHGZsrSR0QyEC9L6+/pqXC1Iik9UCtgIqfT7L0p/a1rOCgigIsGLrUECVTn1k+CjCezMVCDP5+dlJz0jnsyMQ+MhF/zBw+mQPYydiyjO0Dn2OoIYmFr4+hwmRH0upc7dk+l4+a76xOy7CHNjOyAfeFgJHUXTtdwZ5Mz4i7P2Si2kh+yXGM9gDCu+gBM/n5x13b56Tw6aExPBEXQ9LTm5lok5CUgLOI9evXUuxqNT9sSGFCj2Siw5NZ+GYSljpQe0sUb3qANWm55xwDe85SVqaNYX6/3iRPnsAPS9ZScWgFKZmDmRnTm2nPbCbJWI7dS4+/N1CyktR1zbYvzCTfOZho3QReeDmOYrMNc/pbPLZu91n76RtT45rgdlRznveMHEmjw9cX0Hi1WkIQBEEQAGTORsDZgL2mmrITeZw0Xd0VAjCX8/dVJ9lV7sTQK5S5QzSY/lN6zozigsxythY48PRRkdBViwEbaWn5zNloatFlX8euXNcjpmNGtl5K32ZtFc9++CuLDloor21E6SXDVmnh+wNmytpRTdrmbJ7da6G8XoGhYwf2fV/A1hbjC8oz87n34xN8n2vD5KHAoJJhM9eRll7M2sKrPE7D6WDFx6WsP+YAvZbpY7WEF1exufWe7wuyHDnFC1+aybeAf7AC+8FTrMlqvWzFL0be+qmW4poO+AcpiQ73JNrXNTyASjPz3yghZX8dxY4O+PvJkGwO8o+YWLfP3u6ua1uWL1uLgTATw1vcltV+Mod8J+DMISPXjD030/37KfJPuvdUuZYXX5/HyrRMih1K/P00YCsi68hG1hzIPLvCohTe/m43RocduyWX1K/m8fYh95JQziL2795CWiXo9H2I76pHMmWy/Zvnef2XprVTc1m/dDZvbDvoWjpMYaeiYCcr33+AdzLPrBVrz1nIo28tZnNWEZYGCbXCRnHeTjYcOX6eo2Bk8zcpZDlA3Wc603pogExSFs3mjS27ya8EyU+PGiPFeTtZv22nOzh2K1nBktU7yaq0I+kiiA6PoWug5uxst8xOQh8bOL34fsfVvxGwIAiCcGPpEBbV58a6tZWk5rVHepCkc/DNsgPMybqxnt6lig3ujdn+x7zdkEbSklF88PTvUZNyWP/fFrI/jWFsigimrgRldCnrFxZj2BvGiOf9zlmlQxAEQRDa4wIj0H5nvHx57cEebJ7bnSQdcLKU5cdFsCqcK3tDJ9aWQextRhJEvHoFOBn+ZyNRTi9WfCGCVUEQBOG3uza3troS5Eqiw9REyRoxlRh5L6VYLFQutK5OxUsvRLIrDKo9afdqTcLFNFL2SyhzfvRk67Fr3RZBEAThRnDjDQkQWiWGBBy8eEFBEARBEK5LN06GVbgojdT6Hd0FQRAEQRCuZ9c8YNV11GE8Zbx4QeE3ERlGQRAEQRB+r26cSVeCIAiCIAjCDUkErFeDKoRVXyaS92U/5gZfvPgNxUPFPd9OYEPWBF65V5xugiAIgiC0n0wXGk50TAyxsTF06xpOiK9Y5+f6JHH7+C48MyWcpM4XKao18cGKAxxbeIrY5jGiPpJXMiewYX13uniANHkAa7Mm8NmrLe8rJsMwuSfPfzuaLw9PYG36aD78pDsJeiAyijczXQGo699o5tx6eZ/ppTJM6Mb0ed25Z7Ty4oX/iPqEMmVed6ZMD0B1mao0PHKL6zz4JKzdt8m9mJbnZ9yro9mQdQfzJ1+nFz6ywTyxYD/blm7miR7Xx+do2LjVbFu6n22zJ1yG10fPwJGPMXPiLEYEXYbGXUdC/zSKqfdOZHL/dt+H+grzYvTT7/L1qndZMP58bWtLmeuBg9mvHiLvs3yS/K51W4TfI1mQrzeSBzQ0gFzyRuV1zYe13nga6shIM7LrQDVZdZdYh0xJwshwZowPY3johb+wEyYXc7ufgl3f+Z1169G2MkwfxMJXo+jfXYlKCZK3EsPNIfQIBmx1nDhSxfGjZqxtuSlaQz0l+0tJ/7mUoyXtb0t7BA2LYtJ/d+O2my9XOHZjkboZuOe/u3HPRH/8z3ObXEE4L5mOm4YmkzRmCkNDro+A/PKQExh/K3eMG86IXtdzwPd7p2DFOl9M2kpm32VFpBWE9pI7a09xIr8Maz0g90Qt1V/rNt146ip46ZWKq7MvlYkpI2qhsiMpv1xCVBIUyvSZrgxcZepRFr9ZSA5qEqYaXBmaokLemVQIygCe3HEzt1z0StnGtud+YVv7WyIIgiDcQEy7/dl4ykjSraeY8IWKlD/mSovCJZJXlbiDVYD6Oix/+HhVRtLTw3itn4zsTcf4PsDAlJ6eYKwk5ePDvJRWf7rc+MeH8E6CnIIfj7LCI4T7/+RDgKyegp2HGbvYiEkfzvq3u5zplndWs+hve1nQ7Mbs8fcNYvUkb2xpx3mvLpD7+6lQVleydNFhFhyuB0nHO//qw3hN0xZybn98OHmPt15fwKBKhmvBtF3LrkvI5qpuNRCnBWpKWfHUMXYVAVhZfaAU2hP/Kv15aNNQxunPPJT+3Lc8verslK/UNYQpT3ZleH9f/DwclOSUs21ROiv+z+YqcGtvPvswEr/yQlZ8reC2ewPwx8reJft4fVkVdmSM+uQO5tx8ps6gpKFsSDr/Pi9MRpd7ezJ9qp7ueiXUWDm+5wRfvH6MPfnN29yd4f01+HnYKNhbwOevHWHbUWcb2wx4hzB/9wAS5GY2vVdK0F2RdO/YQMEP6bz0VCEl7qeP1pdR82KZdKsOgxasJVXs+eIwiz+owNqs1aqBkUyfE8HgXhoUDTZKfy1h06LDrP7JQdCsoXz8iP+Zwl2782FmdwCsG3/hvr+VutrUhn2phnXjyXlRxOmh9OdjfJ7fjkN7PZIl8sTrCxhrS2HW/7zaokeiN9P+sZxkvy08O3cu2x06Ykc+zkO3DCa6owbMRRzev5IlX6WQZWtRb8eJPPHMDEbqNRiPr2HJJ6+yvWkxFFkEI+58iuQBfQjTSNhrjBQX7ubfn81j/eleCB2xiY/z0MjBRPspsVfmkLr1Ld7etBvLWe2PYOj4x0geFEeYj6vc4bQUlny1lvxWTnt19GO8NSeZaKWZtC/u56ktmdgB/16zeOSOicTrdaidRvIzN7Py3wvZXGYHWSLz31zACHVTLRJDZ/7HdRHqzOSj//kLK8vaesDlDJzzEk/8yYuyn77kW9kg7uwfiq9HLWW7VvG3D9NxAL7xY5kxKYFeBg2qBjOFmXv56tPv2HGyHiLH8s4Lo3CkpmLv0Y9Q814+/xFuv7MfnWozWP7qR2w86dqbIiiOe6eMY2hMJ3w9zBRmHOCrT9e46kFO4pMLeajPmdYFjpjN1yNcPx9a9nf+8WOtq56Qvtz7X7e766mlrOBXdqz+N6vSzG194iDrxJDkcYyO60pkoBeKhnqqSnL4ZcOXLP+pFIf7+ESMuo9Z4+MI9awmc+NaDp3zuduWMqAaMZsVf+0K+Vt5f7c/o0fGEqEFa8EO3nhmDYecgGcoif81gTv6RxKqAmtZIWk/rmPpul/PfL749+Dev44jsVsQvl5grTJSmLWL5e9v5ZijHWUA7Cq2HpJIGm5i/OAGUjaIrh6h7WQdNAaiYmKI7dGNqM4dUYkRAadFDY9mSrCDgmon2mAdMx7p3urYm8DB3XhmiIq6kmoyjBDoq3D9wV5HdnY1GXm1XOxCUtkngqmhDgrMoAzQMXtaGPEyoL6egpxqMrJrKHffkclUbCYju5qMbCsFZ92lyUnCTRaUyDicqTp3n5WlrH5uL+8sKqSkAex7s3l7/l4Wr606XaRzN7Urk/prKbuLWmzfliEATeodlByr4PjRKiprzlNGH8KTnwxg0jBfVFYzBafAv3sI97w7mIeGtRj24B/KPZOVVJY4kLQaEh6JZVyY608V+a79lFS6frdXmjl+tIrjRysoqGxHm3ENh3j1+UjiIpVIOMFbRffbohjew10goBOPfDSAScM0+Cmd2OVKDDdH8eRH8dzSclzfBdp8moeG4X8NRl1uxaFU0GVcHNPHuZ+7h4pxi29mzuQADEoHBfm1EOTPLY8P5tXHT1/BIPXrxqvLejOqnwaV3IkDJYY+YYwb6hoaYTtl5ujRKo4Xub85bDYK3McnO9/hClbbsq+AEB59ozv9IxVISgWGW3sya/J51vb1DmF+umuc84d/17Re5iJanp8n1qbzzvw0vtt7GW9h58zkhBHw0RPc8rtToSesI1CWS75DInrcIt66ezSxHcFYVoTFU0/8LU/x1gPJnD2XUsOwyY8xtrMOSSERHJPE/GnTaXrpo//8JvNHDiBMUU5G5m6yqkHXdTA3dWrqZpeIHrWQt+4ZTaxOAw5Q62IYced7vDWud7OxqHpGzFjKC2MGE+3nKif5xTAwcTQ9Fa08V10S8x9IJlppJ+ObuaeDVXWP51g8ezpDwzVQmUtxnYawuCTmz32ZoWoAM8UnMsnKy6XCfQpZyjLJyjv7sfbyS5jI9Jt12EsLyTWCn48XAKped/HKY6MYGOkF1aWU1XkR2mc4j8y7j4G+Z7aP6B+LX70DlWEg05PjkGodKDrGcfstoe6XIY5Z86ZxR59O+Er1ODw0hPYZwiPz7mOIu57K0jxycwopc8edjqpScnMKyc3Jo9DsfmK+fXlk3lTu6NMJVZ2Rwmrwi4xj8mOPMb1XO74wPUIZOjKObr71VBbkcexkLSpDV0bPmM69Ua4iil4TeXJqXyJ85SgkHb0m3sv4Fp8ZbSlzlpAhzLgrlsCaEnILqsFHi8oDkOkY/ejDPHRrV0IVtRSWVENgOEPufZDn73IfQ3Tc8dB0JseHoqot4VBGIWVOLZHx3Qg9/X5pk4zhmgAAIABJREFUS5kzdmV4YaOBvn0siJXBhfaQ+3XU4KxvwNnBA6U2EEOHerLzq/jDJ1oBjIXMmZvFVg9/XnvzJpICOjJ+kETKhrPv5al0VLHg6XQW5TkBGVHBcmwA5SXMebrEtUrAJ91JuOC+TvLk34+xq3MXNr8WjiFUQ08VpJmrWfDCXhbINLzw7gCmBNeza9VeHtzVype2zE7PsAZAoiC/lU+KGit7Uprl5fIr2JZ/9lAFPz/X16G9rO6sDF67NZhZ/cB2VnuouGfNSKZ0P7dIl6ndSQgA60/7eXhWPiU2GV3+PpT3pvtyW3IIy38qbNaGKlY/sI0VxwOYs/lmRgX4EtULyHey57nt7AH6vzWW58cpqPi//Tw8/xKGYHh34i9/dQ2HKFm7m3nPnaTEJiMo0UCMO4NkuK+7KzAtyufF+/azqyGAOZ/ezKiwUP4y9RjbXmuecTlfm5vv1MnRJdt5epmTUctGM2eYgsjevvB1BdKwLvxloMK1r3v2s6sEVLf15r3FkXRJiqL/kv3sqVEw/MFudFGC/Wg2z808THoRqHp1YnCo6wu3MmU/j6eAlDSItS92gvwcXpx4jIJmFyBt2deRkWH08wNqKlgxdSeraww88+lN9G//kW6bFudnZepJNqVe7p2Uk19shnA9YYESav/ZPJkQQvGet1hSGEmwAixlORR7j2H+yBgkZy4pr01lSY4ZfCbwwj+eY2hsEhPCU1hyoqlOCalkGTMWLsUS9zKLZyTi32UMI/TL+KhIR8/ICMBO2tdTecyddpV0A4h2uj9XlIkk3d4bCTMZX83m0U2ZBCe+x+J7BhA9cgZDf3yYzTVAeDLT4nWAkdSVs3l2eyZ2hZ74Qf2xtfx4UMYx8+ExDPSxk79lHn9ft9t9R+IIxo4bQ7DMTsZXU3l0UyZ2WQRJj37BzJhEkm6OYPum3Xz01l/4SNabmc8vJynI1fZn037bPY0V9hyWv/gB3+a7sp2BQV440DF64iACZfUcS3mN574pxSHTcce8Z5jaoy93DFtH6iHX9o5D3zF3tY6XXxhFaMY6nv5fb+YvGEtop04oKKTTiFEM6QiUpPLGC6tIbejBQ889SGJIX+4ctYUdKYWkLV9IGnLiZ77EM0O8qNz7JXM//vWsdkaMup2B/mBNW8XchamUOeVEJD3GgvGhjBjdj88Ppbbts7KhlC0fL2TxjjyqHABeDJz9D55I6ER831CWZ5fQd1g/AgEKdvCPF9dQEHMfrzzat9kkSXkbyrQ80LXs+3Ahb/zkOtcUQTpUDlD0GcWdvbzg1D7eeGY5qWZQ9bmXBU8OJGJEIvFrl5NGKN0i5eAs5MuXX+frElcbfGNCkZpefkUbyjRjy/OkjGoMhjqiZD7iFupCm8nrqws5XmDCqQoiMtwfpdoHrbyKChGxUn6wzN2tXsHWI/UkDZMT3dkLJXaa9wCa9p9gaV7Tu85JdnH7P8ht+dXss4OttJYCJxiQo/UE2tHjBPUEap3g9KC8ut1NuMqUxN3kzryFhzHnE9cVvaR1ZVmkKH+ilIWkNxU3VXP0V6C+htJTQIAClUoGXMZPu94BxAQAtnJWv3mSkhoAJyX/l4+rp1ZBj76unMDx77LdwyXKSVlTwahH/DH0CcAPM6eTum1qs5XjB1xnU0lJLaBCo1UgAYb+AfgBePsz+a2b+TOA3BMNgNaHLmGwJ8efuN4ywMHefx0h3Z0Vtx4qZdOhtj/1tuzL4s6+2/fk8N0BJ3byWf1jD/pPbmX6RIODihIrld5QUX09fyPZyS8qApme4I5Ket40hqH9dFgcG1np0BMsg+KiXOzhSfT0Bhxa4icuYiEAEsEyQKYnurMGTpypM23bCrJsdti7lp8mJTJRpycsWIIiM8WnjICO+LuXszDyR3Yc3MlPh3aT0ZSp1McR6w3U7Cblx4PYgfzt/yZ13ABGqLtzU2eJzZl2grvFufaft4Yl213ZUhxFpG1v2TUCxExgIkD1RpZ8veXMsAJFHLGdJcCOf7+nebWn62GNe+GQsM4xSOTy20LT1lnTd7Ax//R4NMpKzODZl27hcqAev/738UwvOyChdvdehIaHonCf1/a6Wuw19VgBR10NVitYAIVCgYQX3WJcG+X+soXUKoAjfLWjkMSkUEKjI/ClkCouRkOvbp1cP4Yk8NC8fgBIGh8AFKEGImWpru71i3EWciivL4l3JRAZ4IVCocAvxJUKV/tqUeBAH+T6/Du240cOmeth3xZ2FPRlsqGpEl0byrRw6gDf7jhzcx5HiZEqIKJbBL4AylDumDOb2wFkPq7AV9WJiABIKzFSVgGEhHLX/McwpO5nX9pBUo/knTl2DW0o04zNpMDkBPwcBMrhipxcwg1JXlNldmVTa0yYHf4oFQoUEogUK1TXOU8HpqY6ByBH2coqCtWmy3CwGtz7+i3f7XLOjDNtT/d9M5WVdkCBFOiJiiv4WeIhofZ2/agK8yeuZZeWt8fZy/DYGq7855pW4Zq5WlNDaWtDCTwk/FSu7npL+ZkBwhWnHKe3V3twJmBtS5sbGrC7TzJ7i9dM7c5246ehe78W3eoeHqhVgIcClTdAHSUll37ytGVfam/XuW89ZTudUaoor4XW5vvaynl/1A+8f8ktunqMJblYiCE4KI7oYB0Wixl1aAxdC/SoMZNfkoPk3RE1gEJHdMy5M8mVyuadm2aM1e4X1XmKihpAJ6H2VgJmUr99hZTgp5kYrSf+5mTib05mTvVulrzzMCkFdiSNFo0MqD2FsemcaCjHaAHUGjTu942rPrBXF9FsGPv5OQGfRJJviSD1h1zXY94a1AoAieDw3rRcJlqtvHJzua3mWs4ZTeDpjUoCkBMYGe7KJDajUrT4/K1v5R3moQC88XWPb7NUnhkcVVnl/lmlRS2Dqou9ZWQ+rvcZoAoKp1fLYT9ybxQetOlz2zdhKm8+1BffVhZ5USgUIFOg9gSox1rtzjg4jVQ2T1q0pUxLVhPW1sYzN51Imk5069Hp7D827cdZyFcfryf0wVHEdwxnyJhwhoyZiDVnK2+8soZD1jaWae7051yjWClAaBc5HVo+1Ejj9ZwQuYoCfSWUgA0ZAe5xqbbaaxjJX+x1qfeg2gponWgvcWWnE8cs2FEhde3EgKAcNjVfisqDswJhW9OhuJRxzw12LO6xrUff3MjjH7SctXINmByuiwZvTzr5AS2X4WqwU2lyDftQB3iC++vWv6Pi9PaWS7xQaI3FZAeU2H/ay93TC1sPfpUOrDWA0hP/oEvPOLdlX93/XA8okTSuDLAdUHu3Nljy6vNQadEoAIeVqjatt3aG/WQO+U4I1icSHWQmdcdO4ofEMESvB2cR+Sft2P3NWAD/6o089eQ8Uls7zLKmGYYadD5KwA4yLf7eAHYsNe5zvHoLS17fwkrdAOJ7DWbELUkM1Q9g2sSJrH83BYvZhNkJaq+O6JqCIY8AdO7xpGb3+6apPslHTzAtRpq0VLCSWWs0zJ89gdgxjzFi98NsrgbqzO4LpVxSXpzEkoJ2HbrfqJWzrK4GRwNAKd8++xLLc1rZLHJsG+quocq19A1qPy3gmjzl5+u+sLCasLQpK1qNxR1wHVv1DPPWtavLqxkNg251BauOnK28vuh7DpXUEjP1Of4xyn0B5HRgqQOQo1AqcGWNvPH2bN6eNpRp6TxvB0tNDaDBkbac5AX7zr14cLMe2cRLf9uCb2RX+vbtz+gRfYmIHM7UEduZ+42xzWVO82lwBapWDy5Hrkf445B5+2iRAzJv9we+04ZNpOgB0MYbmKKXoewcytSecsBJwYlark1o1YCtAUCGtrVLdACnRHaRDLBjCLm0wMX6YwHpNYB3J6a80Y3+vVQYBnZi0hv9uOem5iXdgRJKOkdfSnRs4+hB14d/lz9HE9eUufCQEXRrJFOm+J5/0/Owuwfuafw8L22R9IPlZFYCyk78+ZEQgpQAMoJGR3JLHwAHRw64MjRdRkfRPwgICGDSHa4Z+AUHymnnHK8LKthbQSUg9Y9kUr8zr7mqVyfueTyUIA/AVkH6QSegIOGv3U4fR6l7COPGtXhdmjK+KiX+LS4y2rIv18UMqHp3co1l9fbl5sHnee2VnZizeTSf7RrJK7MubdJV23kQlTiRmTPuYeZt0e1azAJwTTSqAf+YIfRUHCVjZzq/enRnWA8d1BWRbwROpPOrDfAZwITBMWfOL3VvRoyf5Z6c1ESiZ0ISYQrw73M3w3S4Al/3UKHgmNHEqiUsxt1s37aQF9e4uuglTUd0AEXpZNQA3gOYcEsMEhJhQ+9moBqoOcr+E656irPSKXYCnScy7WZ3m2R64hOTiG15HVGRQ9ahZXx6yAzqwUy7I9FV3pbO/gK7a7WBkaNdQwwAFHpihz5FUkyzd5LTfroXQK09/2uq6zeOmQ8l87fpQ+nW3hejLo9D+fUg68TAUXEEnm6Phm4jJnJHr7ZWVMuxTNcVZ8SgROJ9AU0P7hjiGnpUmJXbrLu6HofDFTmpNF6cfejMHMspBSByyO30arZaS2Cf4dw7IpS2ORNUlh7ZQ1pJLQ50RHTxaVbGSFGRK7COjI9zddeH9KbvWV39bSnTNoWZriERim7DuCPS6/TjKkMck+/q6z72Grr174qvop6qnCNs+XI5S93DC1S6pp6GtpQ5Q9nJjkEGlCg5LJJjQjvI5T56uqmDcXrIkAH26krM4iQCwCbz4Zl3h/NM0wPWU6z9pa3RvIzx0+K5vysgl1xvUDQkPdmP4XagqJAH323HSvrOOg4X1kNnOQnJg9icWIvNbmXFgqOknL6A9WDXEW/oZ6FnTC3Krar2B9clhSxbEkaPxwPwG9id51c3zZYyszqlWTmbifRDNiaFKen+8C18PMaK1WZjz5u/sOJnCLr3Jp64xwcJ8Hd390fdP5T37gFsp/h82mF2rTjGrtH9SOgaxSubw6g85UTq6LpZQeXan1nRzqafOGbCTgCq2/rxv+tNVDQ4ObpkJ+9vbOMJXVPK5x+X0//xAAyTB/DxOAfWBg9U3g1s+1sO2w5AwWdH2TZ5ELeEhfH8NgP2ehmSEigv5PPll5p9aZ19y698vTeE6f38mfL5OCaX1GLXqvDzBnKOsedtAAdbl2UxbmA3uvTqxivborFaQaWVUbJiG+vWNavvWDUFDSF00Ucyf5M/JSYnlp8O8/SbFW3aV8kP+ex9pBMJQWE8uUbDcZuGLuebnezhgSZAiZ+3Eov6PGWuF84c8suASB3+JRs4bEzHv0zHQANQkEu+A3CsYeWWJOLHRDAw+XPW3VGEkQCCfSRwHmTJ9sXNKrRD5xksf2cGrvFVYM/bwOYiAInohKd5od/TFJfkUlwFuojeqIGKE5murn3bFlK+P8jQO3sTf/fnrBtvR1K6ctpZPyxle9OqGzkr+fTACJ6I1zH0/33OurvN2BUa1B67eWNnChnnPNEi1n+zlrt7JRM2eBbJO3bwUV4u69dtYMLsCQQPepnP4x6n2Cah89EgyeykLl1ISrPts4rMoNcQf3cKy28ux+7MZe0H81jf/EpNqcRX5QWeyvZfPGBky9q9jH5sIIFDprEk3kyZTY6fvxcK6klb8h3ftnE2aOHmTewYPo0hQQN5ZlE/HA1yFAqgKp2vNhWeVbagoBgHGlR/msoHr5VQ6agn85t3WbannmMbvic1YSoDDUP4x6J+VFXXo/DRoFJA1U8fsGpzW1pTyuEsI0TqCB08gemmDGoM/bk9qvmVYz37dqZTNmQggX3u5s0XE7D4h9LprIPYljJt4zjwPd8c6cHUHuHc++JLjD9VjcNLh68KOLmVtK/3gUzHkL/MZvT9ZgqLi6m0+2CI1gG1FGa50/FtKdNM35galMjIPqqhvP3NFv7AZKbaepwyGdTbsRqLOFFivZzTWH7XCn48xoL/1GCyOzEVG1n69lFWtDmFJsNH70NslA+x4V7u5TtkBHR2P6aX2jl+x8n3q46ScrgGExJR4T7ERqkwtEglZu/0JcMOAb0tZ9+WtR0KPviFp+Zns+dXG1Yb2GtsFKSe5MhZA+Wc7FmQxupUM9Z6BUFdfenSy58gd4+bItCH7t196dLd1xX0ACq96/cuvTRoPID8Ql7/f7v54scqSmwe+AUpXOuepubz3Q/tX1G6MuUgy9ZVUGICv66+dOnuj6GdtwAs+OAXnvpnDun5NuxyBSocFPycz85j7gLlpbw9bTerfzZTWS9DwkZBajavT0tj2+W+k1eDldUPbOedVaUUlDSgCFChqrdRcrSUTV+WUuLOdtlTj/LUA4fZdsCKtV6GStlAyaGT/N/PLb7Zj+aw7L2THC9xoNC7jk9UmKt7v037Kj/JW08dZU++A4I0+JXlsCLl4tNWrjwlPmol0EDRydJLGL5dRFap62LDcuIo+Y4cMk64fy/OcY8PtZOxZgaPfrGWtBIjaPQEe9qoKDnI9i0bSDtrcVQzqV8vZH2RGbvTTkXWWl7/1wp3l72d/MMbSM07hdIvhvjY3gRTRMYvi/mfr7e4O8ntZG16jEf/vZEMoxkUEhZjJpu/epxH1x1s1pFexPpls3lx007yK+1InhqkmlzSdv7I4fP17xYs5aP/GEEWQdLkKQQDlkPPM+udZWzOKsLioSNYrcRenUva7hQ25DW/QDez/ZuFrMkswuLUERYeQ3R4BP6XeVSINW0VTy9Yz45MI1ZJQ6BGgb2ilEO7drDleDv6kM3pLH75I749UEpVgxwFtRQe2sHbLy5nR4vTturHtSzfkUeZFXwNoUREhhOqcT+xin28/cJHfL2nkDK7Al9/L6gzkntoHxv+0/YxFMdSPmLZjkKqPLsy+q7bGaLLZcues7vLHYf+zdufplNoBt8QHda0NXybSbvLtImzlG8XvMf7m45QWOFA8tehwkxZzhG2/LifMifgNHL4P+kcqrDjFxpJrx46FOZCUtcsZ/GOWnc9bSjTRGYnoY8NnF58v+NGuluacDV0CIvq03gtG6DrqMN4ynjxgldNsxsHrP6FEZ+dbxHR61UDSf+TyWsDPFjxVAzPnptmEYQbixTFpJm30s2RzeqPfuTYdTAcWhCEcymjS1m/sBjD3jBGPO/HVR0yLfzuidsE3HA8WPtpADP6nGTCGBMLMrQXvWmBIPyuBYcQKoFx/0ERrApXncJXRyfNhb9K7WYjZVV/9BlGTob/2UiU04ulX4hgVWg/EbDegGy5HXnwn57EeinwARGwCje2/O28+8b2a90K4Q8qdMyDLBjX6YJlyjYtZObyvKvToOtWI2W/hDLnR0+2Hrt4aUFoSQwJEARBEIRLpArrQXxnrwuWcRQdITWn9oJlBEG4MJFhFQRBEIRLZM0/wo4LLoIrCMLlcInzyAVBEARBEATh6hABqyAIgiAIgnBdEwHr1eAVwKpXBpD3Sg/mnnvjD0EQBEEQBOEC5LE9e5z9SH0leceKsV7TqVjXv/jberM60RPbwWx6f1Zxabdr9Qti/ZOdmy3w7yBl2X7+nnX52nmabjqLX5513psJWHbPY9LSja3fr14QBEEQBOEaOnfSlbNR3OnqcnPYyDhWBdSR1TwirLeTXWgBmRxDiCdake8WBEEQBEE4h/zokaOADLU+CoOPB/VWCzaRXb286k289Ekrq6GaK5izuAJkWt6ZH8N41RVsg3EZsx5YATKQ+r3JuhmDkUpSmPXCQjIa7IirFEEQBEEQrldyp7MRZCp8VB5APaYq6x86dkn6f/15rZuVBa8fYVHl2X8bPukm/re/kxVL0lnb9KBMImlSLA/39UZrrmbpl8dZcNx9N/OAENY/FnqmG95pYdGCIyy4hGVnDTEhPDMygOFBSpROB9nHjSz9roAUY3uuLtyBafMX+JxgVWLojB28MECiePtC/u0xhuR+MfjLzBT/8gpTV24hPnkDrw7VUbHtYSZ9thOCZrH0+elEs5s3/vYA693jI6TA0Uy7ewYjYyJc2xftZvO3b/HRoaL2HwBBEARBEP6wZAAyjRaVHLCbqKr5Y6dXs8ptIFMS3bHlXzyI6qgAZy3Z5WceVXbV80xfb7SyDij9fJl9RzDxTX+st5FdaCHjpO033W1KGx3Gqqmh3B4qYauuo8AmJ6p7EK89EHlFs7K6QbOZM0iPrSyTrErQ+WnbvrHPaObPfZmkuAjUdUXkV4IuPJHk2R8yJ0ZzdtnON/O3J+7n6SeSGRN2eZ+DIAiCIAi/f3LwQOujxgOwV1dR+8eOV8kursGGPwadB5zy4YUxfgSeLOXJn8DgC5jryG4+w8pRzUvvZLM2OIIt/x1AQKA3Pb0grRaoNDJnsdG1SsCzESRcUosUJCUGYpA1krb+EH/ZXodNpmT29N7M7aLj/r6FfLP9ytxAXXIcYMlLD5NSZAckggMD2jwpK/rWGQz1A0v6q8x4P4Vip0T0xC9YOiaCsSPG8FFmCpYr0mpBEARBEG40cuQafFUyaLRRXV13rdtzzdnK6ihzQkBHLwLs/iT19kepd7Ai1YrBB2y5tWQ5wdBUvqCStdVgqreQ5QwgADlaT+By3YVPriFB3wFoJCAunM9jXA8r/V3/R4V6ocR2aasUXITl8FrWFDWFqHaKy4oAqQ1b6omPjnD9GDyGJx4dA4BS48rQSqExdJVBWtNQBIeNqupaoAZr/WV8AoIgCIIg3BDkcq0PXh5AbTUiXgVbWS3ZTkjoqKQvKpTWBkw+3sSGOjHIoKys9uzufXujK1i8UgN/vRT4yAE6YAjVng6Umygljyu0YzCbjZe4zJUGtbfrJ3Vgb+IDW/xZrjw77C3ey4p/7b2kPQmCIAiCcOOT+/iokAG1JtMVydL97tTXUVAJSj81wyWJgkOlZMfp6Nm9HoOskX2ltVfmOLkDXs+W8aetnmonQB1L3zvISyevxM4v3KbzappMpmgRgGLGUuP6KePf45j1g5hkJQiCIAjCpZP5eAONNVRXiSXjAXDWkH2qEfz9uTXIScbxMvaVy0nooUGJnYKyhiuw0wZ3dltBVKDy7D/ZLew72QgyT24f4o+hKUiUK0j4Uyizu1yB5lyE2eZKxav99KgB/4huBJ+1hmw5h3NcQWr0oGTi1U2Pawjukcy0ob3PrjC4H399MJm/PTiZRP0VbrwgCIIgCL87cq8O4LSYqHZc66ZcLxrJLrdBd08C5BYOF9jIOGknYKASnCayy9paTwfG39Gd+8MAmcIdaKpImtKD4fVASSkPfmmkAMBZw658B1MCFMSO7smOm2ox1dez9btfWXDCRsqWMpKmdsIQH8WO7g4K7DICNR4oZY1sXVUEXM2ZcnbyczKxoEfdaxaLn5yApI9pkWG1k7FlGdsHPsdQQxILXx9DhcmOpNWhVkDF9rl81Ly4Qola44UKUJ57KwtBEARBEP7gZOCkttqEmOtyxuHSOle3f7WFtOpG9uVb3b/XktHmyVQyfALVxIaqiQ1R4ppu1IGAIPdjQQrO5FIb+f774yzNrMPk9MAQoia2swaDe8mq8sx87v34BN/n2jB5KDCoZNjMdaSlF7O28Oov62DZu5i3f87E4tAQ3BHSNq0lq+Xwgcq1vPj6PFamZVLsUOLvpwFbEVlHNrLmQOZVb7MgCIIgCL9fHcKi+lzThax0HXUYT13CSvqCIAiCIAjCH4K4e70gCIIgCIJwXRMBqyAIgiAIgnBdEwGrIAiCIAiCcF0TAasgCIIgCIJwXRMBawu6jrpr3QRBEARBEAShGRGwCoIgCIIgCNc1EbAKwjWW8P/ZO/O4qKv18b8dZmEYhm3YGWQREEGEi0poYrmUIl6FFjEL/d20Vbt2bbmV3axuVpa38uZyu9rtKkVfWtQWt5toaRKZoogoCLLIvgwIM8MyM0y/P2ZQQEwwTavP+/Xqlczn+ZzP81nOOc95nuecMz2S0hUxHEt2QnZpcQEBAQEBgd8dosCQoYSHhxE6NBC1q51gwQoIXGfIvFUsTVCz9EZ73K6lIr5L2PjOEb5e+zaTJddSkS5UJD12hK/XH2HNLQE/vzi7GJKSlvBQUjLh18X9XWEcWvjXpqMUvNFAeK+G3mFUFT98cYzdc9uFQZOAgMB1iUgutcHcacZGYoujpy9qZ2FvTAGBX5Lm+hYy88+SWdX3/sgyTxX3jffmvlEOuP/Cuv2ukI9g8tQUkqdOJOQ3aLWNvb2aqc4SMr9wJq/XznQt2a6kl0DQH6uZ63pt9BMQEBD4KUT6mtMU5OdzqlpPJzYoHR0QTFYBgV+OvO9LmPPeKR7cb90CWEDgSqNoYe7kNmhyJP07mwuPm6WkZ9jTYatl7h8FL6uAgMD1h7hV14EZMOv0GH5UILcRMehaayVwnsAEVr04BWNWFoawUai1h/hwD0y9YxQebXlsfPVddlRZRJ2iE7jvtrFE+CpRdGqpyD/EJ+9/wf4qk7UwMQGTZzFvWiSh7nIwtNFUW8LhrR+z4XtN/2VcI5kzexI3hHng4SBHYmijrvQEO9I+4vOitnOqO41O4tGUOEId26jI2sl3tknMGS2mbtcbPLSxFACJ90jm3DOV8aEeONm0UVd+iv2bPyItW/uLPN6e2JI8Q83cUCVBzhJk5k7qG7Ts+eYMz2W34x4Xxv7pCjI/PsScQz13NHaIDOKHOS4U7cwhYe+gnyzHYpQOYuacaFZFnjceWrJPMTr97DmjNWh8GLsT7M9fxFvNthXqPmUviu8SNj6bgur7x7ntPxkYuh9zTGHNa0sIznuV2/6Zjk42goQ7FjJrVBR+dqBryCfr6zW89dVBdL2KVUU8xZpZSQTbayk7tJ6XPkinrMtB7DyJ+bMXkBAaiIst6JorKTu9nbXrN5z37ElCSZj1F+4ZFYWXHTRWHmTblld5N7ey54Ucx5EyayHTwgLxknXQWHeS7/asYdW+Yz3vBQApwbes581ZI7BvzSd11f28W6wFVITf8hgP3zyOYFclaCs5fiSVdZ+kU9gBBD7Fh39NxutcmDyGxW8eYTF7fRWZAAAgAElEQVRAXToL//bqBR7JiyJyZMXaUSS7mdi5qYDm6EDiQ+Q4mA3s/e/3/OkrAyBm7MxgHo93J1wlhuZWDh8qY+V/q8hu7/6QXXh8biAz/6DEV2KmvqaZPTtPs3yXlhalJ+/9K5wJUi2rHzvIyjMAIqb+JY5/jRNTvusQk//dfO77cBvTxAQHaNnnQGb7BVoDUH7QgaJ7Wwgf18TIjV5k9veeBQQEBH4BRPZOCsQiMXJHB2SDwNDWRue11krgAgJGh+NsMqLwjWVBSiTSNiMS10im3mwxYBQRd/LKkinEBsqhuZa6djnqqAk8+szdxDpZypBEzOLZe2OJcIfaU6fIr2hB6hHGyGDluev0S0YdzqSx/njYtFJbXEqJDtxDRzLv0SSiba1C3hN48qEJRLiKkdjIUcfdyZ1RvXz3TiN59Jl5zIjyQNGuoaIZnAMjuX3JEhZEXAM/v1jB1DEuhCuhrkZHdo0JB08nku8M4XE11NW30cIg3F3tLjjV11WGjE7K6w2XLMfCj7Q06Mmr0FOk/fGC8gA6dG3kVejI01hrpMFIUYWOvAodxxtMfZ5zAXXFVHeCvWsA9r2PeQXiJQJNXQk6Akh6eDVP3ByDn0RLWZ0WXEcwedbbvDl9RM/zbGJIuTeZcGcpUpmK4Buf4sWZMdaDASTf+zIp0aHYtxWTnZ9PtdGV4MjR+J/LCw0g4YF/88TNMXjZg8EoxcV3HCmL3mFx6PnvDLtJLH7ybebHhOJlL8VglOHiE0PCjTH0tficS/TzvHjHCOyNJWzZsMhqrEoJnr6aN2fFE+4KmrpKdLY+RN/8FG8+kIIXQEclhaX5FJZrrEawgeryfMtvZyrRXZbhJmbC7HCSA6DujJbyNjHuSsvgJPquKN6b6020ClqqW2mR2zH2lmH890lvgrpOV7iw4oU/sGicI74KER1GEW6DVSRPdLakhWgbySwyg0jB2OFSyzkiBWOHiAED2dnaboMZM2P/oEOGiOP5CloupnKtgsO1gKuOCX6Xc88CAgICVw+xzNWPodacJZOujopaPcLA+vrDmPsFj29W8fKLU1DnfcnT79nx7MoE1B4eSGhjUtIY3EUmCtJXsOyzWowiFTOeWcq8sJHMuOlLsj7T4BGqxgnQZ6Xx+OocjAAKD4Z6tJ67Tn9kjHV5pL22i31HNZbjkhAW/GMR8a7hxAZDdi4E3DyWobZATRbLl6VR4JvEy3+dgLrbPQVMmUqsC+iz03j8jSzqzGICkpewcqaayfGj+DA3C/2lHswgJc88eAN3OV/kuLach1cXsL9vm7An5na2fnqC57J1lJvhvBfUlglhtiz/oY0iM4SrZMhEncxN9GGkjY5/f1qLr6stmNspqv7x0uVUWFxce/+Xz97/WVYJSIu7MAhbnl1CQjY4RIdwLNkJGmpZ/HYVef24lXMYiynTQKyrD/4iKf63vEyiv5bvt7zAN+7e2GOgtOo00rBFpIQpQbOD5156hn06sA9bxvrFiQRPmk3srmNkdZUpkqLZ9wizPznJ8Ls28urNPviNiid680GybUIJD5CCOZ/UN+4itQ5AiktgFLIuD2xwMvdEKMFYQvqb81hX6MrkB9bz7CgfEhIS+Sg/lWrAK24BCe6A7hjvrlpEaqkWqf0Ixkc6XOBZlvrM5e/T4/Gikt3/fYRVudZogN00Um4JRWouIX3FPNYVa8ExkRefX8b48GQS/dNZV5rKc6+kgmoBa15eSDhH+eiNB9jS2608UKpKmfPcaTL1lmcWpDKB0p1H4h2RmbVseu4Qz500g7Mn770ZzoRIP+aGVPHcKQiaEkiiF6BvZPVLuaw8ZULmrCRxlIRmAAzszdGydLgjQcOccNheR4uHMyM9LOfsOd6tFRcZGO7XCUgpL+sjHaALs4yiShF4tRE0xAwlwhRcAQGB6wexCDOdph8ZJLZBbOuAg7yJNp3gY73eMLS3YWg1oQeM7a3o9aADJBIJUlt/hvqLARPOo+9maYQBkGLvaTlX7a9GgoammhaMgCJ2Dittw/n+aB7fHcqjoPi8t64/MlSdosAnljvvHYyPoxipjRx3OYAcZycxICHUzwOAku8yyNYCJ3aTcXoC80K7ClESMdQig/dYHn5mFABSpSMAErUvgaIsci81evrRjPZsG5UXO64z9BE6vghmPZlVLiTH+xHsKMHBBhytcWJ3Rymy5lbK2yDaRUqQo4T40SqikXF8z1lwtYGOdgqb+1EO7b9crqq5hDO1BgjzxssulMHjJjHe04D0+GpK3X2Qmuspq9biNzwSFwBZKMkPbCQRwEaJUgTYBRCs4rzBaj7G9oxv0ZkhK2MHheMXEOwciJ8SspsrqW4CPENJWbIRv0P7yTqewb78gzRaT/cKjrSE3/O3kF6oBbTs/mo386OT8QqIJFySSrVRSXRwIFKg+vs1pJZaUkQMumPsPnDhbQbfmGg5npPKWwe7fQ3+kQy3A4wORCet5g0ApJbri3wIHqyEUs2FBV4BDv+vzGKsApgNFNWDLNqZ4QrAIGPs3ZFs7gSwwU0EYEdQgBhOmRk7TIkMKP+2mLdPWepeR5OW9K/Ol1+U3UDRXY4EDXVmpKiO48NdCBJBR4GmV9jfhLuDGcw21Df/lMYi6rQ2QCfuziZAemUehICAgMAVQNxYVki1thORwpNAfxdcvd1oKayhrT8eKYFfFlMfppeNBGwlKKQAYtwD/S+YSa6QWMLr+gMfsyZsPvfFqVFHx6KOjuX2FA1ZG//F63tq+ykjJ+LeJSyd7MGFK/+IkUgkgB12CssvuqauAGQbTc0m6JrSJ3LE3iqj8PQnwrN3UXZIbODS7n49b394gLcvJdYPfEcMYfNdKqvx0AuRCMx6CjWASk6QLwSZO2kxyxmultPsDGjaKDL1o5xflA5Ka+ohwofBg4fh56xFp1Pi5xuFv7MbdB7lTDUoYxws4vYBhIf2LkOJva2Uc7lCnS1oul5rSwMWU1KKvQzgGKmbNuA3fy6xqhFMnjKCyVMWoitO5blVb5DdKsXFzhL21+kazufGNjfQCHhJlChlgNEBezuLwdSoqe/frZpBGpFMiv8W1pVa6orUztWSCiFRERx6YSKBTOYAXA2D1USLto+0DTspDgBSKUHDXC44bGsrAkQ42Fu+k/ratosPbs5oyKwdQpCHIyPVImTDHJFhJvtIIz2emBjocqxe0hdhncEgOFcFBASuM8QtVm+qubUFvdEFmcQWuQ209TNFTuA6oL0VYydALZ8/t5yNxReRM2vY/85r7E/zICIijOhx44mPUhGbPJXo/RvJNvZDxiaMqeMsxmrFno28np5DhV7F7cuXMudc3puBVquHx17pALQBcuyV3fJSzc3orN6ngrSlPPPl5U6yUvLI3SO4zanvox26KpZtKuH7Sw7AJEyNtRiZHRVVLE6rZq+mk5EzIkm7sStcb6SorhPUcsYOGYSsqp70Tg/GBjrSooCW4laKkDD3kuX8khgoqyzBIIrBb0QkIZxk2/duJA0eR5itFFpKKGs1oG1tAVQYcl5g+uqtfXulfa3/t3FAZQ80AQ6uKK3X0VktK13hGp56ahMuvjGMiZxE4qR4ggNTeChuC/ftKqGx1fKu7e0txmQjgKOrxcNr1KLtAGhB12qJFLio3ICSn7zL6n2P83rLQl6dHkDSrLlsfW0D1YChVYsOcGnewVNPPkPWL5nv1Jdx2GqiBXBrquLB+0+ys099RLTozIAIN1c5Mgx9G61mLXtPGpjrpWBspDMOIWIwN7PnSK+3Z7KhWQ84mHFQ/JTCZhwVFqWbW38idUBAQEDgGiBytLcYESKFAwoJYDbRKSSx/rpoLyW3zAQiD2KnROLe5R2RKBk6OYkZEdY/fcOI9ZWDtpbczL1sXLOLXCOgUOJh208Zmy5vbhsl2TlUaE2gCCC0x9qNWorLLV6rgFhLLqvEbyxxwT1lCootXt3AuKlEnJtrI8Y9agJzJnfPdv0JBoHSQY6rY9//+ThI+xnYFOFotSfripvYq+mkAxnRvj3PLqptA5GcicPsaKk6y86KDnyHOREkgvLaNjr6Wc5A6DCZLQaLXHL+3Q4AXXUlGrOUkOgYXOqOsftUPgafOMa4A7UlnDJDWVE+jYA0OIlk//MTn+x94kmZnmiZnNSFKJTJk2KQoiT65kkEi4CmYsq0AD6ER8bgItHSWJ7Bti+f560DlhC9vbNl24Pq/ByqzUDwNJIDlYAPkydNxksEhpIc8owAWrILLSMvrxvmk9Klk90IEsZPordvsrGmmOyda9jXBNLguTw0xsdy4EwOpzoAxxgSx4We/xbsRzB55kLGd5+JZuqwGoZuuFwwQ60LGVEz7uLPD6fwUGIoP2n/9UFHYRPH2wFnV5JvkZ9bPkrmrCT5rsHMVAKYyTxpMep94wK5L8j60pVK5k5x6bF5ROahRloQET4ugLEeQEUDe2t7XdQsteSmYsDX+ycad5EJX7cfuWSuq4CAgMA1QOzsF4KjyYxIbGkUTdoWtILB+itDQ8bWQ8QvicU9bj7rorXUdYhxdpEjwUT2ui/4HBPS4Ik8sSCQszU11Na3gpcvQyVAVSX5Vm/npWVKyC01EREoJ/q2WdzuqcEjdiLRvXrugj1ZlExMIMB3Ai+/PQq9VImiVx9YsH0nWWPnEesbx/OrR3G22YTEUYlCAme/+Rdpu/tx6z9qeXndbl7+2c+wg8ySDhapZfj+wZelLU20eLty3+Cei7yV17XRgj1ujj+yt0zLcZMe4lQ40El5rQH4sV/l4OnBe7ercBcNQuZoMaMchg5m8yPegJm9X+az0upU7KhupdzsQpCzB6uetKdc/yPNJ87wpwxd/3Jhq0so64RYZxWNJ/IpO93CKdt4okVQXV1iCcvnbiI9fxwPhY5g/tLdJGvqMch9cLEDalLJ+rJbeeYOvOLe4cuJBqQSi+5lh3Zw3AyIfJg86x2S7DWU1ZxGY3DDf4gPoKWs7LTl/OJ03s+dxhORoSQ/vZukDilSGWCuZNu2rVR3qb1/A9vGryTBPYb5S/eRotOCnRJp6Rru2tfXK8zg3V3HGD97BONnLiA2+wWydFtIzUgmeloAsSkf8uWMSjS44eUoBfMx1u1bc/58bQFlTRCtCiD5r18S26CFhu289E4qZeeEbLCRK1EoALvLGIRo61i/fTBjb1My4f6xHLuzjRZkuDmLwNzMyv+dAaDoqxLSb40i2c2Fx1dM4BG9CeRiZMWFZO46H/LvOK7hcLsnE4IcCQLKj2souqD9tiHzhB2M0jE8tA3ZXkXf3419G9E+ZtAryDw18FsTEBAQuJqIOkxmRDYizKYO9JpKSqtahFUCfoXos9N4euU29udr0EuVuCslGBpryc3cT8ZpS36HoTSHjKM1GGxVBIaHMNQeKk5ksfbtLyixvvRLyphr+XTtB+w4oQHfWOYkxaKu3Mf+8l4Kle/itXf2U9BoAqkYfe42Pj9m1cNozTdpPMxbL77Lpz9UUGeQ4OQih3YNJbmH2f597wKvPpn/K2B5to56mQNzp6qZqdSx6VjPrr2jts0y89/cSl75j7SU6y0Ggrmdotof+12OTC4jSG1PuFpBkNJqzCpsCe/6zbabcH0tz+1oJK+5E5mzgnC1PcNdB7Dsl7GEsiYAA6XFRzFocyissxyqrrEakeSTvnoRr2ccpKwJpM4+2KOhuvRbtn397TkjEoDOHFJT0ynUAUYNhd+9ykufHbSkEZgrOXIwg+wmUPlEER3ig7Qln32fvcBr33Xlipawbf0iXv/6GNU6kEoMNJZ/S+raB1iV3y01pDWD11c+TuqhfKpbDUjtZBgajrH74LGLZp1W71vDtjpAlchD00YgxUDelvv4y/9tJbtGA0ofvGw7aKw5xr6M7WR3XwnAfJDUD1LJqtSAnQ/B/qEED/bB/ormc5rJ/CCbP/23gsxKAzjKcZObqa9sZu/OCjK7bl+r4bm/HWV1ZjP1ejMyuYiO2mZ2fttEXffi9A3sLehqsQ1kHtL2aYwWfetEngHcRugu2Ja1C4eoFoZLoeWwI3svslargICAwLVikF9Q1DWdXqVyVaFpuDqzdC+H602fXy9K1IFSaoutS18pQnj474uY5Gki9z/LeH73tdgYQEDg90onyX/LZ0WMDZueCuW5C9ZGsx4fJWbTM0P7OC4gICBwbRF2YRW4Okh8ueOvDxJn28ZZrQmJ0hLqR3+K/ddkFysBgd8zNmx93437oqpInNbCyjyHnhsIqJuYG2Wk5ZCa9YKxKiAgcB0iGKwCV4dODQW5pQSEeeDhpETS2UZd/gl2fPIRGY2XPl1AQODK0lHiyoN/tyVcLsERehissk45/14VSH2uA798Mo6AgIDApRFSAnpxvekjICAgICAgIPB7R1geWkBAQEBAQEBA4LpGMFgFBAQEBAQEBASuawSDVUBAQEBAQEBA4LpGMFh/jyi8Sft4EqUfj+Jxr0uL/+6wUTD780S2FybyyhyhiggICAgICFxrREGhoYSHhzJ0iC/uDpe/faTA7w0pU2cOYelcf5IHX0rWyH1/z6P0/0qY69rXcRum3hrC7mdHU7oihtIVMWwbb9200kbJ3G2JbM+/kek+gE8gr+Qnsn3bMIb02jlLMcqPh1Mn8UHODLYfT+CDz2OYfaMIZE4s2G0xQLv+e+evygu0uCZEqZn7zDDmLnAb8DafF2B7I4/EvsWW+DS+mp7GumDvK6HheXyXsPGdI3y99m0mS65s0ZeHiqTHjvD1+iOsuSXg5xdnF0NS0hIeSkom/Lq4vyuFkujpScybk0Cc77XWpReSSB5d/08+TVvGvKCfIXOtcbqb1IQ0vkrYSPpNS3nA1fFaa3RZ+D56s6WN/K9fP7e0vgyudjv1q0RC/GjL89h261usi7qVoD52R5beHsPWwkQ+eNWyQXPkq/FsL5zBs7f3dKxEzy2g9It8Voz6bW0DJZKJzBiMZkRyJW5qXzzsBl36LIFfN53t5GVryDzaTOHl7mgjkjH2Fn/um+nHBPVPeyEdYmq5P8pI/bfupDf0IaBy45EJTgQpob5eT16FjiLdwCqaNHYYr777B6bHKnG2E4FMgvMwb0ZHSMDUSU1BI6dPnqWm5dJl0Wmi5kgtOQdqOVkzIDUGjHSoL7P/NJTZSS64/Mzt26OG3MkMV3ekbUf5vGgrOzRnr4ySvxfkI5g8NYXkqRMJkV1rZa4gIhUREycwY/okYr2FlQyvCu15fFa0jR2aJlyU4dwRNoVLjuN/pwjtVF8YKazcyifFBzkzyJ0g9Szudr/8UXP2dncy29tJnNtw0Z3tfo2IG0oKqW0DhfcQ/F1kOKuU1LcK27P+pmlvZPkrv9RiqEaSZzbhhpxNX/W9h7nMSYa7CNA38Lc3Stg50I/PRsH0x4IZYgdUVrHhxZNkVtgQ+McQxnUAnVq+XLiPLxExZcMMFt90qQI7+HrZd3w9QDWuLRK87NwBI0eLVvN2Reu1VkhA4PdD+1E+KTgKtmfxm3Q3YbZueA6CM9d00cjrEaGduhhFVR9RVAUxNutY7ueIp9wZem7E3H8aHPnsiISxYxq4f5Qriw/+NqxWcUu7pUbpdW10ukixkdshG9RCm1DRrhNEJD99EytGiSjaVcBON1/mDrcFTRPp/znO8mzTObmZj8WxaqyY8j0n2WTjzf03OOImMlH+7XES1mho8fFn21tDzo+4zM2s/vMhVnbbKD767jFsvs2OjuzTvN3uzv2jFMiam1i/+jgrj5tAqmLVv6OYeS6iLmbqYxMofazv8vBqJnF4J9Q5sLOw553Jhvjx7f0euHX9oHDjX69Y/srblkPCvr7M2z7w82JChAjo4OsVh9i8x2Lx1vzjIJkD8VrKXHh413hL6oGVnGWf83RaTwtaGuLN3CdDmDDaCWcbIzXF9Xy9OodN/7PqO3EEH7wTiHN9BZs+lXDrHDdc0HNo3WFe23AWA+C5cDz/edTlfKEhw3gnfxgA+h3fcfefazEMQHWQIBkEYERnNJ7/2XcJG59NQfX949z2n4yeZTqmsOa1JQTnvcpt/0xHJxtBwh0LmTUqCj870DXkk/X1Gt766iC6XldTRTzFmllJBNtrKTu0npc+SKes67LOk5g/ewEJoYG42IKuuZKy09tZu34DeV2PUhJKwqy/cM+oKLzsoLHyINu2vMq7uZU9L+Q4jpRZC5kWFoiXrIPGupN8t2cNq/Yd6+P5SAm+ZT1vzhqBfWs+qavu591iLaAi/JbHePjmcQS7KkFbyfEjqaz7JJ3CDiDwKT78azJe59r0GBa/eYTFAHXpLPzbq+f1vhSiEBa8tYh41zay0rbQFDWF8cEqFJ1ast5/ldf3aAE5Q6fPYt6tYQS6yKGllvzsfWx8fz8l7eA0bQnv3qMk6xsNgTcEQu4XfF4/mrtu8cRYuIvXVuyiwPqsnaISuO+OsYz0V4JeQ/4Pe86VgySSR1fPJ65bXY1d/AafApgrSHv8NT61RhCcohO477axRPgqUXRqqcg/xCfvf8H+KlPvO7w4rpHMmT2JG8I88HCQIzG0UVd6gh1pH/F5UZtFRuJB3Ly7+X9j1ShaK9id9gMX+JH6I4OY2MXLeeIGOXXffMznojHcMVqNk00bdZlp/PmdHIyAxHskc+6ZyvhQD8ux8lPs3/wRad1221OETeC+2eOJ9lOhoI2zGg3F333JWx+fQD8AGQCMZy11ZRCXHVJX3BjEwscCGB2iQIGRphotRTtO8to/6s9d60q0QQCKm4by5DNBRPpA7YECPiy7TKX7zUXaKcTEPf4ajwYWk1HgSGykHcVf7ORU+FRmBIup2PUuy9JOWe7fVs2kexKZMToQtQL0dRVk7/mS9V+eOv8uXMKYc+90Jg31xEkO+rMaKgoz2bh277m60x8ZRcQU7ps+iohAFU4KMUa9horjWWzcuIvcLsewrZoZD8zjjmgVaIrZuauW6JQ4AjjF2gdWk6GHS9X57jQa9YAjiH5ONETEnoP2dIxpYsIEHQ4He+1s9ytF1NVGixjEIACxBKmQFXBdEjQhmLleRsqbzTh4qbjv0WEkO18o5z5uKEvjFLTXNJOnAXcna3NvaKeoqJm80rZLfryyqADmqY2Ua0HmpmLRfD+iRYDJRHlxM3lFrdRbW72Wai15Rc3kFekp72VFuP1BS5AIOk4pONy702/r4PgZHXn11tbB3El5ha5nSkCnngOrD7Fq2SlymoCmWjYvO8Sq1RXUdFpEpGFOeNoArRoOHuh1kc5L3Gh3TMZzqQNNFxv4+3jz5H9juO0mJxR6LeUN4DLMm9n/HMfDN/UaxbqomX27jKYaI1IHJWMfDWe6n+VQR4OWkyfPcrrSeu8dHZSfPMvpk40UlRkHaKxa6WsQXVdMdSfYuwZg3/uYVyBeItDUlaAjgKSHV/PEzTH4SbSU1WnBdQSTZ73Nm9NH9DzPJoaUe5MJd5YilakIvvEpXpwZYz0YQPK9L5MSHYp9WzHZ+flUG10JjhyN/zmrI4CEB/7NEzfH4GUPBqMUF99xpCx6h8Wh3XKL7Sax+Mm3mR8Tipe9FINRhotPDAk3xqDq41Zdop/nxTtGYG8sYcuGRVZjVUrw9NW8OSuecFfQ1FWis/Uh+uanePOBFLwAOiopLM2nsFxjfe4GqsvzLb+dqWSA2SlW5Iy8cw7xftBUXkFFuxwPpRQQE3DnI7wwZyRDXaCppha9rQcRE+/khb/E4X7ufBWx0SowinEfncSCm+To9WKcwsYzKcLSkUnCknjhL1OIDVQi6TSBUtWznM5m6korKCmu5az1M9PXVFBSbP3N+pEpIu7klSVTiA2UQ3Mtde1y1FETePSZu4l16v8dS9ThTBrrj4dNK7XFpZTowD10JPMeTSLa1iITcNs8Fk70x8lWjMTJn/gF04mQ9yynPzLdcR6bxIIbVRhqKyjRgLOjVdhpJI8+M48ZUR4o2jVUNINzYCS3L1nCAuszRDmShxcnERfkiLHqFLmFGnS2nkRH+p7PKe+PzIVP4/KmNLt585c3h3NzhBxDWT05uXp0Dk6MvtERZdfg+wq1Qbh585fXhzE6UIJUJsF34nAW3u7Qt1523jybc4Xy/3/quTiFEDtEjNFGScSddzLD04AeOQGTJxKrAEQq4v/yCA9PDEEtaaOiphnc/Ymb8yAv3Km2FqJixsMLuD1ajaKthty8CurMDgRGD0V9zoHRHxlwjxhFXIQKSYeGkvxSas0qAm5I4IkFsViqhpjoefOZd4MHCokYqSqE2+eMoWeWXH/r/KUxHCrirWcPsWarxVo+szWHVc9m88WhCxup+jwFRWZwCNcx8rfhYEXs4iSjTTsIZ2eF5TsaJMJGBEJOwHWIpoLFjxey18aFFf/4A8lurswcIyV9e0/zRmY8y8qnc1hdagZEBHmJLaH4+hoWP11jWSXgv8MY+5PXquLJvxaQOXgIu1f446tWMlwB2dpmVr54iJUiJS/+M4a5XiYy0w7xYGbfH8zwwDZkiCiqtL0gHaCjqoY/ralBFuzHtws8cNM38NyaMvb2KMrM6R0VnD73t54f0nv4NJC4SCwdR0s7Tf10yvZJp5bND+xjs42C2VtuYe6wC0WGzBvGWDfQf3OERxaWUdMhYshfx/P2AiduTfFm4zcV3TwuZ9n8wNdsOu3G4t03MsXNiaAIoAya0o/wWDpIk8ew9SUPKCvmpaQCygdiYHdnkA9etgBGOjq7eS6MxZRpINbVB3+RFP9bXibRX8v3W17gG3dv7DFQWnUaadgiUsKUoNnBcy89wz4d2IctY/3iRIInzSZ21zGyusoUSdHse4TZn5xk+F0befVmH/xGxRO9+SDZNqGEB0jBnE/qG3eRWgcgxSUwClmXWsHJ3BOhBGMJ6W/OY12hK5MfWM+zo3xISEjko/xUqgGvuAUkuAO6Y7y7ahGppVqk9iMYH+lwwbck9ZnL36fH40Ulu//7CKtyrbvV2U0j5aakFuAAACAASURBVJZQpOYS0lfMY12xFhwTefH5ZYwPTybRP511pak890oqqBaw5uWFhHOUj954gC293coDpWovz7y0hQI9IFLi7tIGykjuuFWNxFzL5y+tYGO+CZxG8sSKecRGTCQ+aD+fWU8v+GI1b5nnse4ef0q2/4tlzXfy7oIQ3N0sBtnkmXGoJXA2O42n38iiKTCBV/42hYCIqdwR8R1rc0tJe+U10kT+zFu5hBmeJnLT3+D177t7TVVMShqDu8hEQfoKln1Wi1GkYsYzS5kXNpIZN31J1mf92/nPWJdH2mu72HdUgxFAEsKCfywi3jWc2GDIzvNn/A1qJEDd/nd5esMpfJOXsHRaN2tU1A+ZXkgMxWx86V98XmYCxLh7yjECAVOmEusC+uw0Hn8jizqzmIDkJaycqWZy/Cg+zM1C7xtIoBKo+Y7Xln5MgRkQyQkIcaCp6wL9kenCbMRgAsTODJYCbf16dOcJcSXQGags5qXbjnOyA7CRMCTWlkZr23Cl2iDFLX6McgZaG9k071s2t/qy9P0/MHqAKg+Ii7VT56gl4603KL5tOY9GN7N77XKOT1zOE7EqPFxAoprCHRFyaDjM60s3kqUFRdQcVj4ZS8DkSURv3Ug2aoYGisFcwccvd0URxDiFqpF2dZWSfsgATSd28vr+E2SVW1+k9xRWvpZAQFg4EZIs9ksjib9BBbSRm/YGy7ebGL/kSR6O7uYd7Ued31h0XtxgsijgonBHSlVP50VZI1+XnU/na8qqYlcWfaOxpagNwh1bCXeFvZeZXXA9IXbwGcJFxlQC1xn1x+rIbAdoZO8JE8k3iQkeLEeGoUcH3nLkDOtLu6w+M0XVA/fXdZQ1c9gAHbVtlJvBFzEOtoD2kqd2w4y7s6VzrGv+mTOKrgtkRP7B6l3w92Pxfy0jeqmDpTOVBrkQJKsgp0u8pZmTpwBTK7UNgJsEheJKjwa9mRh8KzeoohhnD7Qd4WD3XtRcwplaA4R542UXyuBxkxjvaUB6fDWl7j5IzfWUVWvxGx6JC4AslOQHNpIIYKNEKQLsAghWcd5gNR9je8a36MyQlbGDwvELCHYOxE8J2c2VVDcBnqGkLNmI36H9ZB3PYF/+QbqaWa/gSEv4PX8L6YVaQMvur3YzPzoZr4BIwiWpVBuVRAcHIgWqv19DaqnlwzPojrH7wIVPIfjGRMvxnFTeOtgtrcA/kuF2gNGB6KTVvAGA1HJ9kQ/Bg5VQenW2Ys7P2GkxVgHMWuoagKihhCoAox0Rsx7kebNFHw8RgIoA//OGmaG1laZOi6tf19qKQW/pNO1tpec7XLR8tz2LOjNQtIcdeZN4OErJ0DAV5NZeWklbf4b6iwETzqPvZmmEAZBi72k5rPZXI8FqgF6KqlMU+MRy572D8XEUI7WR4y4HkOPsJAaFLwHuALVkfZXDWSOc3Z5J8dQkhnZ5gPoj0wt9zn52lHUZ4SbqarSAkoihHpafvMfy8DOjAJAqLbP3JWpfAkVZ5NY10GQEd884nnzRge9+yCM7O4fs/G7Prj8yXfxYwP76ZsZ5B3N3zJN41p/iYMlWvu2v4Vqto6kDPH2CePZjOw7sqeKHXbX8cKCr4b1ybdDgofZIAcMPxXxx1IyBMjbvCWP07X3MOOw00lijp8kOGpsvp/26RDvVhdmIrtWIXm8Es4lWPehbTSASI5GBemiAxbMpUzNj8SKmAogcLQ4LhQcBbpBdo6GuEfBWc+ezS/DNOsLh7GNknSjl3PSuzn7IAGfzSjHcNJEF01xxtpMjtXHAWQRIHXF2BNwDUdsC+lPs3FWL0QwZu3KYE93lgQWG9KPOF53/QM7UHaUo2J8g9QO8Puh7TmgO8F554cCjbiYbmlsAhQn3n5EOez0hNpg6sTEb0Te1InZzwe7HTkyCd/W6pLndfM4wbWk3AmJk8gvzXJpbBpB3djE6rde6Ut/C5XoO+4Gx0YgeUDjY4iyDPmd2XQlspNjbWf6p8HMh0q/XcTubnnlrHZ2XF9ofCIPU3BB4KxMlQGcdB4v3crTHs+6gtKYeInwYPHgYfs5adDolfr5R+Du7QedRzlSDMsY6bLUPIDy090WUFiOpq9zOFjRdOSUtDdYxjBR7GcAxUjdtwG/+XGJVI5g8ZQSTpyxEV5zKc6veILtVioudpcPV6RrO58Y2N9AIeEmUKGWA0QF7O8vTbNTU9+9ZmEEakUyK/xbWlVqevNTO1ZIKIVERHHphIoFM5gBcDYO1jbPaC808iZ3c0rlKlASEXhhaldraXbrOicRgI0chB8zNNJ3rYY00aS3tglThCPTHYLVDIQUQ4x7of0F4UiHpbx6dnIh7l7B0skef+aYSiQQkYkv9MLfR1DV60TbSZACsKQP9kumFXtt2oUEtcsTeGq9XePoT4dlbJTskNkDDftanBfLoHZGoAyOJD4wkPnkWFXs2smxDjsV46Y/MOZo5WLqXoy6JRCmjiFcGQN0ADNbiUtb+w4UnH1XjO8yb6cO8mb7QTPmnh3hqaRVNXLk2yN7O8m71DR3nPLKN9W1AHwZrRz1rp3zF2n7exgVcsp26CGbAegcSMdgrrTev9GBomEdPWZEEe1vAXMEn/9mG+sEpRLv6EzfNn7hpSeiL9/L6K1vI1fdTRqJmzrIl3B7YVx0QIxGDxNbOUp/bWmjqup+zzTSZOWew9qvOd3fFa7/m46oYHvP1Jkx9K2G29XxcXshlTZPu0uk3sjiIuDC/wPIvhSfBIqCtnQ7BYL0ucXeSYrHHRLhZ81I72q6AcXq5XPI7EdGstwE6cVSYgavjZTWcOEtNp5ohdipibhTx9Y6LK9aBJU0Cm8vQpdOAzprbevIfO3jsX1fLMh4APx7klV3zeMd1FstHJxAT9idm1D1D2rmYoIGyyhIMohj8RkQSwkm2fe9G0uBxhNlKoaWEslYD2tYWQIUh5wWmr97adyfXtYanjQMqe6AJcHBFab2Ozvo4dIVreOqpTbj4xjAmchKJk+IJDkzhobgt3LerhMZWi4lrb28xJhsBHF0tHl6jFm0HQAu6Vou3z0XlBpT85GOo3vc4r7cs5NXpASTNmsvW1zZQDRhategAl+YdPPXkM2T9km1bH9cytrahB5zOZrF8URrZfcg4TetH2Z1t6NsAhRxnJ6AKQIKz0tIuGLTNl9QFgPZWjJ0AtXz+3HI2Fvfj2n1hG8bUcRZjtWLPRl5Pz6FCr+L25UuZ02VUGU3W70psMSYbAakcafeq2B+ZC+jjazU3o7PWgYK0pTzz5cVCQyZKdr3L4j1KAsJDiI4ew7SJIagnJjLz6xxrqLY/Ml34c3dEIlG2rRw9sYJXygrPhfL7h5nT7x3igfQchsR6MHqiH3+8ww3f24dx+9YqNmRduTZI12oCZEiVEounFbC3u0oLEF+yneofutZWQIkxeyMpKw9f1POvP7GL5X/OwCkwhJEjRxM/eSQBgROYN3kfj1tTXC4pEzqeSdYoRtZ/1rH+mwrO2sbx/Lo7ibBex9jeatFBboezDZZ65mRn8cJa61x/6nx37L3+H4/5eiPVfc0LP7zPt/rLXUnBjEwBmG1o+bnpTdcJliCL2A53DyekQIdOd9UcVAI/D4doX+b6iJANVjNvuBgwU36m7Rq9r046OgFEODhdPKO7qFwGmHH37uhr3H5lKKvmwAkzIOPmv47itolKPIe5cPNjMTz5p+5XNaPXWnoPj0D7y1iov4OTxywd35A/BhPZ5bWxEeE5MZC5cwcwQ+VckVYPiEKGy2WPgo00NnxFRjMwyB0/Rc9OR1ddicYsJSQ6Bpe6Y+w+lY/BJ44x7kBtCafMUFaUb7ENgpNI9j/vBbD3iSdleiI9NkQThTJ5UgxSlETfPMky0G0qpkwL4EN4ZAwuEi2N5Rls+/J53jpgCdHbO1tWgKjOz6HaDARPIzlQCfgwedJkvERgKMkhzwigJbvQYj153TCflC6d7EaQMH4SLvSksaaY7J1r2NcE0uC5PDTGutTDmRxOdQCOMSSOCz3vfbIfweSZCxnffSaaqcNal9xwuWCGWhcyombcxZ8fTuGhxNCBf0OniyluB5zCiZ/YzRvppCbuzinE9nc+i7GYgmIToGLMlFjcRSAJmkh8qKWDLcjv7jU2WY1SUDj1ygVtLyW3zAQiD2KnRFqWlwOQKBk6OYkZEfQPG4nVU9tGSXYOFVoTKAII7b5RiL6ckjpA5MnwaIt3zGlUFEMlA5TpF1oKii0e5sC4qUR0WynBPWoCcyZbJ+go1ERHqZAYtZQcPcyn//mQ7cUAdrirxP2XOfccfPC0AzpPsWfAxirg7MToiQqkrUZO76ng/5Yd5YsTALZ4usKVbIPOFOgwAIoRHpZcVjsnbhx3kS9a5sHi3fF8kHkLryy83ElXP91O9YeK/ArOApKhNzEj8Py3rPCN5PY7R1q/XyVDR4fgJDFxtvgEGR9vZP1+S31QqLqiLJeWkdhKLPXTWE72txWcNYIk2Bff7t1deTnlRkARxqQ4FaAk9qYoeryFAdZ5T4U7UuBMzf9+hrEK2BvwdQTabCmsvqT0rwLxsNChYGODaBBgaKJGc7kryQtcbTpEjiz95wSWdv2gb2Drd/0NOouYOT+a+0MAsdRa6ZQkPzmKCQagsoIH/zmAVfLN7RyvMMFgMWNTxrB7UhsdBj2bVp4kvVtfWX5MQTk6fIe0EiSy7//yQAOhU8/mfxRy49qhDPHxZsE73iywHjr5j5weoid+aMQw3QPpTdH8e3cQja1maj8/wksbtHjO+QNPzHZECrhYvUJB94/n7dlARwMfzj9O5qYCMuNHMTYkiFd2+9HUYEbqKkMhg6atB9g0QNUNBc2Ud3ozxCeQZ3e5UNNiRvfNcZ7+x0ADQDrLZA+A3qt8VJdQ1gmxzioaT+RTdrqFU7bxRIugurrEEpbP3UR6/jgeCh3B/KW7SdbUY5D74GIH1KSS9WW38swdeMW9w5cTDUglFhOw7NAOjpsBkQ+TZ71Dkr2GsprTaAxu+A/xAbSUlVmnzhWn837uNJ6IDCX56d0kdUiRygBzJdu2baWrba3ev4Ft41eS4B7D/KX7SNFpwU6JtHQNd+3r4xF0ZPDurmOMnz2C8TMXEJv9Alm6LaRmJBM9LYDYlA/5ckYlGtzwcpSC+Rjr9q05f762gLImiFYFkPzXL4lt0ELDdl56J5Xzq/3YYCNXolAAdpexcJH2EJ/sGk/ETDXR9y4l9TYNTTji7iQGcykbM3aR37+C2P3ZfqaGTkA9eg7r3puFUSJGAuhzd/JJbrfIi7mG4qo28JUTMecpVt3cjNFYy463NpLRqCFj6yHil8TiHjefddFa6jrEOLvIkWAie90XfE4/ojhtJeSWmogIlBN92yxu99TgETuR6O72j7mUfd/XMmOmB0Pv/DOrIpux9/fsafT3R6afFGzfSdbYecT6xvH86lGcbTYhcVSikMDZb/5F2m5AGc6cxxNQt9RSUdWMztaL0EDAWEtBV15sf2S6IRUBJj3ay2nr3FyZu3Y4vo1aysta0SmcGDYM6NBy4oRF5OQVaoP0X5Vx6FEPxnr68eQWJac7lAzpnWLQhY0NSjcZznYydBcdzPWHn2in+oHx6E4+OxHGvDB/5ry0nJkNzRjlKpwUQNVesj89DCIVcXctIv5+LRXV1TQZHPENtkyMqigstxTUDxnj6QIK2kcSbRvCjAUJKEqlRE+N7WmManPY+cMfiRirJHrBUjbdAQqHXoOYftT5HlijCV2Try4XWaie4SLoOG1H9lXPTftlEGFjA50GWpvrKCuuRncNI8wCP035ngJWft9Ki8FMS7WG9W+dZFNfiet9IsLRx5HwIEfC/eXWiXYi3AZbf/ORDtADamZn2knSj7fSgpQgf0fCgxT49urDOwqd2FsN+LUwoc9tWa8MhgMneeqBY+zK0lqWpOow0nSyih9yewaN9J8e4630RmpaRDj7OTFkmAuBXpYWQuLuyLBhTgwZ5oRzV56Yj+XvIRFKy7IyZRW89v8O8n97zlLTYYOzpwRa9ZzOKuOLry5jpbuTxWx4u4rTNUYkPhZ9gvwkV3ZbRGMJZU0ABkqLj2LQ5lBoTcCvrulafyGf9NWLeD3jIGVNIHX2wR4N1aXfsu3rb+kxQO/MITU1nUIdYNRQ+N2rvPTZQYun2FzJkYMZZDeByieK6BAfpC357PvsBV77rmskU8K29Yt4/etjVOtAKjHQWP4tqWsfYFV+t9Btawavr3yc1EP5VLcakNrJMDQcY/fBYxfNOq3et4ZtdYAqkYemjUCKgbwt9/GX/9tKdo0GlD542XbQWHOMfRnbye4eKjMfJPWDVLIqNWDnQ7B/KMGDfbC/okvCmChIf5tl72eRW6UFBxXutkbOVpWS9VUmuQOY1Gg8sYVlb+4iq0yL0UYMeg0F33zMsn/u7zW/wkRW+kfsOKFBjxK1n5qAQA+crB+ZPjuNp1duY3++Br1UibtSgqGxltzM/WSc7meHYK7l07UfsOOEBnxjmZMUi7pyH/vLe4qVbN7A2m8qONupxMMTcj/ZRZZ+4DL9ovEwb734Lp/+UEGdQYKTixzaNZTkHmb791bFtCV8d+AUFSY73INDiPCXoy8/wedrN/J51/i9PzLn+Jkh9fpGDuyopdwgxTPCg8gQCfpTtWx+9jCbu9I1rlQbVF/Fm0+d5IcyI3gqca4rZlP6db7rlLmWz1e+zdpdJ6hoNCJ1UaFAS13xCTL2HLFMPjRrOP59DrmNBpzVgUSEqZBoK8jaspE1+625ov2Racxizeq9ZFcZ8Yidwpxpwei/2W9ZJeIcbWS9t560H2rRG8VIqSHjsywqzECnyZqtcuXq/EAYO1KHAzYcPuBE+aXFfxUM8guKuqZbBKhcVWgars4s3cvhetOnx8YBm79j8ge/vp1Bgm4rZtufdBS9H0pC+lXbofp3joT40RtY4gFHcx7iifJf33ciIPCrxzaBVZPuJqzjAEsz1nBQ2ICnF7+9dkriqUbdXkPJWeuyatMe5J/3hCBp2M/zj35M7oA87RJiRvyT5YMdOXHiURYXX+bUfqmOVRuKmIkrix9S89nlDPiuQ34jc8cErmeKtnuwNUFH8q0axm7xIvM3Ep64vjBSpm8C3AkL+gtLlKWcqdnCJ42//g5B4NqicPXA+ScW7gfQ1ddy9vecTWYbxR1+4Qx2HkfYIKCtUtiWtU9+e+2U86hZrJzjj1GrRd8pxsmaJ15x8Afy+22sSgjyTmKSkzcxXo5AKzW6fodPL8BtgoYJzjZkv+f+mzFWQTBYBX4J2hUsfzGQTD9otqXPSb0CP58TxWl8Yj+Lqapw4gPDKTLu/VV3BALXAyom/Xkp84J+SqaN/W8u5a0ffsf5ZLbhzAxKwBMjjdqj7Dz5PwYwI+B3xW+tndJXlZBbpiTQwxEnBegbKyjIymBjemn/1i+2EuyTyB0eYDDUceLMVj6oH8jZPbGtcOZvK9zJy/xtRTSFlIBeXG/6CAgICFw7xKgjIgn4ycnnJurycii4rIUiBQQEBPqH4GEVEBAQELgIJipyD1NxrdUQEBD43XNF578KCAgICAgICAgIXGkEg1VAQEBAQEBAQOC6RjBYBQQEBKxIp4/i48JEtn89nGFXbWs2AQEBAYGBIhocPJRh4aGEBvvh4fDbmlEmIHD1sGHqrSHsfnY0pStiKF0Rw7bx5y2cyFfj2V44g2dvF4GNkrnbEtmefyPTfboV4ePG7DXj+c/hGWw/nsAHu8fzwkuBRPpceDWB3zA3Duc/hYlsPziKsVfNSDYz9rYydr+XR8EXRyn9uJyZQnOPbGg1+784SulnufywroSlMX3spdq7/voE8kp+Itu3DWOIzS+usoDA7xaxUmatcTIFrr6+UFJMbauwgJyAwE+icuORCU4EiX6kvl5PXcePFOkGsEK0zIm568Ywe5glyGFoBWc/F0b7KdEfKCan8irpLfCTGBrOknNAgqRe+9va9c+5mUV3NxEklZK314PMSgVFv6X7u0w6NEo2fSwiaGgTySOaue8eDVsPuV+dLaQFBAR+FuLOlipOV+iw8wlE7SjDWaWkvrUFob4KCFwcmZMMdxGgb+Bvb5Swc6AVZtRgbh4mgtZ6NtzzHZtzzUj9XLj1viBcfr1LEv76ySripayia63FFUfm3m7ZNrnameVveZEpNPAWGuxZv8keXMUEv1tOtMqArxjyhLWiBQSuO8S6s80YzT/S3KTF09EZsUKBfFALesHJeh0hJnbxcp64QU7dNx/zuWgMd4xW42TTRl1mGn9+Jwcj4BSdwH23jSXCV4miU0tF/iE+ef8L9leZzpUTMHkW86ZFEuouB0MbTbUlHN76MRu+1wBi4h5/jUejxVTs/pj/396ZhzddpXv8Q5qlaZp0SVfa2IXupRRZtLI5bdGyqYBKHRzKzAheBnFwEL1XcEQZREXGZQBxLnidgoKVUZZBkBEQWStLtZRCgdLFrmlJtzS0Sdpw/0jKWiRFlGXO53l4Htqc33ve30lz8v295z3v+dYnhWHxHmAo4ssVmaz6/vyhx569RzL5kQH0DVWDyUDBge1kfrSL4o7TbhLG88ELSXjWHWLVN0qG3h+FFwYOrc3knU3l5woqq+KSmfzYEPqEaFHRQoPBQNG+jbyz5igdB3TIuvdl/G+GMSTG337PZSfY9fmnrMr5mQ5h/hEUPULY/aQ/vh2/UPny/mv2n/K/yGXkTrNTduRecrwBmoycOmVXD5bSOja+uP/ihhpP0mbFMzZFi04DpuoGDnxyhCXv150bH2KjWbQ2lh7UsmJ2HbFPhpMYIoO6Wj75rz3kjk7lrxlqTP/ez+NPVdrPbYiKYNGGnvRoq+W9oXvYWH19+vokz8mBdMqOjNgpPZn0WHd6BMigycix7YUsn1/KqQuPTA/y5bH/juX+gZ4EKNqpL61jf9Yxlq5ocJxRcXU7qoyBrPmz73mbFYU8m3aEY463Uz78Tj78Wwhe1UW8MPQwuWZA4c3ULUMYFWRl7582M2+jzTmfQ/yZNK8XaXcqsRSVseKTTpahrzcdBQybXeznrXcQPpJ356Zhzc7GEtePYONBVm+HYY/0w78ln8zXP2Bzpb3pT59fnGzjk8j4x1K5O84ff40SmaWFmpKjbF71KRsKHee8oyTh0YlMuj8Kf5uBQ5v2YkodQ6rPxYcYOD13NElpBHA5i0hdFghuTiRms0OZWixYzwIucmQiL+emxWvAGCYN1GLRl1NsAC8P+zFwqoRHeW1GGknhSmjUU9OqJLh3Ms/MepwkR9FvWcI4Xvx9Egl+oD9xgoLyJuT+cfSNVF/WT/C9YxgW0EJNI6gConj4qcdJ7bATN4ZX/pRGUrgaWXsbqLUkpDzKK38ajN+lhjz78miyhvrTLchU/iSlj2a4j+M1dV+mTh/D4AgPrJUnyDtpoNk1gD6JOlQXXP/MrIk82NsfVauB8kbwCk/k4RkzmJRwA8oIt5g58kMz+R2nkNjaKStvJr+8+aKUgB/W5fLuizn866AN2k3sWXyQd+ecINdx2p7llJGydiAgnOczezF2uBrVpZ87FxWjlgxk+sO+6BRWykpbIMCbXz07iNefvfw9w0XLY69Ek6hupeyoEZPKFXcVHNtZSz2g6uVzbiORqp8vOhfgmJ6Dtdevry7zI3Z6PDuQ154NITYA6kqNmBRqEh++k9eXhBDQMVZevkzNHEjGcG8CNBIs7S54RfmTNtoHb5cu2KkzcuxYA6dKOz9dxrJHz7EmwNebxCjHL0O8iQ0AztRxYI/Nub5cVIx6/W7GJqlQKSR4RYUw/b919oeXy5AxavVoNp0czabV4Xhdw/CeH+eO/3S+zzasfzxebVZUuiQmTUhE3mJF5pPIsF8FA9dvfnGqTXA8qQNC8Xc5g76ohOJm8Ivpy8RnxtDH1d7Gc/BEnhsTR7BKisxVS1L6Awy5dBCvZe7o7Lvv0s9vvZ7P5xzk3cXlVP8CzxoCgcCOFKUfEWEaTFX1jjSAbrh0u8FeCa6IzFJE5rz32VDaBkjxC1BiRcvwMffgJ2njeNYbzFmvxyrR8uCs2UyM68uD924ke70B/5hgPAFT9ipmLrZHZVH5E+3fyRq0YR9vzlpDnkscU1+bQqpPFIPvVrNtCwx9aDDBMmjIWcULb2VTHz6S1/6cRljCMB5J2Md7eRcmx5Wz4Y0FrKqMY+q7U0j11BHeQwqn20AXTrgaqN7HgtlrOG4DJErCojR0nKIcljaMJG8w5axi5lvZ1NikhKXPYOFDwQwd3o/Vedlc9ajkbmpmTbmbX1/pG99YxtTFx9nlxKqCubKa3y2pRhEZwu5J/viaTvPSklK+vmSJtT67ki3ZHT/ZOLW5nFMXNjhWxPIVgbz4O0+8eocz6W/hZFTo2fjOYVasM2EB5Pf24NdJMqgoZd5j37G3GlT392LRknB6pEfQf+l3HLjorZNQt3Efz87WU98O+KoIADDpya0P51cOsZWbJyExyRs5cCpbT3U7yFOuU19d5gp2fIP59XhP5O1GPv/t1yzPtkFQMC+u7ceApAhG9S9leTYEjI/l/hCgqZYVT+3nk2wr8gBPBqTIMLc7b8e08TDPbrRXCfj47WAu095NtRzIszFgoIbYfgrIM58T/ZbDevbXO9lXXSBpd0oAMwf+spNX18kY+8EQMnpf0+A5jcbPYn+YtHSjszUAa96/mPm5lvlz0wjO38gLH7rx4sKRBPv7I6OF1Os0vzjTxlqTz6oFW9j5vcH+uiyKSX+dxnCfeJIiISdPy5D74lABDQcyeeHdXFQP/JHX0kMvuqeuzR3dMLcASjM6LVB1oaVLP78mDmTdRge0CwS3CFLOgu2sDZtIAbglMOXuYnNphyBso6baCK59iQ6VAm149X+c2QkWQI67Q0EEhwYjw0B9dRNWQJU0noWu8Xz7fT77DuZzvOjy3RcNR3LJawU4QfaxFlIHK9HpAkGmHdNa7QAAIABJREFUJDpcChjZtynbvrxYuJ3N+alM7a0mOk4Lefrzhpr0FFQCVgP6RsBTicoRJaHmNPVW8AsYzPNzNew7kE9OTi45BR3Xq0mI9rf/t/sAps7qB4Bc7QGALFhHuCSbvKvl4521YWxo4Yr7mJot/PIpa1Zy5+/gyW9C+PXvIkgepEYV5M/YN4fgzVYWrLOi6+9rj6q5efPw2wN5AEDqihpA40GPEDhw7AKT7Q38O9Mh/ABqTY7zzGvZ/52VX6U4xNYJFb17yQAjud/Yl0avX19d5Ep2UnyJ1QBmOYnT7+G16QAu+CsA1PSIkkF2O4l3eiIHqjcf45Nse3TUUt3AjlUOewnO2HHmzG4r+3cbsAz0JaKfFvmH1ST2t4v+Y9l6+wOWE33J6zztkdb6ajZmmbCY4fNPqnmsd3c627TfXGuivhrMddf2F+rby8DTA8/Qd1A9ClzI2a+mrJN2ltYWLGfaMAHW1jOYTNAMyGQy5K6h121+cWoOqjzB8aAkHv39HQR5SJG7KPFTAijx8pSCLJjwQAAj+7Ycss9BW77h0EOhJHXMLV2dOywqvj4sZ9g9zTz9Uim6Qyr2fuHD+ouEq0AguJFIaa2h6HgNyLWEA3CWdiFeb1pMxhYu+3p1dUMlB5DiFx562bK8SmZf/jLtWcOSuCeYPDiY4D5JBPdJ4uEJBrIz3+fN7fqLrmlu7Yh4tGE1nwGUyFyVyFyUqJSArZH6ho7WVuqNVkCKXOUBXGDLZsXaIUYuXT47vYtlq8J55pFEgsMTGR6eyPD0cZRvz2TO8lwaJB7nlodVAaEkXBrCk7rZ01euuoHExKLVe1h0tWY3gPo9pby3p5TlUf5MevtuRkUpGPC4Dq91Rbh7OSSMl5rYfpcsy7u4dLIEb6X5dGe92Diwpw5Lij8R/bSo9rjZl7KrazngyDm9fn11lc7tyDUye5RToaBHP9/LX3eTABJUHvYl7vryziNeztlxjvqdespm+tKjlw+xbmeIu1MG7Q3k7jQ535dZggygvpU6h0aznG6lDjqJUFvZ8cev2OG0h5fjF1tHxgi7f00ntWTu/pFaVm2diGIXGbjKrtv8cvU2ShJ+P4PZQ/3t43QRUmQyGXQ2B1mM1J8BOgRrl+cOF7Zv9GFvTDUDgutJDzbBQSFYBYKbCalC0Q3MZ0EuR9YNaLOcFxiCm5BOvlRazzjeMz0bXnqVzKIrXGozsOvvC9i1yp+EhDj6DBrC8N5aktKH0WdXJjkXKGEvDw0ywIoUTw97VMLa2oK1HUwtgEqJlydQCSDDS23/erEYG7twL20Ub/mA6dvVhMVH0afPPYxIiSI4ZTQP7cgls7CRZocOOb5qNrM2XusmKzVPP96LsZ6dv2purmTOimK+/SUf1BQS5GbbuXfTckLP8o9ruf8Vf+S+bgQooLnJAiiwfHOQcZPKnYgC27BeoVSR6Rs9p2b5E9vLh8SBKnQuYDqoP7ep6Hr21TU6t2M5Y8UEyGtLmZP8HQc63csmwdRoAyR4Baqgk8Vu5+w4ySk9B0p70iPEm8QUM4kBQPlpDpxwvi/5KBtWQO4mw10KtIPcTU4nWcLXhfysSKI3t5I+rYi599Twl4kavnzTvdO0gCtyPeeXq7VxiWPYILtYLd+eyZtZuZSbtDz86mzGhzj6aW/BYgFclXhpsM9BLmq8LtwtZevi3CFp5ck/VDPAy4WcjyKZvlZJmagUIBDcVEjcPT2QSaR4eKmRAu0mEy0iwnpr0VpCXmkbSPxJSku0l1sCkKmJHjqGBxMcP+riSNIpwagnb+/XZC7ZQp4VUKnxd73YpKp3CkO7S5HpBpMaZ18OLCurAmuRY/lOyz1pSfhJQBaRwvAYe5rA8QIDTqMKpk9vLTKrkeLvD/HZ/61mUxGAG35ah70ie2QmfPAwEs59q0vx653M+KHBzvXTDdQaJT4enf8L0sg7XY79OZGn9OSvK3uSdq8KuQugUDAgyb68TV0r9W1QdrCOekDeP5yx/c5HAlUJ/jz2bPD5DUPOUK63CytfXx5+wBs5VnJ3154Tpte1r+vBd7UUngF8AxiVrjr//gR48qtnIxgQAGAj9zt7iC1geCyPdfjt60lahiPFwSk7TtJu5EC2CVw86T8xEJ0L1B/Uc6pD/TnRl+VEg32jjq8v/e+0R4kTU7wuz5kFQEbakvv4eO9w/m9J8DVvujI3uZK1VUMToPFvRddVA9dxfrlqG5eOaG4LxTm5lBvbQBVGjM8F/lirKaoE0NI3OREV4HdvfxIuGsQuzh1SCxF+NrC4k7VeiFWB4GZE6qLpTlSc46ezZuoNRlGD9ZbDwLZ1Bxk+Iwm/wU+wtI+RGrMUL28lMtrIWfovNtCGPDKF5yaF01Bdjb72DATqiJYBlRUUXLKiapWEM2nhW0zq+IXpBLu+tUcptq7fxbCYZIL7j2fph+OwyqTIAFPel/wzrwthN3U842eOJLhJT3llI82ugcSEA1Y9xx15usc3fUn2gIkk6Qbz8uJ+NDS2IfNQo5JBwzfvs2qrE/2cNTJ/6VbmO+/ZL4ALAUnhTE+KYHq7DQsSu3DFSu6/quyiZtsJPjvYnUn9vMlYPYqHq1uwaFR4uQFFxznwThe6azdxINtIRqya2ATArOfAzvOfdMv17Ot6UFvJJ6saSJzkSf8/38enU0zUSZUEeEmgvY7l/7TXSq3+9DhbHr2HtCBfMlY/yGNNVlDJkB89wu8/rnXOjsKbjOW96O8BuKns4tFHxzNrfLBgQ7/pO+a9b//bP7XnNPXjVfTo7QlY2bvbcD4a7Uxfp6r4+rs4evRTM3ZJMrGlEu6IunJ5BZm3Ci9fwPsnPlKZXGgENJJrmd2v3/xy9TbF5JW0kRCupM/YcTwcYMA/KYU+Fw2Rnl07TvBQeJTdn4QW5J7Ky1IIujZ3nLWX/mqR0Cq+AAWCmxKJ0dyO7ayNdouJ02Vl4pSrWxRTzipeWPgFuwoMmORq/NQyLHV68vbuYtspu/izlOSy7ftqLK5awuOjiHaH8qPZvLfoXxRfMknrv/mUzAN6TNY2TNVH+WzJx2xz5ItZj65lzttbyC41YnWRgsnA8W/WMOdvu6jpitPGYvbtOUF5mxt+kVEkhCoxlR1lw3uZbOjYwVN3iHfmfsBnB8qpscjw9FZCq4HivENs+raz7SO3BpaDxSxZXk5ukQmTWYIcG/VFtWx5Yw/zPnR8u7eb+Py/dvLuKj1l1e3IfFWo2sxUH9OzZY2+yyV1Tn2jP78x6pie/bUXvHid+/rp2Dj2xh5eeKOU3CIzeKvO1Vjdm1VEbofvtXrenbiPT/7dQHWTDbnKBWt1HTs2naau3Vk7MgLiPOkR60mPEIfsUSjQxXrSI9ab8MDzUsiSrSe3o57qmVr277nwg+NEX+0mPv+fb9l40IRFpeIOTSOfLS69tg1r18i11Bm9XvPLVdvY9Hz23sdsPmoAXRLjxyQRXLGTXZd81Gu2ZvLO+hPUmEDleoaCTVvIrgNoO58rf5vOHQLBfyrdQiJ631CFqvXRYjjdhWXkn5mbzZ9flgsODli/gOlZ5TfaIYFAcB1QROvZurAKXY0/4yffBiddqfwJ82iiuNJ+kIAsfCSvzUkjzKWcz15YwKqu6lG/03y+rJw+zT5M+V0wX4qUAIHgpuMGVF4XCAQCwS+JuUpOYSvo/OqY/SzsrXJj3SoP8m9V4eo/gGfmJuPfYsRkBpWnGpkErIW57Lxi/bpO8Glm2gNGIiMa6SMB9K4UCrEqENyUCMEqEAgEtztNHixaocVvbBMRQ/TEt2o58qkH+beqOGv6gbwCPe4hWjw9pVhbDBQfOciqlVso74IIV2iNpI/Vo7O5UFvqRdYKLwp/Pq8FAsFPQKQEXMLN5o9AIBAIBALBfzrOV80WCAQCgUAgEAhuAEKwCgQCgUAgEAhuaoRgFQgEAoFAIBDc1AjBKugcpS+rXruLktfimKm90c4IBAKBQCD4T0YSERNDfM844qMDUHW70e4Ibh1kDBsczOxh3Un3vbGeeKdmsmPZd+x4dgLeN9YVOzFz+HzZd+x4ez5J1+ORUDeaJx6ZwROpg3C/DuZ+aeIfuYuSz1IpmR2AppPXNb2q2LX+MLsmtVxTUfv/ZDT9Kjnwr8NszWgVYycQCG5rJAqpCLIKOsFqJv94A3uPN3Oys9I3EjkD7u7O5ORAkv3Fk87PiTw4lQlpE5gwMJHbL9htISPjNLo2d1ZsUGK+0e7cYjTl+JBVDBEPVJHhc6O9EQgEgp8PSXl1E104/V3wn0JbE6/+4wTj//ED64032hnB7Yqi92kmRrdjPuzFui6d6ysAwCYna5s7ZlcjGQ+IKKtAILh9kTaeseB3QyuxCq6KlyezhweQHK5Cp3JB0dZOWUUdKzb9wLIfbKT/th9vRJtYuOAoi+svvjR57J182N/GiqW5vGT8MTuOA7h9u/PFjGDiOwLvtmYWLzzKwo7StBJP3n0xiodUHT24MGxCf0o6a/sjBN6XyepxMWT/Yyj/s+diRSy/axEbJw+idO1YJm8qRu43nCfGTea+mDC8JUaqKvazdcPbfJB3yZE2Lhr6jPg7T6T1RmutIHvL6yz4aj/NjpfdIyfxzCOjSdIF4Y6RuvoKTuxbwryNu8+1uagvjJSe2MTKT95ia82FYWY1kQNn8If7BtPTTwvmCk4WbGflp2+Rfcn42ztO5bkXFjLSD6r2v8KMZeuoAlD0YuQjTzGuX29C3KD5dAHZO5bwjsPnwLTVrH4k5rwd3SQyl00CoHnfTMb+3zacrvuu1TL7yR6MjlXhq4Sm+lYKj5excFE5ezuMuLqR8dtoJid5olNBk97I11+dZN76Rmrtg8OHmQkkS41kra4n8v5g4j1slO07zpTF1RQ6Crb79gxlwZMhDPCFsu9Osaz6Sk7ZSE5pwBcJew9o7H1ciCSKSe9MY7hPC9mr1lLfO40hkVpU7UayP3qdN7cbASXRo8Yx8f44wr2V0KSnIGcnmR/torjVYUfmz+Dxj/LI3eEEa6RYTUb0ZflsyFzFtjJAEsfUxVNI9TSya9VWZIOH0TdARv2pfWS+t4bs0x0OKYkeMY6Jw+II95ZhqSsn598bWbbxBCYA1Dz40qtMjIHjm9ZSHjOUIaFKTEX7WPbOGsdZ907409HX1e7LQdl+DYW/byJ+UD19M2+DY1cFAoGgE0Q+wC2Awt+L9EQNOkkbZeXN5BtBF+bL7N/cwTDpWU7WmkGiIPKyJUEXInxkYGuhsPZqdhyXtJkpLG8mv9JMU6fetFFW2Ux+eSu1jtB8k8FEfnkz+eUtlDkZrjdUV1CHnEC/sMteC/QLQo6R0uoK8BjOizPnk54YhntrBaX1oA1NZcK0vzM9Rn3xhXek8/yYuwh0lSP3CGPIuPn8IcHRxm00z099iqHhvliqD5NzqgKjIpykhBjOWXEfzvMz7H15yyxYZGpCEtJ5ceZ8hnqc7yYkdSFv/3Y0fYK0yLGAIoj4fqMZeof88huV9WLC1DmM9IO6vLf4nw8cYpUwxkxdzHO/uosQmZHSGiP49GLouEW8PaoXAOamYvJLCjhZ4xD0ZgOlJQWcLCngRI3RebGKnMl/7MXkfmo0Z4zszWugzCYnvp8PER0zgETJ5Of7M/c+b3SyNsqqzODvwUMZffjHr90ujtxJ1Iwe7YvidCtmuZSIe6OZPcBhSO3HX2b2IDlIikIuJeLuaOYOVdEpEjMD4i1gU5KT7/Ij/ivp++h4hodAfVk55a1K/NVyQErYo0/zyvi+RHtDfbUek6s/CSmP8sqfBuPnuDps7CSeSYsiWNbI8fwTFDVY8IpJJMH30oP+1CQ9+gAxVgN6ixS/mME8MzX5vJ2H/sArv+lLtI8SLKDyCWXw+Cm88mgwskssRd83jASbgXqLFM+IwUweG3WuzdX9ce6+zqFXcUgP+DSTHPIjwygQCAS3MOJo1lsAs6GeV5dXsvmkQ0RK3Zk7I44MrSfJIfBq1RnMeKPTusBpD+aO8MKvUs/z34DOEzC2Umi+up0vTwH1BqYvMdirBLwUxoBLnbE1s3D5URZKVMydEU+Gbzt7Nx1lypGuhektlUVU2SDSLwi5BEY+nsGdLrmsXJFFoJ8P2CooLbcQmTKZIV7QnPs6k9/LosomJ3LMJywbEcbIoSP4oCDrvFFZEzuX/pp5+UE8MXMRE0K13DtgEO/mbcYSlEikO1Czlj/Pe91xhrqWyHBfOgLCIUMyGKoFajbz0oJZ7GxP5bn/XsjIgFQm/KoXW9cfBlkqE4bfhTtQtWcWMz7eTJVVTWDCCOIbLr1LNXdnzGdMpJrmouX8+e8rKXVEv+RxGUyIU4NhMy/Nm8XOZnCPm8Oy6aOJTH2MpC2Hyd43i6f2gfyeRfz794OgZi0vvbqE0i6NNCD3pG+EBGyNLHvlIAvtihldrBqFQ/Uqet/Bk4lSqK1kynPH+NIImj7RfDE7mPi0EJI/O8aX5wzayP/kIGM32Uh/YTBv9JMSEa1GsbsRTVJ3ktVAayOL5+SwyBTA+3+JJbkzzepxhp4+gMWVk1VXuYfKr5k1by3HTYBEjZ93C6gTeeT+YGQ2PRvmvUFmQRt49uW5NyaSlJDC8IhdZBYqiYn0B9rIW72Al7e3ACALCCXccvnTlSknkz++m4slfCQL56YRHNWfobqvWVWbyEMjQpHRwvGsRcxZX43/iCnM/00UYfenkbTpA3aZLrTzKTPfPYRq1AyWjg/Fs0cY/pygHCf8ceq+LnDapqCwQgKBLUT0sEGxiEMIBILbDyFYbwVqGzni48fTY9zQubmgkEjQuQJI8fPohrmmlRob+Poo8bV4k97LG0WQlRXZJnQeYC5u4aTt6nbgF8wNqS+m6gzE+4QT6BXE0EGpxBPEyU27sfirobWC0vog+kQ6IrCBI3juTyMAUKjte83lwTFESbCnIwDUbCfr+wqwVZC153smhN6Fe2AsIWzmZF0FdVYI9EvnLy/48M13B/g2ZyvZRQWOi7X0jAgH4OS+FexsBNjGR7sLGPlIDCERiXhzmLqg/sSrAet+Pv3nZqqsAEaq8rK4THO5D2LMXYCtgi9WLyP/gh1FIdGJ9ooGihjS/yuT0QAuatQSwC2MSC1kX3EpvYu0tVBmAII8mPzKnUTsreXrgwY2HzGei6LHx3rjC+DqyZMz7+RJABdXPABUanr6wpfn1uxbOXTCrnTLDGZAiYfKHiGNvMMejTUfKed/C22YqWTFwR4k39dJ9NmnzV41oMmFpqtE5gu2fWkXqwA2IzWngd7RxKgAqxsJ46bwsg1Ajr8EQEtYqBIKrehrjYCahN88z8uRB/n2+3z25ZRw3HrZQFFwIN++vF+ST05NGsEBAQTppKCKIloNmE6wYUs5VqD8q13kPBTFYHU4CeGwK++8pfJTJZgAS20jJkAlc0MlAWxO+NPDmftqucBvCTVGF6AdP682oJOxFggEglscIVhverqR/GAC7w907WRDRTcUEjDXtFBogwE+CvqiQmFqp8nDjfhgGzoJ1NS00OSEnV8UWxEna2CoXxAhYRDSbqTZFkRkaDhGLVBTTKlVTaSbvbm7Xy/6XLoWKlVc/NVsbMLgiGBamow0A+4yOXIJYFjBO5/G8OKYVEJCUxkTmsqYMTMo3fkyf1q5mTo0eKvkDjPnsykNTY4ERpUGNVCn1tjHymig6owz9wlIghg5fARZS9dhT2OUo3ZzFHhyDyM+5tKL1Li7yqELi/4/7oORRf97ivhpYQzw9WbYA94MewBmF5Ywfe4pvjaBh9oxFajd6NPT7eLrJS4olBfaa8fc4Vp7xy/tlSI0rnbh2tRkObfjv6bRTGciSgGOv7tuV6kO0EKD8TJ1icxNiQpApibs0vQQQO7qBhjIWfMxG/wfZ3iMloR700i4N41JDSfIXPg+G4ouVMotmM60nft/sxlAispVhszNzd5XSxP15+7dQL0RUCtRuV08lVqsjkY2h71zn6+2q/rj3H21XPLbbpf0IxAIBLcXQrDe7Ei9yOhvF5ll3xYyZUs9+SY5M59OZFqwo01bK2X1oPByJ1kupyxPT2Gilp6xbegkZzmkb8HsjJ1flApKq4wQGsSd0WrkZZtY2z6GpMhBNKuh+XgRVRhpdojC/E9H8dRXFZ1aOld7Va1BC9QBcne1XSJZLVhsABZO7pjJxD1aIiMHk3TnGMYM6UXIoKdI37ONpUVN1JksgBy1xhcciQJajSMx2NSEEcDYhNkGuGkJdINzu7U6w3yYpW+tJf7pOQzpPY0nErbxZp4RsGA80wRoseS+wqjF666XNL0iTUdKGD/lB3QRXiT39yM9rTvxEaHMTKvk689baDxjj8yZD+bT/7XqzvOXnQjcNbXaFazG9fzU4qHofJoxN7vQZANc29FI+XF93slGIuuZFkyAZ0M2r05bRc6VNhvVHSVz7mz+GRBKQmI8g1OGkKSLYvwj/di2IJvzK/lKvLyV2MWgB/5qgDZMrVasZ87YI6VKDV4uDn9cNHip4WKh6wRX88fZ+7pgcDxU9nFvPPNjucACgUBw6yKRdJOcezinWzckElFT86ZC5oL9+95KztE68k1nQeVO/IUFOW1nKDx9Fry9SQmwkX+qhkO1UgbEqVFgoaym3Tk7XcHWjrkdQILG/VrCOhZKqypAEsa9iUEYftjNtyW1BCYOJlACVVXFWKjlSJFdpEbeM4E+56rmqwmMm8ATQ3pdbNIvhdGJWpD1YszA3siB5qpj9pxPt14kxYUhtxo4eXQdKz9+mbUlgMSXQE8AA0cKixx9pZPkAbgPYtwge/iztDDXHh2tOEC+EZDdxegxwwmUAMgJTJjAUN0lis5aQWnJOj74sgCLRMvIhycT6Riq0sICu7COHEN66PkomnvQcCaMGk3gRXYcWs7NB+2VhtpFx4gnJvDHqRMY39/rkhflDLjbA53cRlmhgRWrj/HqDvuTgMZHjgLIP9pALaCIDeTJiPOdaO7QMu3XAUQ4+Raf/OEMZkARrbXnrcrVJCcqO29scKWwGXC3ENHZiQJX41QRRa2AZzzDU/zPb3zyDGbwo2kkOYbVLyGRaE8wVZeQveUL3sk6igmQeXlw8UhJSUhJIdpVit/gwfT1BmwGKsraoOQEx42AKophaf7IkBKckkIfNWAqIq/Iebev6o+T93UOSRs637OAnLJSIVgFAsHtiTQ2zBGfknkTGucN2Gj64ThlTaLW1U1BSxM5lWcZECwjOTWEaVozuoRAki/SAGcprDVDrCu+0maOlJnJr7Tgm6QAWxOFNc7a6cZDD8byZAggkaGTAKhIz4gjuQ2o1jNljQF75R0zR/TtEODCgAd6sbW/GbOthRUfFZPV6NytGSqLaSYGby8L2UW5HLEWYLkvFW+MHKksAizkb1vOzqQ5DNGl89aCEdQ1WZBrtLjLoG7nTD640GCrhnunbuW+dpDLAAxk791tF3vug3li+iTmNhZTqq/F6NqDnqGAtYD8Untor3TnCrYOmc9Qv9G8vmAElna53U79NlbuOGzvw7qNlVsOkzSuFyFD5rP6nhdotilwV5jZujiLrWVcRun2JXyVvIiRQek8k7qWp74qxpK3gqyCQfwhphdPzN5KuqEWizIIbzegeiXZG89fbykvoNQ2iEjtaObOT6TKaMaY+zYzNu6/oBcpru5KVHJoVV4iWiQKhk3oR8ZTLRRWtFBjkREZ5Qa0UXjcZF+Ozykh84gfM3t6M+2Ne8moNWN2U+KrAipK2JuFU9RmV/L141qGabvz7l9V5FtUxAdeobFFyaETLjzUr4WeMTbY3cUHH+NB/rllCAkPBdPn97NZOdZAPR74eUrBVkLmti2AlPB7x/Nc//HUVOrRN4FXaCgqoKGkDP1FBtuw+Kcyf3nauaV1a9FBdpYB5LJ+UwlJ6aEkjJ/NyrFtyFylQBvF/95CtgknccIfp+7rAtxb6BNkA5OKvSe6NoQCgUBwqyAynm56zCxadYqsU2bo7s/M+/yJNOhZX3lxqyP6VrvwaGwmp/Esh0odQqSxhfwWZ+1I8PBzJz7YnfjuCscxmt3wDXD8LkB2Qf7rWb7cUkzWqVaabDIigt2JD1ai60KSiaWyyL5r3lZEfrERS3GB4+fTlFY61ofr1zFvwSxW5hRQZVXg7aW21z09upm13xdcbLAii3f+tR+D1YKluZjsf87inTxHSajmXHZ+u59Sqw+BPe6izx1qmiv2k7X8ZbI6ygQ0b2bBW7PIyiumziq3l9bKy2LeW7PYeoEIL/1qGn9auY6caiMWFzXuGCnN28TO8iusaVt388Gm/TQjJ37EDEeJrAKyFk/jzW37Ka0HuVcQ7hioKtnNFzt2X7yBq3oFSz/fzcl6C3JtGJGhMUT5qZ3fWmMzs3dfNTkG8LvDkwE9VSiMRr7+Zx4vfeNYyra1sPi1A7y0yUChwYZCq0SDhbLCGrK+Ok2Zs7U9jTX8+e1T7K1qA60K3/pyFn55pZMnXNi8R4MZK337nrmGovdt9h37H2WTV2kEjRY/VysNlSVkf7UX+1vfRnnuQXJKm5B7B5OQEIq/xMDxXWtZ8NFRLs6MbSE761O2lbVgtbVRU7CLJe9todzxavH6pcz56BDHT7eAXIrpdDm7st5nzppyLs+wvbLPV/fHmfs6j6Z3Ez3l0HTIg69bO+lSIBAIbgO6hUT0vqGhVK2PFsNpJyrN/0LcbP4IBLc1rs28sbSQdLmW6U/oWH8jBNcFBwdse2027+Vd/ZKbh3bS/1zAG/2krJgVzUv5N9ofgUAg+HkQEVaBQHDjaHVn2ecazJoG0lOcj1MKHATXk9HbStPBAJYJsSoQCG5jRJUAgUBwQyn8Qsfv6lvwrbeXuvrxEleCC1G0K/nfd8OpzdPQSfq0QCAQ3DaIlIBLuNn8EQgEAoFAIPhPR6QECAQCgUAgEAhuam54hFUgEAgEAoFAIPgxRIRVIBAIBAKBQHBTIwSr4NpRdWdO1uqmAAAAzElEQVTVmlRK1vRj5pWKwwsEAoFAIBD8RCTRsTHEx0UT3SMYP41cKNifE4kn7798FyWvJTL3jmu4Xq5i2uPxHPhLf0re+Al2bkqsTP5LPiWfFJPhc8lLmkY+/OR7jr9uIOKG+CYQCAQCgeBGIulma6PN5oJUqcFXF0qARpxFfbPie2cQT/dS4Su1UVbZTH65ibIrHK70i9DeSn6Ogb3fN3LyJxZ819yl58neVmp3+5F1+pIXmzxYtt0VRbyemYPaf1pHAoFAIBAIbjn+H4yK5sHsySjjAAAAAElFTkSuQmCC;" vertex="1" parent="1">
          <mxGeometry x="790" y="285" width="473.21" height="110" as="geometry" />
        </mxCell>
        <mxCell id="ZmMm5j11PDI9N-WYyKy6-11" style="edgeStyle=orthogonalEdgeStyle;rounded=0;orthogonalLoop=1;jettySize=auto;html=1;curved=0;" edge="1" parent="1" source="ZmMm5j11PDI9N-WYyKy6-4" target="ZmMm5j11PDI9N-WYyKy6-10">
          <mxGeometry relative="1" as="geometry">
            <Array as="points">
              <mxPoint x="1027" y="460" />
            </Array>
          </mxGeometry>
        </mxCell>
        <mxCell id="ZmMm5j11PDI9N-WYyKy6-12" value="Call handler to process" style="text;html=1;align=center;verticalAlign=middle;resizable=0;points=[];autosize=1;strokeColor=none;fillColor=none;" vertex="1" parent="1">
          <mxGeometry x="630" y="308" width="150" height="30" as="geometry" />
        </mxCell>
        <mxCell id="ZmMm5j11PDI9N-WYyKy6-13" style="edgeStyle=orthogonalEdgeStyle;rounded=0;orthogonalLoop=1;jettySize=auto;html=1;curved=0;" edge="1" parent="1" source="ZmMm5j11PDI9N-WYyKy6-4" target="ZmMm5j11PDI9N-WYyKy6-1">
          <mxGeometry relative="1" as="geometry">
            <Array as="points">
              <mxPoint x="300" y="330" />
              <mxPoint x="300" y="330" />
            </Array>
          </mxGeometry>
        </mxCell>
        <mxCell id="ZmMm5j11PDI9N-WYyKy6-14" value="send a message: accept connection" style="text;html=1;align=center;verticalAlign=middle;resizable=0;points=[];autosize=1;strokeColor=none;fillColor=none;" vertex="1" parent="1">
          <mxGeometry x="280" y="308" width="210" height="30" as="geometry" />
        </mxCell>
        <mxCell id="ZmMm5j11PDI9N-WYyKy6-15" style="edgeStyle=orthogonalEdgeStyle;rounded=0;orthogonalLoop=1;jettySize=auto;html=1;curved=0;startArrow=classic;startFill=1;" edge="1" parent="1" source="ZmMm5j11PDI9N-WYyKy6-4" target="ZmMm5j11PDI9N-WYyKy6-1">
          <mxGeometry relative="1" as="geometry">
            <Array as="points">
              <mxPoint x="520" y="370" />
              <mxPoint x="520" y="370" />
            </Array>
          </mxGeometry>
        </mxCell>
        <mxCell id="ZmMm5j11PDI9N-WYyKy6-16" value="Keep alive connection" style="text;html=1;align=center;verticalAlign=middle;resizable=0;points=[];autosize=1;strokeColor=none;fillColor=none;" vertex="1" parent="1">
          <mxGeometry x="330" y="338" width="140" height="30" as="geometry" />
        </mxCell>
        <mxCell id="ZmMm5j11PDI9N-WYyKy6-17" value="Request" style="html=1;verticalAlign=bottom;startArrow=circle;startFill=1;endArrow=open;startSize=6;endSize=8;curved=0;rounded=0;" edge="1" parent="1" target="ZmMm5j11PDI9N-WYyKy6-2">
          <mxGeometry width="80" relative="1" as="geometry">
            <mxPoint x="170" y="420" as="sourcePoint" />
            <mxPoint x="250" y="420" as="targetPoint" />
          </mxGeometry>
        </mxCell>
        <mxCell id="ZmMm5j11PDI9N-WYyKy6-18" value="response" style="html=1;verticalAlign=bottom;startArrow=oval;startFill=1;endArrow=block;startSize=8;curved=0;rounded=0;" edge="1" parent="1">
          <mxGeometry width="60" relative="1" as="geometry">
            <mxPoint x="609.4999999999998" y="460" as="sourcePoint" />
            <mxPoint x="179.73076923076928" y="460" as="targetPoint" />
          </mxGeometry>
        </mxCell>
        <mxCell id="ZmMm5j11PDI9N-WYyKy6-19" value="&lt;font style=&quot;font-size: 24px;&quot;&gt;........&lt;/font&gt;" style="text;html=1;align=center;verticalAlign=middle;resizable=0;points=[];autosize=1;strokeColor=none;fillColor=none;" vertex="1" parent="1">
          <mxGeometry x="351" y="470" width="80" height="40" as="geometry" />
        </mxCell>
        <mxCell id="ZmMm5j11PDI9N-WYyKy6-20" value="Push message" style="html=1;verticalAlign=bottom;endArrow=block;curved=0;rounded=0;" edge="1" parent="1">
          <mxGeometry width="80" relative="1" as="geometry">
            <mxPoint x="605.8799999999998" y="540" as="sourcePoint" />
            <mxPoint x="176.11076923076928" y="540" as="targetPoint" />
          </mxGeometry>
        </mxCell>
        <mxCell id="ZmMm5j11PDI9N-WYyKy6-21" value="Push message" style="html=1;verticalAlign=bottom;endArrow=block;curved=0;rounded=0;" edge="1" parent="1">
          <mxGeometry width="80" relative="1" as="geometry">
            <mxPoint x="605.8799999999998" y="570" as="sourcePoint" />
            <mxPoint x="176.11076923076928" y="570" as="targetPoint" />
          </mxGeometry>
        </mxCell>
        <mxCell id="ZmMm5j11PDI9N-WYyKy6-22" value="" style="shape=image;verticalLabelPosition=bottom;labelBackgroundColor=default;verticalAlign=top;aspect=fixed;imageAspect=0;image=data:image/png,iVBORw0KGgoAAAANSUhEUgAAAyYAAAEsCAYAAAA2M6d9AAAABHNCSVQICAgIfAhkiAAAABl0RVh0U29mdHdhcmUAZ25vbWUtc2NyZWVuc2hvdO8Dvz4AAAAtdEVYdENyZWF0aW9uIFRpbWUAU3VuIDE4IE1heSAyMDI1IDA0OjI0OjEyIFBNICswNw0Qih0AACAASURBVHic7N17XFR1/vjxlzPMDDDMcBkGRmBALiEIAuGlRM3ISjEzs/ZLa79wd9O2Lbtsue5+ta9tbXZb61trtbW6Xdyy+HbTLl42L5lGpoiCN0Qu4gAO4HCZYYC5+vvjjDdEBbNs6/N8PHhwOZ/zOZ9zmcPnfT6XMyAuKesYgiAIgiAIgiAIl5DsUhdAEARBEARBEARBBCaCIAiCIAiCIFxyIjARBEEQBEEQBOGSE4GJIAiCIAiCIAiXnAhMBEEQBEEQBEG45ERgIgiCIAiCIAjCJScCE0EQBEEQBEEQLjkRmAiCIAiCIAiCcMmJwEQQBEEQBEEQhEtOBCaCIAiCIAiCIFxyIjARBEEQBEEQBOGSE4GJIAiCIAiCIAiXnAhMBEEQBEEQBEG45ERg8l3IQnj1zyM59FQmj8dewPpKNbNvT2P7X0Zw6JnvkM9PVFLOIOYXJDL7CuV5UrqY9Ze9HHqvhoLwHou07bzx3i4OPG0h6fsqqCAIgiAIgvCdicDkEtJfHs19GWr0fl5MDR3srbNjcl7qUv14JA2PY9ZNg5iRGYDqHOm0Ixu5K8tF85YICo/2WGgNZskGf1RpjcwZ4/k+iysIgiAIgiB8B36XugA/ZxHBClSA48AhbnjTgvVSF+g/kov8m1rRE8CyL9Q4eklRtDGUyhuOkDu1laQt4VT+4GUUBEEQBEEQzud7CUz0iQYeydWRExOIXjUAR5eDyqpmFn3SwEabL5FMRf6kOGZlBZOkltKYzFaWfVzDsmYwXpnCupu1qCxmpi86TJEXwJ85D2QwOwr2fl7KDV95mXXX5cxPhJLNtZjio5gY5Ye1rpEnlh1mpe2UQmm0zLkxhpuS1BhVXpqP2thQVM/Cb+19DwhkKvKnJjLncjXaLjuFn1l6TWZMiWL+dXpyDSpUXheVVRaWfGqi0HIMgLTxaXx+vfpEelVqImXPJILXwbK/l7LgcD8OtjKAm25L4q4xYSSFynBY7OzYfohFbzSx1+srT/Yg5udHkZsQAPYu9m49xBNvNlDSLS3Pvn0UH00LxFFSxeLuCO4arkbV3sqSl/awaI9bKmPmYLYsiEFvMfPSRgU35YUSQTdF7+/h7k9tJwICVXQE8381iLwhGvQyN82Hj1L4/kEWFztPCRpkZF+XyJxJBoYZlODoonJ3A4uXHWJNs4yC+bk8nn1yF/UThnNggvRz0asbmf6F9+TCge1MTfdAk5Y1B89yjKq0FDUcoeCyVqbGhbOoth/HVxAEQRAEQfhBfC9duYyXRXDTZYGouh3sre2gCRVpGTG8eIsOvS9N9rVJPDM2hCQ/ByVVVvbaICI+jGG+MQKm3c0UOYHQUCbG+FbShZFrANwdrN59+rPx7FExZHsdNLkHoI818Mh12pPdfwK0PPO7FGZnBmFUD8DhkqE3hJA/XENEP/Yr+9okHr8iCL1yACpNEAW/iCG3Rx8j7WVxLJ8Rw8QYJY72bkwOP5JSDTzz2wRu8sUijvZO9tZ1UNkuBSp0OdhbdyFduZTk3zecF2+KIE3nB04vKr2G3IlRDPMNy9CmX8Ybf0hkYlIAKrcXNAFkX5fKm3OjzhhzocqKZ0aMC5MNVHods++MI7vnFRJqYNZ4Jc3NblTqQHKnJ1Fw/KSGRvDio0MpyNag7eqksh20SQZm/3EY8zNPZpR2YyZv3h1LTqwSFW5QBZCWE0denLS8ydzO3kobJl9g6WjtZG9lO3sr26nsEUXqL7eRJANHhZodXnrnDaDooAJkXeRkuXpPM+QX/HP53/hw+ULuGXqOQy4IgiAIgiB8L76XFpPmqnoe2NHCymZfxVsfxecPxZCWGEqOn4WVbjnDYtXAMYpW72X6t1Lff1VoEGnHK5f2FtaUDyI3Q0VuhhrVYTvGtBDSZOCosbCy9fRtWvfVMO2dFoLHDmHd5CD00UEkYWUvkDQihqk6wG7lpdcPsqjOg0qtZmqqnPa+7pRMzdQsNSrAVFLB9PdtJE1K4dWxajhRIVaQPz4Co+wYJZ/v5pdfdeOQqZg9M4M5iTruGlbHyq8cVBbXcEMxZF+fwUfj/XFUmZj2r5ZeuyGdiyrZyOwcJeBk4z928MDaTqxKJbm5YTi8AEqmToshSQnNxXv55TNmmpIG8e5jiaRlJjIrs4E/lp6SoaWBuX88QFFsIuueGYQxRkO6GkpObXnCxrIntrGwIYwXX7mcm0K1DLsMljRD9qREJurAWryXac+YqfTKyL59OB9N05A/OYLFpWaalTruuikMLWDasJtfL2mi0i0jKctAWguAlzX/LGYNMPH+cbw6zg/rtn1M+0d7r8cnPaELFTIq6/3PefwqTSqgg6REByoU/T7WgiAIgiAIwvfrewlMTDUdJA0byONXBxDhPwCVXEWEDPBTYlQD7R5MLS5AQc7kNJbHtrBxfytryjsocR/P5RirS1qYn6HHOETHsFVusocGAcfYUdqCqcc2Kw/baAasrQ4cBKFSyVDJAO8AchJ8AcWuOhbXSUGQw26nsLgfO6UKJCkU8Haz8es2TF4wbTrK3tFqTvQ68tOQEz0AOIY+cxDvpvhWDZO+J8UEoMJx0SrFxtRQjACHTCxa2yl1SXM62bjWLCVQashJkgFdbPjUTKUXqKijcE88j2crGZYeCKWdJ/Jz1LazwwmOxi5MXjDih9YfODUwabexowFwdmFqB0L9UPnLAD+GpQZKaaJjePbRgdLPWqlJSWXUcJnMjHVQCNmhgNPCkuVNVDoBvFSWNFzA2A8vEaHSBdPULj9nyiartFwb6pLG9fRM4Oyk8agNaKftLI0qgiAIgiAIwvfn4gcmMjVzfjeE2TEDel3s79vimi9qWBYRT368PznDo8gZHsV8WxuLXj/ISw1SS4v1oIXV7XryQ0OYmO4kPQpwtrNmTy81R5ev2cIjVTpP9rDyQ+svlaW59TsEBUoZ/gA4pQo5QJeLJjcnj2KAgmA/gAEYY7RS0HAKlfLclef+0gYrAHAc7e69Ui9ToA0AvG6aT7QwuWmyuQElwWrF6bNdebzS8TlblygArxfH8eDRfcrfZX5E+LqqaQcGkz2wx3p+fmj9gCCldBztDprs596/fjnPhFsOz8muZL3O8FX5OfPu//wiFkgQBEEQBEHoj4semKjiw8mPGQA4WPNRJQt32DEp9CxfEE/OqQltbSx4dSeLQtXkDg4lb1QkEw0h3DchjMI3LDQDuK2s3OMgf7Q/eZMHovcDxx4Lq/tVoXVj7T4GDEAfqkKF68KCE6cXaay4nODjrQiKAWhPHYPhcNPuBehmyeIyFjZcyIb6ztohBWiqcH+SgL09E3hdWLsAtR/6UKAewI8IjXTa220XeCx643XT7jsvJcs2M21l74NlVB1O6TiqVUSogO80PbKMdrsc8BCs9gJnD/wi1L6Wsg65mP1MEARBEAThR+jiD35X+klPpN12Nu60Y3KDNi6Iy3psKSkxhGw1WFvtrNxaxwNrWrACqiDVaQPSd5RYMHlBH6wAPBSVtkhBS58do6haqjEbs2KYdbwlJ0BNwRXaE4Pxz8vRSWUrIAskN1WFCqkrVfqpoZ2zgx0Nx0Dmz8SxYRiP77OfgpwrYpid2K+Cn5dpT7vUpW2QkTnXBaAFkCnJnWRAGnpio6jSCwRwzSQDSTLQJseQP0QGONmxr/McufeXk6JKKb+0q+PI1Rz/u4yk7BjmT9BIXagOtVHSCih1zCrQkaT0pRkeQ36P0fgOp9R0o9KozvoeE2nsiJeIKMc533WSFOUEZJjONhYl6QYWvbSQf740lxkpfdlfQRAEQRAE4WK66C0mjjore5w6cpShzLo1Cq3Jj9yx+jMCgKThibyaAaamLkxWLxFGLVqgub7jtG5JjrqjrDRHMTsKsLexovxYv8tUub2BwiuTyddpmXPfCO6zeyBAjqruMEXfWvsW6HjtrNhlp2C8mrS8IXw+xEFwtBrtad2eHBSubyJ/RiTG7CQ2p7owOWVEaOSoZMfYuLwe6H/5z8ZRUctL3xp45goluXfnsP0ONw6FH1o/Cws2mCnCyYqP6ihIjSXpijTWvZOKQylDBVhLq1hSet5N9EvJpzVsHJNGbmwsb/wjiuZ2L6pgJVolNG/YyaK1gNPCPz5tIbcgDOM1Wawb48bqlaH197LyqToKT8mv8nAHDsLQ5qSxPmYQTU4vOz4qYcG3Jw+6qUyNiQ6MiZ0kyYJOTJF8OhdpiU5AyY6ys7xFXhlIaJiGEECtuGiHRBAEQRAEQeiji99iYmvmj8sbKGr2Yhwaw5yxGqzfNlLSo8JoKm9mo8mFf7CanGQtRhyUlNTywGprjyfa3RTVSH+xHrCw8UK6/nS1seC1Cl4q66C56xiqABmO1g7W7LLR1I9sStZVsqC4g2a3AmP4AHasMbGxx+P35vJapr9+mDU1DqxyBUa1DIetm5LSI6you3hBicRJ4QvF/PHTJipbvagC/FDZOylab2aH7zhZ9xzk13+tYuMhJw4/Gdi7KNmwn189dyGDzc/DYubu/9nNkm/bMblk6HV+qBxdVJY2UPhNx4nzundlKb/6Rx1F9U4cfn5ocVNZ0sCGHu8XMa07wKJN7ZjsoI/VkJYUTJL29DSOgyFsPALEWckNP0u5wq1cE++FpmBW7rnI+ywIgiAIgiBcFAPikrIudm354lIG8cyDQ8jXuVi5dBcPHPxxF1f44SVNq+bzX3dQ+XYKNxSe2SKSNK2Sz3/dedblgiAIgiAIwqX3vbxg8aIICOGZu4ewbk4q+TqgoZG3qkRQIpypclUkK5og7XqLNLbmVLIuCq7rRHU0jMWfiaBEEARBEAThx+p7eY/JReGn4rK4IJJkx7CaLSwuPHJGdzBBAKBbzcLHEyiKg3Z/Tp/pK0BO0buDKDKpWXMxpycWBEEQBEEQLqoff1cuQRAEQRAEQRB+8n68XbkEQRAEQRAEQfjZuOiBiS5cd7GzFARBEARBEAThJ060mAiCIAiCIAiCcMmJwORCqK/kz2//jQ/fnssthktdGEEQBEEQBEH4zycCk/9k0Qk8VT6VVZ+nkigH5S0jWXFwKu88rb/UJTtp6GBeK5/Ka3/U9C2NKoSZ66ay6uDJr3Ou+33ra3kCo3hkz1RWlV9NwdAfqGxZMRTMS6Vgph71hayvCmHy/45i8Zd5vL9nKqv23MDr71/OtNGK09PJFWQ+PJLXiqacSDM5S9b/NIBhajpPrbuBFeVTeH/daO65Rc2pkzj3vIYzn85j1cEpPHKLuFUJgiAIwk+d+G9/ITxWKnZVsLushvruS12YHzMZIwoSMDoa+fRtW9/SuD2YD7RQtb8Ns/UHLWzvfmzlOYVysJHbfj2Y224OI0x+ARnIgxiRF0litAq1ClApMGTFMfOVkUxLPZnMOGskj90dhVEvO5HmnsWZ5IT2L43yylQeeyKJzDgFSrkMdZyeyQuvpGC0uA0JgiAIgiACkwvTvY/li17iz8++z9a2S12YH7FoI5OvV9G6oZp/1/cxjcfGZ/d+xX1TvqJw5w9Z2LP4sZXnYvJ0sv2NMh79xedMvWwFUyds48taIFBP7iRfq5AqjBtv06PEy/6X1zN17NesrQcMRm68RdX3NMgYPj0Bowrsm3bym2GreXaDA+QaJhQYLqzFRxAEQRCEn5Qf7wsWL6Ls3y5k/jgNbRte4s6lFRA1gUXP3kA8+3hl5qus7wbw48oHFvKHKwJo2vQ+n8hGceuIGELkXTQVLef+10pxHV/veDjnrWP5nGf50HwJd+6sZFy9dDJzx7SxbNJXvFd9+tIRT+fx2C1uPvvVF7zytYzEgkxmFkSRGqMAh4OW2jaKXy/hlRWOCy6B8bZ4RqhsvPdW42nvPOxvmrNRJkdRMDeV3BEaQuUOTMUm3n1mH1/uP/VNnDISp6czc0Y0qdEq6LRTtf0w7z17gO21gFzD1QtSuXG0jsQYFUq3l9Z6C1+/XsbSQlu/ywRygoYP5rHFSWSGg+mLUhb+qQ7z8cOo1TBhbgb51+swaKG1yszal0pZtvqU4xwXScG8VCZcqSVUBfYWO4d31rL0oUr2O8Bw71W8/mDYyfTJqbxWLjVx2Fd/w+339/FYOlr47JmWk79XN7C22MHVcSrUgb4mmAQ9qQbA0czGd2w4m2189m8bE36tIXWEHuXSOpx9SaMKIetyBeBi+woTZquXlg/NtF4TR+jQSIaoGth+4ZeaIAiCIAg/AT+LwKS/QnNuZqbcRZOpjhqVjpjgAGmBs5266jpQBBARp7v0T3lbG/no0WK+tLZj9oCzuJIXHmnAWdsGeDFV22Gcmsgk4LTAREFknAocbRyuAOU16Tz+P3GEelyYdjfSIg8kNjGS4UMDoGdgMi6Dd5YmEIqDtb9dzYsbzlK2QD3Tpobg3L6TT3d9hzRno4/kwX+O5GoD4PHiRIVxdBJz/+kP04r50hcsGmeO4uk/+sZgOLw4A9WkXp9E7me+wEQVTG5+FKkOB+aqFlo9ahJT9Ux+bCTOqvUsLe5nueRqch9MRSH3olTJSJycycwtDTzxoRfkKiY8fxUPjFMAXpwOGaHJUdz2vxqCHBt5ZYMX5GqmPX0Ftw2X4axvodQEQUYNieP0xKqkwMRx1Mb+/TKUWjWJ0VIgaaruwomXjlrX6UFJYBSPfDOSnEAwLV3Pb5/ppUudSoZSJUedHMWEK1WAg/Jiqd+aclAgBjnQbMfk68pmPtQJaFDGqImUQ2Mf0pgCA4kMBTx2zLVS4Og8ZKPFA6FhgURqgeae1zAcXlHKiztlmItPDTYFQRAEQfgpEoFJLxTOat564lU+qXUDfkQYAnABHN3KCwu2SrNyvTadCxrjHBrL/92dTOqA3hc79pcx+uMm+vTwuNPO9kL7yd9rW/iy9uQTcFNVJ040GKIVkBDJPQ9HEXSwhhf+7iF2IHDURpUVIi8PIxSw/7uY+44/bQ/VkBp34QNoQqcmkWtwUPSkidbvkOZsjLenSkFJfS1P3L6TIo+eB94ezYS4GH454wBfPmODwEh++RspKDGv2Ma8RxswO2QYxhtJafJl5Olg7eNf8cKHLbQ6AGTk/C2PR/I0jBivYWnx2cbGnI2Mlg++5L5nXUx+ezwzsxQkZITAhy1w5WXkj1OAo42PfvsVS7cquPpv1zD3eg3XzxrER5uqMauCGTJEBp423rvrK96r8B2r0WGofBdFa+FOHi4EZf4oVjwRCbXVPHHzAUyefhbVJ3T6KN6Z55swobWNohfKeHm1LxAIVKAAcHgxzL6KR6Z2svR1D05AqVIQ5AeNfUiDVil9x4tzSDqvvTmQ0mdr6ABATlAo0MwZ13Dr1gbWbr2w/RIEQRAE4T+LCEx6YS/dzOpat+83N03m/lZOz8Ht5mhLF/VnGd3j6HD3vuACOKvaaCSSyEEa1J1RXH99FMrBnXz6ThuR4eDcaeOwA6jrxEkI6uuHs3ipia+/auTrfzeyv7dWDIcDc70dcPgq8r2Qa7jxtkiU1Qf4cMNZnnT3Jc1ZKRgyTAtA1aeVFNUDNFP4cQsTHgzDmKUnFButGXpS9ICjmY+ea8DcCeDF/O9aTvS+c7RRWhHFhLkZJBn8UfpBaKLUjSko3B8l/e3OZWf7F204HVB1oAuy1Gi0CpRA2IhwDAA7a/jway/g4Mt/mSi4PgnDkHBSVNWYHZ2YzUBCCLf98ypi/93Atq+OULSppd/BGwAeFy1mO62B0NLeh+McqiXh8jBiQ1vY33ODHg9OhwfHuYam9SUN4HS44NRL/eJd9oIgCIIg/IcSgUkv7LYuqYXk+2Br4J7XGr6v3E9XZcPsgMxoDUMIRtnqwm4IJnGoB4MftFTbsAOs2MsLwwO598YQjOMSuG1cArfNtVP0ZBFPLLefnufWAzx89YFzblY5Lp4JqV5Kn6ym6izBS1/SnJVcSahaqvh2NJ9s1Wk56jtrWgVBcmjVKlABdHbSeJZafegtw3lpYQyhvcxqpVRdwNwQHhdO3yFz9mjBCNVIG7G3dnPiqDZ10+oBg0pBkBrobOPdx/djXDiYEdFhXF0QxtUF6dh3H+CJO/dT2t/oxNHMKxO+4JVzJGl942smvQHKBD3TFo6kYFw6f3i4nbsfaYZOFy6kY2H++9fc/gKop4+Spvh1uOhw07c0Vqf03U+Gct8e7ssBkpNYLB00Oi5i7C8IgiAIwn+mn2dgovBDcc4E/R/y3GeaKF75f/GknqXOa63Yz3990dK3rlzn09mByQwjjMGMUAdg3lCNKc/IkGtcRMq97K/y1QYddr78w5d8+ayazNGRjJiayOTRanIeTGbEip1s7+zPRhXkTjcS2tzAyx+ebS/6kgYceAEZyHtEDR4nrVZpWZDeH3xhZFi476xaXXR4pO8OgEB/aXzDGZMUqBh9qxSUOHcfYOGfKimtcJH62HU8Nf3MEURnLU8ftdqkSEUd6o8a31UW4S8FRZ0uOnzRiv3rAzx69UFCh+sZOS6KyflxJA4dzMzph7nvZftZcv/unNXNfFTYyG3DYzBkhBEpb8Z0qBOzBxJD1Ri1UNoMhkGBUvo6O40ecPYhzYng0KDGECeD3V6UgzTSNMfNnTT+yKZiFgRBEAThh/ezmC7YbpcCDXVYGGog5LJ4Ii/Vnvv5ER4SQHhw71/RQRcxVnRYMR3yQnQ0oxM9VG+tZX+VgsxxOpR0YaqSKvTKoXpyhiqg2U7pimqW/n4/pQ5AG0hkz/r5laks3pzHO5uvZuboXraZmsDkMQpMn1VSdLbKZl/S4MXuq8hHJgT1mGjAxb5d0oqJeUmMMAB6PdOmSDNVmXY1S92eypopbwVUkdz4YBQGFYAMQ14CV2cBcj+plQJo3HmE7RUunHI1iUMC+lmevjFvPyrFRpfHc8toGchVXD3diAFw7jtKuQOQq0jNCyM00EtrcSNrn9vJK59KAaR6oOr0DB3SOA7UKsLOdtmoInlgXR7vFF3HU/f2eDHk8Bhuy9eTmKBAqQIMIVyfp0cJOO2+4K66mf1mQKUn9780KPV6Jl+jAbzs394sbb8vaRxt7NrpAhSMmGrEEKgi5yaDNLZpdyP7xIxcgiAIgvCz97NoMak7WIcdHeqsm3lyQQ5K46DztJj0xo8rZ9zPrZf5gTyACBmAgUm/n8soFzjrv+LZv2/lvK81aT3Mfz11+AL24kJ4OVxrh3EaQv1a2Fdmp6rCRcFQFXisHK6SUimGJvHIY3paa62Yj7jAGEKqCqhuYX/PwEGlIMygIhSkl/KdRkbmjFgS3c288s7ZjkRf0kj2bW/BOTkS5bhs/rEuiZZOL42f7OSJpTZM7+zny1tGcXVcHI99acTplkmV6+Y63n3L1xLU2ci7rzcz4mE9xltG8vpkF3aPHHWghy/vr+bLXXZKd9ohVY0xL417mo/QMTiWG3t5Y/n5ytMnWw9SuCmOB8aFMO3NyUzulKEMBDw2/r3kEGYPoFKT+8ermPyEHVNtJy0OBbFDNYAL0+7Tt+M80I7JE0VidAKPrA3DbPXSsWkP//3cKVMAy+Vo9CpCA1V0BJ1eHGVcFLc9EUXBGQV1UbqiXgruHC18+l4z1z+sJ/XB8ax40Jek2cSnx1u7+pIGL8XLqzFdMxjjuMt5vdT3Z4+NtcvMfH/tQIIgCIIg/Kf4ebSYbF/Bks112F0BREbA7lVbqen37KMKQqMGEZ8QQ/yJqYL9CDHGEJ8Qw+DoYILOk8OlcLiqU3pibW6hqt5L5c426fdmGybfeAVXRQNrN7XhCFSTOEJPaqgXU3E1L8450L/xH4Yopl2npnVDJRtrv0MaH/uHZbxQ2ILZKiM0LoTE1DASBvq6UTU38sKd2/joaxutbhlKHJi2VvLsnSUnpgoGML36DX/6SzWltQ6cfgrUuDB9XcsW3zCZ/c9t55XPWmhV65k8O5Wrw1tY++/eq8nnLE9feBysfegrXvywGXMrKFVeWisaeO/3W6SpggHcdnatrqPUDGGJOjKHa1G2tlH06jZe+KDHyKf91Sxd3ECV2YUiWipPUpw00L4vnBUN/HtTC+ZmlzQexuGidX8jnz3yFQsLT55405JiFr7agKnZCw4X5l21vHJPKUWnjHfpSxrn1v08+kglpbUunB4v9tpmPpu/lWVfi6mABUEQBEGAAXFJWccuZoa6cB2Wo5aLmaXwH8L44NW8drecj/7f2d//0Zc0giAIgiAIws+PCEwEQRAEQRAEQbjkfhZduQRBEARBEARB+HETgYkgCIIgCIIgCJecCEwEQRAEQRAEQbjkRGAiCIIgCIIgCMIlJwITQRAEQRAEQRAuORGY/FwE6Fn+1EgOPTWEObpLXRhB+HlSjJjBsuV/48Pnf8FgcfcVBEEQhNOIf42Cj4KJY2OYPzGKfP2ZS1WXxbH9mZEcmhdH7o/gqvGf/Ba3frCTW/9yB/6XujAAyjxGvr2TWz/4jPTEvr7i8BwGTSW94CHSJ41B8d1z+3lSjyR++kOkT88n5DynRJtxhM0ry9g8swvVD1O63ssxvIHtn5axrqD7kpbjh+XH2DnP8+Hyv/FifsylLoxkyC/45/K/8eFrM8i+CB/AmCsmMGP6zdwyQjwVEgRBOJcfQRVT+EG4HOw90EbRgQ4OOntZLlOSc0UUs3IHkhs54AcvnnA6efx4UqbcQco1mfiLT+mFCcxg0NQ7SJl6DaHnrOU7KSg4itEdxLJPAnCcK+l35Go9zO5dFZQcMGHvZbm1JJzCGki68QgF4d9jQYQfkB8R2dcwZXIu1w4VgYkgCMK5+F3qAgg/ELeVhW9aL3UpBOFHR5V1lBmDPTiKQ1nR9D1vrHIjf31249mXe5UUrg9i1kwbBTd2s+wN/+81UBIEQRCEH5OfR2ASGsL8PAO5CWqMajkqtwdTfQvLVh1myWGPL9EAsq+I5ZGx4aTp5OB20XTUzsaNNSwoc4E+inUPxZBEB4sW7eMl38vtc2/O5I0rVTj2VzHmTQvG6zP4aLw/jvI6FjtCUgB73AAAIABJREFUuSstEJWtnSXvV7GoynOyTDIVN11v5K7sYJI0MhztnezYc4RFq1rY6z3fDg0g/1fDeWawnUXP7uOl1tOX5k67nDdGeFn291IWdEXx+UMxpB1/6u7t4KVF+1hkOV6OEF58JJmb1MfXljPxjhEc6i2ttAJJoxOZnxuGUeag6Isq7v7a3qfKk/+Ut5hckIL51WvZss522jL5uMVMuW8Mbe9NY+MHNcij80idMYtBQ+Lxl9mwm7ZR8/7/Ul5c3yNXLbpbXyPjxiz8nfXUf/o0Oz7ZxvEjrUifyeXTpzJwUDQKbHS31GPZ8jLF723BdTwLQx7pvzm5LdueVex563nq609tWtKgufYhMieNRW/QgaOetj0b2L/seczNveysLJ7YuUsYOVyH5/AKvn70MZpsgH8G8b+6l+QrstCowdVUTt2/X6bsk224APW0d8mbnnIyn0EzmfB/MwFwbZnDyhfWS3/XjSdl1kySUhPwDwBXaz3WilXsXLyUtt5axM5BkXoHGfn5xCRHI/Na6KzZRk3hc1Ts8Z14/xRi7/g9qTlSmbsPb6PyvadPngvlVEa9+SjRfjVUvbcNzXU3owt2YPvmeb55eQV2L0A0iX/5jMtTwfLZy1hTbyM2XoOr8mOKn3sa84lrTIduysNk5I0hRKeB9nosO/5F2ZuFtHWfUmjdGJLvuJfEyxNQKxx0m/dTv/ZlytaW4Un+E3lP5nPikmYkw97YyTAAcyHr7n+athOfMS+517ShR0bRdi2nnUpZDDOencuUKDdbX5rLX4vcqK+dzbLfJEP15/zukbU0AciSmfnCbPLCu9i6/GNasyZw1WU61B4bW99+mr9usJ1c7zjzZubNeZ8DvXzWTdu0VP7GStqYVoa9NZCi894PergY97vz8mPsnGd5MMvM8jnP8qH59KXZv13I/HFOVj/+GEvLIST7BmZNy2GoUYPaY6OuvJgP3v6UzQ3u01dURDLlgRncmq2D5grWvPUOy3efvFeoh+Qy67aryI7ToaaLNouF6m8+44X3951ogVIYMpleMJmrUiIJkduo27uLD97+uMe2/Ii/5mZmTMgixaCBbgvV+4r54J3PKTnay+6GZHLPgjsZb4Cmb9/i0cU7aPKCImoY0//fRN+2umgyVbD5o/9jeYkN8GP83Oe5J+tkNhHXzubDa6Wfdy/9I3/e0NWHYy0IgvDz8bPoJKKKDCU/U4tR5sZU18FeGxjj9cz/f7FM9IVmqsRYXpsaSbYOTLVt7DV78A8PIdeolPp6N1tYUQfIgshL8/ULkQWRO1gFeCgqazutUqNKjmZGpAeTHVShIcyeMpDsE0sV5P9yCC/mhpEWLAe3F1WwmtzR4QzrU6h4jIPNDpCpuOyM7h5yksIV4O2ishlwO6is62Bvg4Pe20vcmBo62FvXTbPv/7bVYmdvXQd767ow9ag3oA5jzsQwjKoBqAL8yZ1kpCC4L2WG7oZ6ulGijoo/Y1ngwGjk2LCb6iE0j2ELniQlOx5FVz22dvBPHE/63NfIyNCcvmJ8PsNvG4k6QIk8NJ7YgifJGu5Lo5nK5Q/fS2yyHk9DGeaKelyqBKIvT+HEkANNHsMelbblr3Ti8dOgyc5n1IIniQ49ZbcnL+Kau6diiNUhx4lXFY1u1FSi43oZvCDXoCt4jmHDddC8nm1P+YISWTzxc19i2LUj0Shs2I7YICKD+ILFjLktAwCPpQZLVTltzb7KmNNCW1U5lqpyLObjFbR4Eu97kvThKSg6q2naU47dG07IsBFo+/mJlic/xLj/eYj49GgUfk686NCk5hE/PPHEtmIf+gcjJ4xEowGPW4n/oDG9nwtZPINuGoP8aD1epYaQcQ+RkaM5Y5u66wsI9zTT7VTin5zP8F+M8S1REnLbS1xVkIdOB91H6nEFRBNx7Z8YN/eOk4GGejyXP7aYjDEpqNVKPC4V/rEjSbxmpDTeqLteOmaHLb4A1Yn9kO8Y1tbjObUwMgc5aU7wBlCyV96/g3eGAIb9Yjp5cdBqqqOuO4BIje/6aG/kQHUdNeY+VEQb1exoBMI7yI3rfykuyv3uvNzUNVhAFkykoeeyACL1GnBZqK8H9dBf8NRDE7gyIQDaG2nqDiAmK5cH593OlSGnrxk57r+YcUUkaoUf6qgh3HL/7Yw/nkYzjHseuJmxScG4GirYfdBCh7+B7EzjyWtDk8m98+5kSlYkIUo3LrmGmKyxPDjvdsaesq2YSXfz2MyxDDVqUOAGfx2Dr7iKq2J7uQErY7jl/umMN0DbrvdZ+IoUlBAyjAfnzWBKViTqbgt17RCakMktDz3EzKFSPq2Nh6iprpM+/4CrrZGa6jpqqg9RZ+sRAMaO5v4/3MV//+EOJl3AeRcEQfgp+Fm0mDgsrSxc2sDqg77KuV8Qjz80hAJdCLlxsKYKkgYFoZeBtaSKGwrbpBaAAH9yQl2+1gAHK3dZuS9WS9rQUJK+MmOKCSM3GOhqY81+z+kbbW9i7uJaigwxrLs3CmNEIOkBUNIFqphIZqcrABcbP9rPA992Y/VTkDtMi6OPT0crj3TiIAyjTg5Hg3l8UigRDY3M3QTGEMDWTaUD6LLwwMsWaVauBfHk9MzI28GipftYJFPz+ENpFOg9FK3ax917jvW+YT83a97cwwN1IbzxcCK5AWqGGWFJex8KXVuN3Qsh+mjkMoj9XQF6WSkVLxfibwgHbz1tdU40ebOI1YGr+GnWPltIt1dJyPT3uHZaPImTJ7G/rPBknv5W6p77JTt2RpPy2GLSE3XEjBvDruLVeOIy0WkA88dsmet7Si7TETJYz/GH7+oJBcTrAfNqtvzPPMzu8Vz+xCISo8eTmpdB/fIyUI4n5aaRKADbxnlsWrKabrcGddYkQlrO3M3AcU8yakI88tZt7HhqHvW+iFWeVUBahgaaV7Nl7jzMNpBnP8r186aim3Abho/KMG+ax8ZNIM9dzM33joGGj/n2v1/Gdup1oUxBl6QEbzl7H/slFWYAJf6pWcj71VqiI3qaNDDcc6iQrxc+T1MrKGLHEzPQV+jUfNKyNeCsofzJGezZF07075cwalQ0idOmUlH2L042ZDixFP6Wr1ZZif3TOkYO1xCSnApbtp22VdeO59nw3ArkU95ickEG/kmZqNmCXTOJ1LwU5N4ayh+dwZ79NgidyqjnHyU6I5/E5ELKKpyoJ8xkkAGwl1G2cDYVFTbkoRlED9PiBDj8L775479AP5Pcl+9Fxy7KH/stNac30kmCO0kPB5z+HDzSn2N3Fg0bmffExxywAzINEWFSIGLf/j7ztkuzcv3z98NOac3phVdFZb0MBnaRlOiFmv5Fmxfnfnd+dfUWXEQSEakBQzIz87MIOryZl1c6iY4A2huptusYf/MoImRuDhQ+w6MrG3HJdEyZN58ZQ4YxZdxnbF158uah8NawdM5S1snHMn/BzQxVJzP2Cg3r19rAmECCBjB/w7Pzfa1NsgDik7UcbzSOuXYCY8MB81b++vhytnqGcM+jdzM+ahi3TljP5sI6UAzh1snJqIGmTf/k0ddLafL4EZExisGtPZ/EBJD96zvJSwnAXrmWZ/+2mTpfPBE/YSJXhoG9ZDlznt9Kk9eP+PyHWHRTDNfmDefd3Vspeet5SvAj+3cLmT82gNbi95nzekW/zqcgCMLPyc8iMKG5nT3hEdx3cyDGQDkqmQyjP4AfEcEDgGOYWh04UKPNSuTzgKOs2d/Ohn1tFDWczMa0y8KOiVpyYsKYqDNTNDQEowysFRZW93gQ6jB3sMMNDosDE2DED60/0AXGBC1GGVDXyKJvu6XKg9vFxm8t9JWjqZsmL+jDA9A7w8jPCEMV7WLZVjvGYHDUdHGwv11A+sJuZfUBD3jt7G2F3AA5KqV0DM+rvQarHXQRCfjrohk0bjw6omn7aAtEaKCrHmtzNBGpvhaVmEmMXDBJ+lmrBUBuTEEr4+TA4foNVH1bD956qjbtIj1xJIroVAJlq7E11tPtBLUhnzFPhXP42+2Yi9fRtL/ct7KOiCEJALRtWYa5FWA9FZvKSZyeQkhyJv6U0T1oBOGhgHMbFctX0+0EsGEvKexlAHM0sROiAbCsfpqawycjhcCUTOmJvn8KyQ+/RTKAXCO13qjjCdGDuWdPtd646+m0ANEppD32FiHfbKa+eD3mPdvoPu/Kp1BmoR+sBGzUf/gyTa1SWV2HV1NzWEqiTsuUKtEVH3Ngj01K++k67KPyUSdlolP+i5NFbqblgBTQ2C3NQDRy9ZktJtaDpbgAV3MzLkCh0KCQAZdlolMDTi2G6S8R5gFQopYBRBMSr4EKJ7qUBOSAfcvLVFRI0YantYzD6/qz8z7hbrQAVjnWnnXSC1C+fo0UlAB4bTT11i3ovGQ02eSAh4hQN9DPWd4u0v3ufFymRhoZQqRBh7pzBNdeMQRFXAur1x0hMhhc5WbqlIOYMsgPcBM64nbmD3UCSoJ8rSwxg2JQcDIwadv1Fesa3LjYzJo9Exl6RQBG40DABk1HaXVBhGEscx/X8s32vZSUlFJS3uhbO4DBKVLGNd+sZ2sbwD4+2FzH+PwYYi6LJ4Q62uIGMzgEcFXwSWEpTS4AN027NnPGECPNEPJyACysX/Y5B058wDQMHRwp/RiVwz3zhgOg1EjNx4oYIwmyrezuzz3Y5aCtvQvoxH4RrkVBEIT/RD+DwGQAuVOG8upo/166KAxA5XsYad1lYsEgFfNHqElKjWR2aiSzpzhY83E5DxQ7pKeI9hZWVsSSkx5EXkYYwcn+gIuNO9vP7CblOnbWJ4/aQOmwO2wOKi9wrxxNXVR6ISdcxTDUqOwerMGBpMV4McqgqanrLF23viO317dfx6C/gY+zGtsRYGA0miTQum24vNGExCfg0gPNNdjcGkJ8j5MVhgwienYT8VMhP/WqtVrp9pXD22qTKroBSqkq17yM4rdTyMkfjyZxPMmJ40me/hC2dX9m06ur6UaLQi1V+rpbT3bE62711SaDtMhl0ncFgN2CvbeplHryAjLQXVdAxNrHaLIDKFH6gis08USk91hHpsHPXwn0ocnDW8aBJUsJubcAgz6D2MkZxE6+F1fVv9jy+PNY+lJGqSAoVQBWOpt6u1qVKIKkwMLVdvTkmJzWo3R7Qa30rX98Va8Tt0uqeB7vL9Vb5yiP23dlHr9+fInkgeHScVbqCEk9c/YiuUoLOFEE+c5ZY2+De/pHBb57wICLMMi8i7ae3XMumG9mvH53tr2I97vzaTxCkwuG6g0MJhKFrQu7LpqERCcRcmhtaMTuH4n0EfMjImEQET2yUCtO/xfU0W71XWdu7LZOIACFfwAKwHV0M0uWJ/DgrZnEJGSSl5BJXv5/UbfhLR5dWkobgYSopfw6Wk/e/VrbfD+rtQTJoC0oQLo/2G009vnzrGP81GGsXLSDNgBZMEG++5TaMIihZ9ynAlHI6d898kgxy/5R3I8VBEEQfnp++oGJXygFI6R/0qZvK7l7bSt77Urm3JfJ7FOnzPc6KPxoLytWq8i5LITcYQbyU1RMnBRF7q4a1rgBPKze2cb8dB1po4xEaABbG6sP9qG14BTWTulxmEqjIgnYeyH75e7G1Aqq0CBylUpMuxupzNSRnurGKDvGjsauH+FsPvW0HbFBUjQDMzXITKuoct7MwPQxdAWDq7yabq8Nl6+yYFk2mY2f9N6EcOLdJVot/jLo9oJMq5HqcV1OX/XeiW3VHNau06FJH8vAYTeTfF0GmmvvJXnDesoqrLjsUkXaP1QPSC1W/qG+gTsdVpxe6bsL8FfrUKs4T+xgo/7vc2gat5jL06eSccvHrFtWBjjxdFoBHZ7ix/jk6RV4zpXNebj2vMyW3y3DP3EkESPGkzghD13iHWRM+JiNH9X0MRcbTgeg1BIYoYKqnjvmxNUhtUgoQqSgwQUQGi5NYdztW/8i8XRKgaW8dTVf/Xae1I//DBpcHb5zFq4H+rqvvXN0yLF6AX8PWj/OOLfHw4zjbRYK5XlaLy5KK6WXYLV0dbR39nPcy0W9351Hl5k6C2TrE8gODKZp+2bqrhjO4OwuImVuyutN0K3B5QFo5JMFC3mrutdCn/gpSKP1XWd+qDWBALi6u04EKzVr/8kDGzTEpyWTnT2KSdckE3PNVG76spS3Kjtps7sBP4JCtYDUjB0a4nsgYLfS4QU6uqTTrNYQKT1bOrvuCt568hsG/2EGV2ZPZnpWKa/scoO3nQ7fferA8vnM+6y3foKCIAhCf/30B78r5Kj8AFyU7Gthr/0YqINI6/FAVmXQMtEgx9HlYGNZIwveq2OHGwhQEHHKC7as5c1stAHBKvQyaN7bzMZ+NrubDnVg8gJRkcwZrpK6ksgU5I7WkdPXUNHbSeXRYxAWxjUGL3urmtjR7EfOEA0qnJia+lnt9XpweABkaIO+r8vCibW+HmTxGC6PprtyC/VVzQQOGyt1z6qtwUMzliopGAm5+g4p+ANAgzr7DtInZJyeZfQ1JGbrQJlB4rgs5ICrfj+dXkCdgSE7HrnTgq1kBRVL/kxFJYAefx2AhaZ9Uk0pZEw+hlBAM4bkcdKsWG0VUpcjDm3naCugHElyQR7+SgAl6uF3EH3GyxSt2A7vomr5x9i8EHL9wyT6nqba9pXTDchTb+ayxJNdnBSxeSTfNtXXZcnH5Wt0UIejPOOaiEZ3xUj8lTa6q9Zz+L0/s3OTdMz8dT3ejik3MunOO7j/njuYPiL09GXOXTQfdAIaoqfOQudbLI/NI36U1J3OvrdU6q6WPInBqRqQRRN947WoAU9lKZZ+zgB2TgdLsXQDoSNJvC7lZGtLaAbRt92LQQNgw1IunTP12DtJPn4cNRnEThh/+sso3Q5f8KdH1WPXT7D4U9kBBDlJ0vZY5u3C0Q3gR6g+GAggJeEHeA+FzI1RfwxQYqrtZ2Byke935+RtpM7sBkMao6JdVO/bTnljAEOzE1DQTl1DF3QfYnetG2SRXDkhk4jj17hCw+Brb2bK0NOzDMm8iqvCAcMoxg8JANyYTL7BP+oYsrN0KFw2anbt4MPX32VVNUAgETo/oIsD5dL0YPGjxpMdAmiGMGWsFJHVHayRWjtqD3CgDVAkM3F6pm9//YjIzmVsQo99dNmoq93Bu6sO4ULH+F9OIF4BYONAtdSFLGHsRIae+Dj7EZGVy/RrT40C3bhc0j8JtSbg7C9MHTic39x9B/fffQvjo89/+AVBEH6KfvotJl1WShqOkROjIHd8HLN1DoxDB5IbcHoyVYyBV38RjLW5k8o2F6owDWl+QHMne059Kuy2smKvg5uuVIHXwYZdHf1umXAcPsJL+3Q8k64g9xeZbJ/swaGQo5W1sWC7haI+5XKMymYHpPqj9+tgj8nB3gYn+itV4LVS2QQwgJumpHJXHCBTSONaUJNfMIRcN2Bu5O73LZikUrGn0QMGOTk3ZrBuhAOHt4tlb9dQ2JeB7X3UfbgGFymodU7qK0tpc5XjnTwef2w01VcDTto+XUr96EeJjs3nqtcm0d3uRB6sQ6GE7o1z2LP2lAztWmL+tI5YJ8iVABbqNm2RKqSasaT+aSaj2mtoq2/GE5CILhFwlmOpkWrU9rXLqBn/JPGGqYx5bRIet1LKp3U9+1eXSdtwrqf80zJiCjLQ5D7J5NH/jcurQuHvoObpQnpt06lYwp7tkxh1RQbpd0zl8F9X4CpZxv49Y7g8PYP0Z9YxuLkZT2A0/mqg/l80/d/J1T2Hy7F5xxCin8qYFzOxWh24dv4vW97bJgUHd7xG8j0W2uqr6HbqCUmOBmy0VVT1KIgf/kEBqJXQHdCzkmuh/uNC2tLvICTxDnJfy8fVBQq1Ettnv6XmmxrYX8je4kmMHJ5Cyl/WcVm3Erk/0piej1b0b0zL+dg+Zv+qfAzT4ome9S5Tbq2nGz3qUCV4y9j5xcsA2L9YStV1i0jUjyTjma9Is9sgQIO85mVWrz3lAXj7AWwWiNDHk/rYZ8Q02fAcXUXxc/86OZmAM4AdFXJuGt5FeooXtpwaHVqoqLZAgo74m2bzZKabmMQzx8yclyyZ6fOmku0PBOqkMTu6LO55PB4X0Fi0nL+uqjuZPqiL7Ggv2NUU9Xec9MW+3517Y9Q1tEOWjhD5IQ5UmKkZ0sX0azTgraDeBGBh/Ypi8h66koixd/L3bBtNDj9CwwJQ4Kbk75/yySk5uhTx3PPC88zCTxp3ZK9g87e+1ghNGtPn3ECMtZG6hnY6/AeSkgC4GjlQK1X869atZXPunYw1XMn8l4bj8vihUABtpXyw1neMXfv4YNUhsqcPImbcnfw9pwu7R4Ha38XmRZvZzJlPmurWfsZX42cz3jieWddtZd4qCwdWrWFrzgyuNI7lzy8Np63djSJYg1oBbZteZfkpY55MpiO40KC+YgavPmOm1eWmfOXfWLr9lG0pVARpAlCDL7gUBEH4+fnpt5jgYPHyKgqrHFILxXWRXGZpZGWPQZ6OhlZW7rfT7u9PWmIIaRovpqpGFrxdT0mP7hlFBzuk8RutraysvZAyuSh8dx9//KqFyvZjqFRyVF3dFG23SE8t+2hPY7cUFLV3UNJ+jB21vveJtHextwtARnBEEGkxQaRF+VpmGIDe4PubQXFKP/RjrFlbQ2FVN1avgqSYINJiAjBe7H+QddVS1xlvNa0VNjwHyn2/H8V6/L0hlhVs+595lH9bjt2lwl+nkd4bUraaim/KT8/vcCHFH2yj2+XEY6uhfvk8dhX7KjK2Uuo3b8PmDkebPJKIeA2uw9uoWPxnqo6/d8G2mh2PzaOipIZutxI5NmxlhXzz53nUn/J+GPsns9m0ZAVN9TY8fhoU2GgrWUV97dmaDCzUFxZicYLiipmkZ2vAW07V07PZtmobbRaQ6aJRYMFetYWqL7b43vdxfL+WsfO9LbRZnMj08egSU9AZfJVibz1NRetpsoA6NgtDejRyWzn1HzzGzk19n0ABwLP/eTY9+TI1++txuZUoFA7sVVuoLTke4NRw+IXZbFtXhs0GcqWT7kNb2PPsbykru9jdV5y0LZ/FV2+uoKneAsHRqAMcdNeXUb9m1YkpV7GtZ+eCOez5phy73Yk8QIW3qYzDm8tOD5S829j/z39hPmwBdTQhiSno4qJ7jHuRs/prLQ5cDBvWeca4jN0frWB1pQ2XMpjIgDo++OJQ/3dLHkBEXAzxCTHEG3wRgkJDTIL0twT96R8ybZaVdCVYdwSzsd+R38W/351LXUOjFAi2mKhpcVN90OT7vZE6X1cne8ly/nvR52wut2BXaojQKHC2NLK7aDPrq06/4TVu+vj/s3fvcVGWeePHPw5zYBhnOAwMhDMKiCAgYYBFFLaopZTloVxatvTZXd2fuR1cc9snbTs9HVazNjc7bHbCinLLMlPL3dSKXaRVSEJUFEGdEQEdDjMMwxwYf3/MIIqYo6m4db1fL1/J3Ndc1/e+Z7D7e18nCreacXa5sR3dw6qX32Vjq++gtY4t/96DyR2EblgCqTFKbMadrHmpkDXHf58rePGp11mzvZHWLiky7Jgqi3n+iUKKW3vaMa19mUfeKKWy3oorQIkKO6btpZQePM0/wJ17KFqzExtSEidN9i493FzG84+/zqqtJpqcMkLClNBppq6yjPXfGE96e+um1RQW76fJBiEGPbFxMejV/nZNCYIg/HQMGBI/8uwmSJyBNlyL+ejZ3Rz9dwlg0i8vZ+nlMmo2VzHuc79nGguCcCkKbGfRyzXky7Xc9xsDn5zXbqCz1UX+n3azKFPKigWJPHxOE9AEQRAE4b/TT6DH5HxRMD0/mXXzL2fx5TJwWlj5jUhKBOG/XudAln+kwaFpJX/M+VpV6xzpW5g+0oVlWxTLRVIiCIIg/MSIkax+G4AheiApEeCwtrPy0zqWt5z5XYIgXPpq1hn4VYudiBbvEsL9taKdokvJq0vjOFKpwXjm4oIgCILwoyKGcgmCIAiCIAiC0O/EUC5BEARBEARBEPrdjz4x0YZfhH0HBEEQBEEQBEH4QX70iYkgCIIgCIIgCJc+kZj8GCgjKHr6SvY/ncx80UEkCIIgCIIg/BcSq3JdotJvuJyPxgbi+K6Gy99tPrdVgkKjWPfAYFKOp58uVr72LX/ce/7iPE5yOXc9Vkh+1GmOm1czb8FjZ7V5myAIgiAIgvDTIRKTHwOXg6rqVqCTvSduRO52UmNqB4kUQ3QgGtE/JgiCIAiCIFyiRGLyY+C28ORbllNftzZz34vNINGw9KHhTFJdwBg83/Hyn67gZYkcgvN58c/zSGE3r/9pBm8fBTzOM1YhCIIgCIIg/HSJxOSiGkD+/2SyKNHGksU7WdZrg8bcqVfw5igPK16uYHX3ixI5+VNTuCcjCI21jeUf7GPJvi7vsYho1s3T9wzV8rSzbMlOlpzDNjKG4dEsvD6C3CgFCo+Lmn1mln9qZKX5LLe58TjB07NBnbPL+/OJBo7+G2vvvBL2r+SZb8OZPCaHYWpoP7SSh594jh2ZL7B21rXID73NrEefY6/kSu576m9M0Vr5Ytk4nqjwJjlyXR6/+fksrh8eS5jEyuFD/+GLNX/h9cpDZ38BBEEQBEEQhH4lEpOL6hh7jzggScGwcOCkxCSA+HAZeFqpOQIM976qSBjEQokEJANQhIZw9y2XsekvJsoB3A7vUC2pDEO0As05RqUZNoSiGZEYJMewmDtpkiuIT4piUbSMzqX7+MT2A075+wyawn0x4GyoZa9FzWWacAb6+97gPB6a/xSjQ8HZdogDDg2XxYzlzruHM/Avv2DpbmtP2cHXcG9+CirsVPz9bdYfuADnIgiCIAiCIPwgIjG5yGoOd+AgDIM2AI4G8/iNoejqG3ngKzCEANZOak6c6e5q48mlNay+LJaNv4ogQhfECCWU24EWM/e9aPauyvVwLNnnFJGM/LE6DJJjlK+r5Bdfd+KQKLh75uXMH6rltxkWZ/N+AAAgAElEQVQmPvn6nKbe+9G0ldI3ZvHwljoA5NpYBvo5OX7YmFmMDoX2ij8z66WVHPbIGTblfZbfGMtN427k9d0rab8wUQuCIAiCIAgXgEhMLjJHUydNHogIVxLhDCP/8jAUg1ysKLVhCAZHnZ29HjB0lze2sLoNLO529noiiECKJhCwn6eApGqyBw0AjhGRFsN73T01Yd7/xuuVKHCc26pgZ2L+gpXf1B3/0WmuoxmQn/GNg0gfFuv962U38off3wiAQu3tM5Lrh5MgoWcFMJeD1jY70IHNfR7jFwRBEARBEM4bkZhcZI4mOzUeyA5XkIEKha0LS3AQKXoPBgk0Ndk5aRq785g3KbhQy+wqZQRLAQZg0GuOJ0TdFPKAC9QwYLXSfk7npWZgkPdvA3WXk67rdViqODm5ObyNFa9uO6cQBUEQBEEQhItDJCYXm7sTYwsoQgeSK5djrGykJk3LiCQ3BskxyhrtF6Z3wpcABPbOMxxu2jwAnSx/4TuerL8Qjf9QcuQnfVOttHd4/1b194n87p9isrsgCIIgCMJ/O7GzxcXm6aDm6DEIC2NMlIeqfU2UHZGSnaxGgRNjU9cFaLSLtk4AGfE6xcmHnO2U1R8DSSATcsIwdH8jpDKyr9Jz99ALEM6ZOBw4AYLDuUwG6NJIUJ9Y4Ag7ar3JyLCr7yT9+Ix5NZcl38lvRl9+cn2XZfLr2Xdy7+xbGTvoQgcvCIIgCIIgnAvRY3LRHaPmiAOSAomQtrPD6KCq3klElgI8Fmqa/K1nAJNuSeK3QwCJzJdQqMifnkyuG2hoZPYHZowAng5KDriYHiEjJW8ExVfYsbjdbP50D0sOOli5sYn8GZEY0uMpTnJhdErQqQNQSI6xuegQcJZLBv9Azv0V7HGNJX1gHnMfHMSdA4cz7OQSVG18ja+zHmG0IZ/nFt9Is8WJXKNloAyav57P6ycWlykYqFaiAhTiGy8IgiAIgnBJEj0m/WBHY6d3uFZbO+Vtxyg7YPP9bKfK70ntEoJ1A0nRDyTl+FLBA4iI8r0WJaOnb+QYn3++j+W7O7F4AjBEDyRlsBqDb8PFI7sPUPDGQT6vc2AJkGFQSXBYOymvOMxq08VNSgBoW8nLq/7FgQ4nYVot1v+s4Itee77QsponFi/g7fLdHHYpCAtVg+MQe3d+xsfbd1/8mAVBEARBEIQfZMCQ+JHn9c5TG67FfPQcdvi7QC61eARBEARBEARBOJXoMREEQRAEQRAEod+JxEQQBEEQBEEQhH4nEhNBEARBEARBEPqdSEwEQRAEQRAEQeh3IjG5yLTh2v4OQRAEQRAEQRAuOSIxEQRBEARBEASh34nERBD6QfZvstm/aizf/V57wn4zgiAIgiAIP10iMRGEnzhFTBQLpw9l4Y3BRJyhbEp+DdWf7mTp1Z6TXpffeiWr907m3T97a0j7cx7r997CQ7f6/okJUHH7R5NZv7ePP7uvYeKZGu4tNIyJC5KY+cchJAWd5XuFH68ANdPX+b5Tg4BBcTy9ezLr1yUxNOCEcpo23nx/O9V/NhPfX7EKgiAIpxCJiSD0gzZTCyUVZkpqnf0dCoq4KGZNimHW2FB03/cvQmgb86e0ozigpfCbfv6nIzSM3OmJTP2VnqGq/g1F+C9kCWb5pkAUKY3Mv7arv6MRBEEQfKT9HYAg/BRVbdhFwYb+juLspNzURK5KQtWqUMo9Zy5/Orue/YwHV7hOeMWDs+MHhycIZ6Vkcyg1Nx0md3IL8f8Kp6a/AxIEQRBEYvKTJ0lmzrLZjG4o42tlMqODG/nso2/R3XIzGUozX7/5V14qsQIgi86g4I4JjB4eSUiAnSbjHoo/+jtF5dbj1amSc5l1+2jSh2hRYafVbKZ2y1qe/2AnNn/LSCLJuXMieWkJxOmUyLrctDbUsmX9BxR+1Uj3LW3IqCnMvTOH4cF2TKWfsyVwCgWjpDRteI67Cvf7HfPFI2HS/Tksze75tbP8azuj/mLG0f2CXMebhankSq2sfK+FYTfoSQn2YNxSzexlDdR4gPihfPF0DPFuM8vespM7LZp4lZuaLft44JV6qpyAVs9HrySSTjNP/vZblrf0tG389D+Me8uKYWomX/wyuCe8mKGs+2Bo33FJ7OSPtoFHxeYt8h90FZwOD86OvjIbBVPfy2NmJuxasYODVwwjN1mGbWctL96zg5JDQNYI3ng7nqjj74lgTslk5gAcquH+8TvY5QCQkTR7BDNvj2ZolAwsVnZtquG1pw6wz9LdXBhzNoxm4iAXJc9W0HxdErmpKlRdDkoWbeKJIscpEfZFdV08v5upJy1ZQ6hGgtNiw1h6kNf+r5qKBj8vysgk/vZ+Is5/1OLMjGFwi5HCj+HmuwxEWht47a7/sHaXt2joDYn87u7BpMV5YzVuNfLeszv5clf3NZUwdHoaM6dHk6SXgcNB84FWtr1RzkurHf6XiYtk+tx4rskMITJMhtzhomFPPWuf3cFHpd2/hTLS7s9kTkEEkV02thXWYb39csZHufjy9+tYvNbfmPvBPg0l9YeZPqyFyUPCWXKg/0IRBEEQvMRQLgEA2fA0MhRuCInhll/fzHB3G6giGTshEx1ASAZzF8zglpGRqDrNmNogNC6NW+fNY2aq70ZbncGc+6aQEx+Mq34PlXvNtAdGkZ5m4PhoG3/KBOgZfX0aiSFuWoz7qa63ozIkkDdrJgXdA8Kjc3ngrlxSw6XIApToc6YxbWSvPNufmC8qD5YGC1U1VmpaznBDJlEzeXIEiqOdOORS4q9LZGF2r19XuZZZ03UojthwICfluiSW3q72ezK9w2yjqqaNqiNu7wtOJzU1bVTVtLGjwX1y4WgrGZFAs4qy+lPrcm6r4fmHtvHi6lYADq6uYOlD5Xy67dTzlCskyINO+NNHwEn5iaR12Wh2SAhNjed390QgB7B1UFvZyr49NryD4Fw07Gll365W9lV30O4Le+j91/D0/UNIioLmA1ZsCjVpt17Bn18cQlRA79ZkZN6dycRkaN7TitEhIzLU/+9H1DVD+FmWBnmHjX3bm2nsUjH0hiQeekJPqN+1+OIeM4hQZxeqhCHMmR+NzNqFfFA0N08JAUA15nKe/WsS2UlKOGqlwSbDcF08D7yeTrYvW5OPGcHjfxpCmh4aKxvZtc+JYkgkmanK4+34VSY+mvF5EURKnTTubGZfC0SNHMLM50YwSuMtE5p/BQ/NjsSgkSAPUpE9dwS5veYL+RNzN8P9P/POO9pxJT87l7lDXTb+vWwbSx/ZQ0UL0NLIR49sY+kyEw29R2x5lJTslYHETvZIV1+1CYIgCBeZ6DERvForeHHBVrKem81YWRXLF2xkxFPzyAu7jEgJqMZPICsMbOVFzH+ulCaPlNj8eSyZpGdcXibvVZZiM8QRpwYatrB44QdUewCJktgEDS3d7fhTpquRjW88x4vF+2l1ASjJuvtR/pAdSXqGnsIaE7E/yyYxEGgo5clHiqg2TOGpP+aiP+GUYv2J2Y9LM+7mn/GX0yUyx6y8+uo3vGD27zJvfvdbNr/rXZWr6Ebl95T0UPX+Nqau95D/YA6LMqXEJ6pR/KutpxcDN2XvfkPBeifxk65g3fQw4q+NJvudajb7EYvxq13c9BVoxozku99pod7IfQ/up6qPnEkRZydeAtQr2NFXTnWgmS8PNB//saW0ng2lfbebdH8eq+/v+dn22RZ+eW8jJ862sX31Lff8rh717NG8cX8YoclhRAYcwVhZyxNTayEunmfXjyCJVj76n3+z9sgJb47Q84uCEORdVj76n828VuqBQXoe+jiT7Kx4Jo46wGu9Y6ut5v4Zu9jVAigURA3y/0a1ubSaJz6up6T76X9SIi98nMTQUdGkBZn48iyGqTlLK7lnmZrn3k/EsHUH9/+fjMfXjMAwKAh5gJ3xd8UQFeBh1/ObefBFK06FiqlvjWVmpp5bb91FyYs2Iq8IIxSw/WMb93Rf11A1SUM6j7fjTxmnsZ4V/28Pmzf5ksCgMOasH83EQVFkXwFb/6Ui97ZoVEDLpm3cf289qruu5dnfhfWcUIDCr5jPHw/7PjOx7/jPNrauPH39NUYF0E78UAcKZPjXRyYIgiBcKCIxEbzcHdi6OrB1Ah47ti47HQ5ALUMVoCY2MdJbLjqbOQsyAZCrvcOAZHoDcZJSKpuO0uICXVQODzyuYcvWKsrLKyjf3djTjj9lPCYq92cwdlo2cRFKZDIZodEyAAaGaJChZPgQbzx1WzZSbgV2fsHGfbnMGN5diZpUf2L2YySJo8POoZbT/Kp47FguyGiUTsr2eG/VjWYHoCRY1etRv8fC5i3eMjX/MVNzRxgpoUHEB+NXYnI2dKFdKACHRYbljKV/uIOVZmyAy9SBjTBUQRIGSgF/5imnRpCkARxy0u67mqfvAwggUgGgZmiCDEpPTjx2fVjjTUoAHA4aav2PtaW0Bddtw5jzazVhGgmygCDCAgBFIGERwFkMEXJ1uHBZXLQDzg4XNgu0A3KVDJkqguQECeAhdOzlPHat9z0Dfdn44MRg5NhoNnXgJATVDZm88JqRf3/dyL//0ciu7T3t+FOGXUfYOTSG258IZnCoDJk0gCg1gIywKAlIBxIfB2Dj30UmGhzAG7Vs+1UY2d29HX7G3J2UutocNDTYwNGJ7SLMSW+yeH+nNKEu7/f7wjcpCIIgfA+RmAhe7u85JglmoG+clSoqhtRewy+QBiELAI4Ws7wojrm3paGPSyMvLo28/J9j2lTII69V0Ip/ZUKyZ/DsnAxC+hhoKJPJgCCCfPG0t3TfJttpaXNz/Cvtb8x+JBXFG79hwsYzlzuvPF04uu/Wjt+gDTi5jNuNpfthcLubNgACCA4EzvNiX4oA74VynIckrOKpdTz45vf3SDhPaeiU8VenJdfIvMMCFQqGZp66DrE8qPcXy0VL8zkO5VGEMP2d0dye2teo2L6HqfnNTc9nHwCo5agU3nqjUiPo/ZVW+c7LtrqK5zOD+N3NIRiui+P26+K4/QEbJU+V8ESRzc8yEtKeyOWxfDWnziiSIA8AFDJUKqDLRXOT75Cjg2YL0J2Y+Blzt4bXtvDr187yOv0Ajq6e9sV+QoIgCP1PJCbCmXnaaPfdAFcXLWTB2tNNHHdTt+F17tukJjYlgfT0q7lxTAL6MZOZ9GUFhTX+lFFz9RhvUuKq3cziZZ9T2WBn+IxHeHS81teOkw7fiJOBag1gB5QMVJ/wdfY75jPLGXcVCxOlfd+4eGy89f52Clv6OniBSRVEaIHDgFbunQtEF22dnDx7zPf3QPm5TylrsgXgABRBXZf8k2VnhwsbID9ygEdyv2XrhQw2azDjUyWAg5L/28KLH7bSohrC08VXkHa+27I6cboBrHx0+0Ze236acg4bX/7hS75crCLtmkhGTR7KxGtUZM9NYNTqb9na4UcZaRQ33+xNSoyr/sMTzzZgbFZy+8fXMz3J147bg8sBBMkI6x69FRBImOYcYu4nOpU383O0B1yUnkBBEATh+4nJ74IfrFTXeodaxeVMIFXd/boU3chcCsb5xmWo9KSP1CJzWanbXsaqN95jfS1AEDqt1M8yQQQFeos27txKeYMdF1pih56wehRWao3eSR2xWd65JrIh2eQMO4eY/aBQKhkUrCS8rz8hCjT99VskCWbyzWFEyKVMmBDtnQPS0kFNG9DpptMNSJQYtIBcTcqgvgN1OLu8iYZKge40jyoc+wNpAhRRTm87P8Apk9/PZZKzw+PrFJIRFt7r2LdHqOkAIqKYmK/qeeIfFcLP7o8/ZcL1DyFXy731O1rZurqVlg6QXxHGYP87ePxna6FijwcC1GTPiCaqO1MOUpA0fQRTr/PFlBpBdqoMjtioWF3La7/fRYUD0AQRqfKzTIDM19PhYN+meoxHPBAWStKQE+JxtFFzAEBF5uRIVEDUbUNIO/Hz9DPmbobZV/NGSR7vfnE52RehCyM+2glIMB4KvKSTbUEQhJ8K0WMi+KV6/eeUZs8gy5DDo8syaW1zIwtWo5JB61evUPQFoE6hYP5N6C2NmOrbaA+8jOFxgKuR6gO+sWJnLNPIjr1miNOiv3YyMy1VdBhGMSH+5K9q9aZS6sbcRKwhl6deyMQmV9N7CoZfMfvhi0+/JPXTH3gBAWL0vHlXFDokKLTeuy5NWgIfLXIBXWx++1uW7DmbCt3orruCrddz/BGDsaSeEg9gt1BeD9kxSvLnZzLCpiQlsu9aHAetGD064iP0LP1rMMY2D23b9/Kr93om2jvq1JRbGjHoOsgIhvIf0EPUe/I7XUd4KafXBPYzOdqK8QikRYUwtXAsoxq64PBBFs+pxXiknveLWkmbGcKoP13P32fbaJYqiQqVQFczr314/nascH57hJ0dekYFRTD1iURUO2WM+uWQs16Nyy9dNja8sp+Jf40jauKVvDHGQYNFQliUDDketv7vTj7Cgyw1nocei6DlgIWGwy4whJCkAGqb2eXrFjhjGXczFTs9pKUqGDX7Cm4fbCVy/DBGBZ0cz5cfNnLrnyKJmnw1b13nQhYqO3nol58xH6dSEBWhAEegd7jYBeUiZagTkFP23Q9bAlsQBEE4P0SPieCf5jKef/x1Vm010eSUERKmhE4zdZVlrP/G6C1jrWPLv/dgcgehG5ZAaowSm3Ena14qZE33fg5+lKle+TqvFZtoDUwgb9oEcrR1bNzaa9kr4wYW/62Y6mY3yKXYKtex5jtv8uN0uf2P+SJSKJXExweTEq8mPtT3q6cOIiU+mJR4DfFnu4O5s5lXXzxIeYsHOp1UfbWL2UVWbzLh6eDVN/dRcsSDQq0ioukAK8pPM5HooImH32uiyuxGEaEmJT6YEVG9nlk4g/isTA7ydrIzLoGdsh3NvPdUNVtrHaBRMzQphKGJQd4J8njYtejfPLjoABW1DghTEaXoouVAMyUra6k4mwToTA4d4Pn/rWZrbReRNyQxfXo4ttW17LpAl8j2j++4/95dfLndhi1AQVRoAK4GKxWf7WWDbyUH1556NnzViiNIxdBRESSFejBuq2Xp/Gr2+TLNM5bpsvL+/5azdpsNEoYw/a5YBu/fz5e9EueGFeUsfq2RBguoFE52rdhFSQOA5/g8J39i7hfhFsbEeqApmE929F8YgiAIQo8BQ+JHHjufFWrDtZiP+rl26kUg4vmxUqOPk9NYa/ZuuKhKYM7/3c3YKDeVbzzCo1/0xwaKF8nxDRab+OOMSlae54nup6MY1si6JYcxfDeEcX8K5eKndsIlJ1TF0Cgn+3Z5Fw+QZybx7FuJDJW28v6UL1mxq5/j+x7xU2tY96sOat4Zzk0rRY+JIAjCpUAM5RL+O8kM3PbH2eQE2mm1upGpvUO0sO2huF92df/xc+wN54USM0uzj5I/JFTslC3A0ME88E4ikTYHtg5QRSiQB4Cz0sTmsxqWeJFJ7Ey/vgPF0TBeWCuSEkEQhEuFSEyE/05dZqor9xObHElkiBpZl52m3Tv57MO/s7H5zG8XzkUAn7wah2OLE0eXBzESVKC5jYpvrVyToCI0QoLTZmNf6UFWLK7BeAmM+DstZQAl78VQYlTx+fnc31EQBEH4QcRQrovsUotHEARBEARBEC4F4pGnIAiCIAiCIAj9TiQmgiAIgiAIgiD0O5GYCIIgCIIgCILQ70RiIvQTBfPvuZL9i66kKHNAfwcjCIIgCIIg9DORmAiXrPgR0Sy8Sc/dSbJ+jSPkxnmsKvorqx7OJaRfI/GRpfGHN/7KqqKFzIg7D/UNyaKgYAoF4xM42z0eLwWKpGEUrxrL/reSmNDHyq+ayw9T/Ml3FM+0o7j44V2yNJn1bP30O76Y3imuiyAIgnBJEImJ0E887K1rpWR3M1VtfZeIT7qMWaOjmTFMIW6cLiBZzEhunZjLrT8bRuiP7l8EJ9OnH8XgHsiKNUoc/R3OJcRSHs7KOoi/+TDTw/s7GkEQBEEQiYnQb1x8snYPBW/W8OTe87pitSAcpxh5lBmJXTi+C2V1U39Hc4nxyFm5cSCOQCvTbxa9JoIgCEL/ExssCkAg+bfomT5cTXyoDIWniyNHrWz66iAPl3eiy0mmeKKKkg+2UbDt5CRCkxbP1oIwaj6v4KbNA763HgeAZCCLHkgmP7SnjpIPtp5Q7wCm/2oUjw/vOR5xTTLV1/RV9vR0E+fxcoGe8tcW8uQm+0nHZDmzefuuZEwfPMn8jxuRRWdQcMcERg+PJCTATpNxD8Uf/Z2iU3aQDyJ1ymwKbkwg1GWmbP27vLR2P8f3ZwtLpuDXExmbGEWIEmytZkx7Syh8aTPVru5LrWdswWRuuyoOnQpajVVs/ODUtlTDc5lx22iyhmmRd1lp3L+HjR/+nTU7Tz4XACRaxs6bx5x0NS5jMYuf+IByq6+tOyZzy6g49CqwNZko37SW5Wv3YAN0kx7g5Xx9Tz1DxrP0nfEA2Epe5zfLKnCd2lrf5Ery70xk1tWhxAdLcNjsGA+0sOL1Xaw42F1ISvakYczP05GilUJbB2XbDrDkrXrKOwHkzHoih4VJUP5pNcakWCbESbHUmHhiyV4+6d7+R6vl8XsTmZyggPoGlnzuOU1QHnLHtBKBhJKtGo6ccCTkxnm8foea0q/MxF0VB5WfsubIKH5xfRSuvRtYvGiD7zNTkjjx58y4IZm4MCVYGtld/jWF7xRT1+mrTBZJTsE0brsqDr1GistmpdFYxZrCIjYaz6JMeBoFt4/lquRIIjVKZE47Tft38lnR31lT0/25K0mdNoOZNyQQ6TFTtr4E29gpjA23U/yXhTy/1e09v/SbmDU1m1SDGlWXFdPubXz4zqcU17tPukLG/2io+bWFlGtbyCi8jJLTXUpBEARBuAhEj4kAUhUTrg4jRQ1NDe2UN7jRRIWQPy2B+XpoOmLHwgB04UGnvNUQrkBBF8YjzjPWA4DHjfFQO1UmG0ecfYfTdMR73Oi743dYO6kytVNlaqfGz12aW+obaEWKLkp7yrHIKA0y7JhMZgjJYO6CGdwyMhJVpxlTG4TGpXHrvHnMTO2Vt8eM5nfTktEppchCIskqmMWM9O4yWm6ZM5Nb0/Wo7A1UVplo8miIS09EH8DxMmPvvYc54xLQqcHVJSVkSHdbyuPNyOJv4rEHpzA2WYsqwI0TNfrhGeSlR556ohIlqQWzmZWuhqNlvPiMLymRaMn7/T3MGZOAXmbH1NAGuhhyCmbz2DTvh+FsNlFda6LuqO+m12XFVGuirtZEbWOb/0kJkD4tlUU3aomXd1Je2UxVC+iSdWToTijzi5G8OT2adC1YDndgUQaRfX0Sbz0QTXzv+sYPJd1jp8kpISJhMA9NC/M90Vcy697LmT5CiUYuQTM4msfvjEJHHyQOslOc4FFSXhXQRwEtWelacEnRjZrCzOuU2GxSQpJHMzZVCkiJnXYPjxVkkBgGLQ2N2AIjSR0zjcd+n3O8zdipM5k7PgG9rI3qqj3UtjoJHZ5GakTP98efMjJ9CmOzY4gM6KCxdj917aAbnsGMuVNID/SWCcmZwR+mJKNXSZEFasnKv5nRYSeflSp1Gk/PG09WnBLaGmnqVKIfmcvcBb8kq/ckqUYVZY1AeDu5Q/r8aAVBEAThohE9JgJ4Olm9aicPl7dj9AAMYFJBOkvTAslNDuTJrXZqPJCiVaCQdDF98iAyAtp5dVUjhvBA8HRSc/jYmesxdQKdLHt7J8tQMP+eNO7W9w7mGJ+v3cnnwIRpGbySGYDlu1qmrmk/q/kBroOHafRAXEQkMgmMmzWeEZJaPvxbMZGRWvCYMR5yEzt+AllhYCsvYv5zpTR5pMTmz2PJJD3j8jJ5r7K0p9LADkqXPsHzFVoKHrqXW+PUZOWksby8DJdMT2KcFDwmPnhqMasaAKSEDNcj707Aho/htpFKcJlYs+gFCncHkXPPPOZepWXcpCzWVG6mCSWjJ48lVgauA5t5ctHHVLaCypBGVlTvHhwputEzmDsuElnrTl575l2Kj3qPyC4fz22pSjhaxjMLCym1gmpkAUseyCJ23FjSVxdSXlzEgmKQXTeb9/9fMtSX8MzD6zCd9VNzKRkJasBDydtbKfin96m84rJgUrrPXa3jnrxgFB4rKx7exsO7PBAaxZt/SSE3bQjTE+p5eE9PjZZtu5j6bBPBkzL5YnowEcM0xNNM1WURTE6WAE42v7qN2V8N4J6HRnF3Uh9hBXcwIhxwBrL3cN+RV3+6jOc9M3j5jhjq1r/CI23TeH1mAroIJagTuO0GPTJPI2ueWEThbjeEZPCHRTPISh1DXnwxhTVKhg+LBNxUvreYR329c7KoGOKc3b0T/pQBV1MVRYs38PV2szcplCUw89m7yQtPIWsYlFdqGX19MiqgdWshDy6tQHXzvTydH3PCGWkZO+VqdBI31SsX8cgnjbgkWm5ZsJAZyRncct1aSo93PQEeBTWHJHCZnfihHqgTz6oEQRCE/iMSEwE8Nkrqw8jPG8KwYBmaAAi+zHuDoguWo2jrwGiH9DA58cEy8kZpSUfBjk2tEB4Ajk72tvlRD50Xb/JxWyNNNkiMCCcyTENOThqJaKn95DtcOiXYGzl0RE1qoq8XIjqbOQsyAZCrgwGQ6Q3ESUrpHmlD/Xd8stUKHiufFNdya1wCqugo9BKo6zLT1AxE65n20DwMpd9SVv4dpTv30+p7uy4p1vuUfe8WPtlpB+wUr9tGwVW56OLiSJRtpolYUodJATtlqz+l0vdmm7GiZ8jPcVqyxnl7hKo3fMBnxp6bXH1irHcFMYWeW+67mwkAkmDvqluqSGIjoLz+/FxqcGNscgJysv9nFEUJTWz+tonPt7VR7ktMFMNCGaECnAqyf5nGR10AAURIAIKIj5XCCYlJTU0rRwDLETsOglHIAlBIQDFYjUECWI+ycrMdhxNe/Wczs5J0p86RCHejAbAEYHH3Pujl7OigpasDgMh6TbEAACAASURBVPaODpw2b9IwMFAOQxMZrgJcQaT+fDaPegDkREoAtMTGKKHGReMRK6Am9Y4HeHTYNr7ZXsWW8v09w/fwpwxQv4fqQVlM+/VgBgVLkQco0SkBlISGSEGmJ+4yACtbNpTR5AE2fEXZpBiyfD0qBMaQGCMF3ISO+iULU72fy8Ao72F9jB4Z5hN6wyQ0WQOALnShbqCPZc0EQRAE4SIRiYmA4fKhfPQLre8msReJBDw29poBrZJ4A8R7urB4lIzQK2kLBcx2atx+1HMxuRqpbYScyCj0Q0HfZcfWpSUuRo8tHDjagKkrmDjf+riqqBhSo3rVIQ1CduIIIEsrLb7eBGerHRugUgZ5b+U8Jj58Yx362eNJD48h58YYcm6cgq12M888/TGVNghVeYdr2VotPfNSWr116uRKBgYCnUpUgQAWmo6c5m76RB5AAoljx5P+RRHlvooHqn3D7tSRJCb3GgImkXnbOo8+f38nKy5LJj8piOwxMWSPiWFhi5klf/6OZTUeCJJ7kwS5nPiksFPeHxjY6/vh8l3oLnAAiu7DgRJvAtLipMl3eRxmJxYgolediuPvG3D2CbFEiixI6U3kZGpih6tPKSIPDALMlH/wLmsif0necC2p140n9brxzGzdQ+GSV1hT6wbcfpRRkvrreSwcF8mpi2NLkclkEKBEpQQ8bbR0Z7tOKy0dwPHEJAiV3PseXVzMKUPcVLK+/sn37SMkOksEQRCEfiYSk588GROyvMmEw1TPfUWH2WzuIuOWNIqu6X4G7aKmqQv0SrKHDkBRf4SVXZFkxwVjUYGltoMaZEw/Yz0XUxumw3aI0zIiVYncuI3PnFeTnpyATQO26gYaPW20+27kq4sWsmBt76FSXseH5WtCCJVAqwfkaqU3IbF30D1aybZzA0/eu5GQuAQyMkaRNy6D2LhcZoz7mvmfmGnxPY1XhWi8w3EAQrx10mmnvRPAjq0TkGkIjZBC7fclJ3ZKl79Mdc69zEjOYsakEiqL9uPC+/Qf1LjKC7lzSdlZzRc5J2YzDz9UzJLL1OReoSPvej0TBmu5J1/HyicbsHS4vclDSz2zf7uLvuer+/G0vtPjTVSU0uP34qgkfa4o5WgPwOIBArvQSIHTzGk6HVeHN/kMaS3lybuLKD/dELfmnRQ+vpAPo2JITUshZ8xosgwJFNyWycbFpd4k9ExlApOZcK03KTFtKuSZlRWYbFpufXIhBd1zP7rsOJ1AoJJQDVAPBKgJPfHkOztwdQE0subhJymsPdNZeghWdQHQ1tHXPBxBEARBuHjEM7KfPAnBvhubptoWNpu7cKAg3XDyTWJNox0kSsYkBWGpb+VzkwNDUgjxEjA22nH4Wc/ZcLi9d4KKgfJzWMrUjam+ESSRXD1SS0ttBeW1bUSmjyRSAk0HG3Bhpbq2EYC4nAmkHn8oLkU3MpeCcb0mwERfTt5INcj0TBgdhwyw1Tf45mSoSRyVQIjMTWvtTjZ+UMjyYu9YfpXWO9yqaVcdTQDDrmbScCVI1OTclIkOcNXWeof1uOqo3Od9gp51882k+rIimSGDvKt6T+S30GTcz2fvF2PygH7cVPJ8vT6m3SZaAVniddwS1zOxXmVI49ZpGehO/M13ubyJiyqI0NPdmwYYuPE3d3LvnDspGBV6yuH4NC3poWA5bOWT9fu4790mLIAiLBAd4Njbwo5OIDSc/OuVxz9PRaia/F8MZtKpHRJ9chy0eucvacOYEC8BJORmhnp7Y3ozB1LTDgx0Et9ngTPYV0ttJxCSQt6YE3oyQvTkTBtPli9mXWoaiSFga9hP6YZ1PL9yJzZAFhpM95U6Y5kAma+nw05deQUmqxtUsQw/cX8RVwO19QBaMnLTUAG660aReuKumJ37qTzgBkkkWePTej5nmZrEcVO4JbXXOUrcGCKOAXKMB0RiIgiCIPQv0WPyk+egpM7B3XoFhisMLLS0YIkOZ9bgASeVMjbZsTCQiOBjbD5gZYfbBjlaNHRhbHQCx/yqx5AZyytXK4EB6HzjTEaMS2bd1cfA084Lyw/yue/Jds1hOw5kaNKGsjHyMprcxyj7YhcP7/Jv35MWoxkbMYSEuSnfZ2S3y4TzxjRCsLO73ps0VK//nNLsGWQZcnh0WSatbW5kwWpUMmj96hWKvjihQlsQWfOfZLQLZDIAK+XFviV1JVpyfnE3eb+1Yjp8mBZnMIZhWsCOaa9vcsjuTXxYnsmcdD23PPwkeZ1SZIGAx8wXn5R6kxbsfL2mmLyUXGLjcnl0WQ42O6hUUprWP8dn35wwcdnHVfM5H5ZlMXdUDLf9IoOv/1JG6/bP+WRnMjOSYyh44kkmHW3DpdQSogLqN1O+qqzn/cYGTJ40YsNz+MOzsTRZoL3i7zz6wf4TWpESOFCJSg6dylNvYOPHjOCVK8FYb8PY1oUuLgwNcKTWQg2AtYnl6weTPVVN7m+z+W6aHQsKIkIl4GljyT8OnlJnnw4fYfXOoaSMCGL6Q1cx4tAAUmKUfZd1KinbE8CkTDsjhnvgX2f5HMa6jQ83jCZ1kp70Xy/k7almWghGFyIFz34KN24ApMRdV8AfRhXQVN9IowVCY2K8PWL7jTT6rt0Zy9jrqNzvJjVOSfrUn3NrlJnIrDGkn5h00Ejxl3uYFJeALuc3vJxqRx6i7DX0y8zG1dvIm5flLZNupckhJTRMiQw35S9/yhpO6IUbaCd9kAdsKkr2IAiCIAj9SvSYCJT8o5ony9s5otAwfYKeSep2Vnx38qh8R6Pd+6Ta00GV8RgWo40aD94VuRqP+V2PRh1Ein4gKXoVEb7OFE2oyvdaILoT7nmN2/azpLwdox0iorxl4k+6Uft+ru7eDE8Du/face2p9f1s5lD3fg7NZTz/+Ous2mqiySkjJEwJnWbqKstY/02v2ebGr1n+8U5anG5c1kbKVy5nebmvHo+ZHd9UUNnsJFQfR2qyFpnVROnHhbxY3L0HhZmNy17gpU17aLKCTO6m9cBOVj23jNcqe/Ynce3+mEcWfUzxbjO2LikquYum2gq+qGg8zZnaKf5wE3UuUI2aSMFIKXgaWbPkBV7asBNTswt5mBYVVppqd7Jx07feidPHz2sThR9UUNdsRx6uJzZOT1xkcB9zHU7PWF7P5v1OArVqstPCMEjslH9VzX1vNfvmd3goebecX71louSQE4KVRCg9HDnUxubPTZT0PYquz3Ndvuw7Vuyy41AGEq+ysvz9ek5ZFwCAAD77twYHLjIyOs6p16165Qs88k4plfVW0GjRBbpord9P6T9LqLR6y5gqtlF+wII8TE9qagyREjPVxR+z+J2dviF0fpTxNLLqpXf5bKcZDFkUTMlCf+hrinudWNMXhTz/yR6abKAK7GD3+g2UNnvbwDsiC1t5EQ8uWef9/sjV6NQynM2NVJYUs3HfyUMDNSMtjJCDpSyYzZ0IgiAIQr8aMCR+5HnddlsbrsV89NSnuv1FxCMIP2GB7Sx6uYZ8uZb7fmPgk//2m29VJLHBFurqfUsOx93E04+MJzbAxKoHF1PUd4Z2Gl3k/2k3izKlrFiQyMNVFyRiQRAEQfCbGMolCMKPV+dAln+kYfJvW8kfE8Un68+mH+gSFJnN3MdzibRbsTlAFaJGJgFXTQVfHzrLuvQtTB/pwrJNz3KRlAiCIAiXAJGYCILwo1azzsCvWuxEtHiXEL5oe+lcCJaDVO5uZOAQLSEhUlx2M3U7tlH09oaz3hhT0aXk1aVxHKnUnGYonCAIgiBcXGIo10V2qcUjCIIgCIIgCJcCMfldEARBEARBEIR+JxITQRAEQRAEQRD6nUhMBEEQBEEQBEHodyIxEQSB7Ilp7F90Jd/lh5zDfh+CIAiCIAg/nEhMBEE4I0W0loU36Vl4zUAi+jMQSTJzXvorq4qeZE5qfwbSTU3eQ39lVdFfeWqi9rzUlz5xCjMKbiLHcB6qu9RoLLyyYjvVzx0lpff/fTRtvPn+dqr/bCa+X4ITBEEQ+ptITARBoO2IhZLdrZTUu/o8rojSMmt0NLMyNegucmw/KRItqWNyuWXiWLKif3yruWffepgJoTJKPg2lqvfyxpZglm8KRJHSyPxru/olPkEQBKF//fj+zycIwlmr+qaOgm/6OwrhR01lYfo4O7SEs3JLQJ9FSjaHUnPTYXIntxD/r3BqLnKIgiAIQv8SiYkAgGrc3az4dQIc2MxL/wkj7/oUYjVgMxbzzMKPqfSALDqDgjsmMHp4JCEBdpqMeyj+6O8UlVt76knOZdbto0kfokWFnVazmdota3n+g53YgJAb5/H6HTGwezOv1Q7iljFxhLrMlH36Li+t3Y/NV48sKo2C6RN9bVkxVW3nw3c+prje7S2QWsDrD2YR0lxG0VdKxt2QQChmyj4u5Pn1Jlx+xgP+ndfFM4D0rMHcMyqEDJ0CjfQYFmsHZRWHePKzVoxRer64J5rg7XsYtbL15M0C1ZF8tGAIKXvquPbNoxi+p54aj7etSQXpLE3ruUm0lJ9cb/zoZL64aWBPG9F61i3S91n2tGTJzFk6m7Gdm1kw/2OqT3xSLtFT8PQD3BpWxjNzCil1KUmc+HNm3JBMXJgSLI3sLv+awneKqevsVW9kFnPyb2a0QUrL3m0UvvIBpUe724wkp2Aat10Vh14jxWWz0misYk1hERuP7yaoJPHGnzNjQjJxYTKczSbK/7GW5Wv3HP9uABCWzK0FExiXpkcnd9HaYKTsn6tZ/kXP96yHlNiJs3msIAGVbT+rFv2Vohq3t63vOy9ZGnOX/YYcdU89Wfc9xyoAj4mi+YtZ1XCmC338ojLp/hyWZksxbtrFioBofntVMBESN8Z/7eCmF81YAENmDAunRZM7WInC46RmZwPL39rHykMnfEByJZNuj+e314YRHyrBYbZRtnU/S95sokoVxZuvpJArt7Ls/v+w5KC37Qm/z+GVa6UYN2xj3Kttx78fEVe3kKsBy9caSnp/lt32aSipP8z0YS1MHhLOkgP+nrMgCILwYyCGcgkni85h1rQUdB0N1BnbIFiDKgAIyWDughncMjISVacZUxuExqVx67x5zEz15bfqDObcN4Wc+GBc9Xuo3GumPTCK9DQDqt7tJOQwIycYW6Md1JFkFcxiRnp3PWn8bsFvuGVkJCFyN64ANfqROcxd8EtyQnrVE5LBtFwNLUftyFSRZOVPJi8c/+Px57wuKinZIyPJjZbiaLNRfqADh0pF7uhhLL5GgeOonRoPaEIVpwypUugCMUigyWzHcoZ6vI5hOWqjymSjxtr3PquOdjtVpnaqzL6hNU4XNaZ2qkzt7Djq9u+UXI2YjgLaSHTyXscCtAyKABobMLmkxE67h8cKMkgMg5aGRmyBkaSOmcZjv8/pdb5KsvJ/ztgYNTKZEl1yDnPvzUXvOxo7dSZzxyegl7VRXbWH2lYnocPTSI3o+UxjJ93FY3dkkBiuBCeowmPIKZjNY9P0yLoLqZKZ+dBsCrJj0KmkuJwyQgwJjP1ZCqF9nGrIqF/ywO0JqFyNfPbiy76kxI/z6mqjab+JutpGWn3Zjq3BRF2t7zWnf5e6N921iSzMUdHZ0EaVGXQh3jPTpCVS9MehTIhX4GjrwGiXEp8+mEWPJDHp+InJyb8nk6WTdKRopeD0oIhQkzshmgw5YG2mpMYDEhXZI3wfrERF9lAp4KS83HpC0uoh+4p2FEjYsVuF5XQBe5SU7JWBxE72yL6HFQqCIAg/XqLHRDiZzE7Z357jma+8u9PLorSoXBA7fgJZYWArL2L+c6U0eaTE5s9jySQ94/Iyea+yFJshjjg10LCFxQs/8D4ZlyiJTdDQ0rudrgbWPPUcRQeU5Mx/iLnparJyUlheXkHkuPHkhAMNpTzzeBGlXcnMeWQ2Y6MzuG38RopXmk6oyMSaRYspqvc9lQ8xEDdUCkfd4Ec8fp2XH5dt3M0/4y+nS2SOWXn11W94wezPB+ChfEsNU99uptzXcMRVCfxragjpSSEY/t2OsQUICyReMgDDtXFMN7jZ/PkBPgtXoOEYexvtOOD76yluxAhs/sduNv/DuypXUc6p63EZy+u4qRw06Ql8lx8CRxu574V6qvw5lePaMB22QpwWQwSoIm5iznVRNP3r7xQeiiJSDraGBhrVacy9QY/M08iaJxZRuNsNIRn8YdEMslLHkBdfTGFtd51S5IfXMf+pjdhGzeDpu9IIiRvFaMNmioxKhg+LBNxUvreYRzfZAZBFxRDn9CVTgWlMujEGGXaqV77AI580EHnjbJ66I4HYG8aTtf51im2gGzeBcVGAbQ9Fi15nVY0dWYierHQNvXMFuWEMD0zKQIeZ4r+9wmvbve2iTuO2M51XzX6Knl5MkSSGGUvmcUuUm8qVz/HMN34mf6ehcLWy5MEKlu33ABLiL5PiQM70adEYJB7K3/2GX3zUgUOi5O5Hspg/Iorf5tbyyUd2FAkG7s6WA042v1rGfRs6sMjl5OaG4fDgfb3CysIRwcQnhaBZ34QlMpSMSMDWzKYdJ/S8SJyMGNIFyDEe6HsYV7caowJoJ36oAwWyM/fICYIgCD8aIjERTnZ0O2uKe+6gXQ1mWlEzOjHS+0J0NnMWZAIgVwcDINMbiJOUUtl0lBYX6KJyeOBxDVu2VlFeXkH57sZT22mo4mujG7BSXl6HKz0ZVbQevWQPccOjAKjbspHSVoCdfFhsYmy+Hv2wWEIw0dpdj6WR3fWAy0xjGxCiRBXoO3bGeNSk+nNevSfp9sHRYedQy2l+nTx2LH7U4dVFWa2T/CsHk6+ToZMPAI3Su4SvRkYEHVQdPQbDFBiUQRiu1DIh4hiaahPG8EDvkJwmb+/G99YjAaPfMf1QbkxGM0gi0UVJSUzPJmuUGlvnNj7sikIngaZDDbiGjmW4CnAFkfrz2TzqAZATKQHQEhujhNqeOis3fk1dpxv+XcyWaWnkhUcxyCAFo4vGI1ZATeodD/DosG18s72KLeX7qe5+CB+TQKIasO1hzQbvkCzTP4spn5RAjjqO1DgorlSSmujtPWna8g9W1XgTDVerieJNp55lbE6O9/j2DSwvOSELHZp45vPy1X2+Wb49yPL93R+0h5rDTgjUkR0rATxEXJXIe2neo4rLvP+Njw1CgR1DUigGgP1Glmzo8PZyOJ1s3tAzpqym/Cg1vwgmPjGUDEkTO0aEES8BR7W513AtNzqNBzwBHGn7/pibLN7ERRPqQgEiMREEQfgJEYmJcDKbBVvvG1ZJMAN9Y59UUTGkRvU6Lg1CFgAcLWZ5URxzb0tDH5dGXlwaefk/x7SpkEdeq+hJJgBsHbT72nHaXDgBmTIIOUGEqLxfy/aWngEfLa2+v6s0DJTQU5fHhat7AZ/eC/mcKR5/z8uPG/jijd8wYeOZy52RNoI3fxdL9ilj3wCJhECOsfeIAxIDiY8OIj64C4stgGHRKgzBCvC0UdPkTz0XV0u9GRsx6KLjiDWosVntqAbriTN65/6Y6s3IgpTeIXYyNbHD1afUIQ8MOuEnOy1t3TfzbbTYgHApqkAZYKf8g3dZE/lL8oZrSb1uPKnXjWdm6x4Kl7zCmlo3sqAgb1t2Cy3dXR9dZlqsgFqJKkgKSFEN9H4XW5r86u4CD8guH8tt8dsorPH2dvh3XhcmMWmz9NHjopQTLAeQYIgPo/eqxAq5b7hXsPe/jqOdp5+EftBMSeNQ4iODydBLUCQFo8BD+bfNHDmxnBTo7ig5w4Jbjq6eEcZiTx1BEISfFpGYCCfr66bB00a7bzhQddFCFqw93aRwN3UbXue+TWpiUxJIT7+aG8ckoB8zmUlfVlB44t1NSAiREmj9/+zde1zUVf748ZfDXBiGgRlugzooN0FQhEVM0tAES13NzEu2tJu7ZbutXXe77JZtbX1z2277tU2r/WXt17Zozaw081KpJYkUShIKgshFRpoBuQ7DZWaYfn/MKBcRBgMvdZ6PR48QPnM+5/OZz5k57895n/NxgErj6ri1tmClhQaLMy/fW+vD6Q6bVuPjfJ2l6UxA07/+6uPucfUvZeZkVkZLe+9IOSz8338Psf6sfLazjZsY5AwmLA08/58y3qyw0R4bwbe/8j9Tdsl3bbRLfAmJ8WYMZj485MnSEVoSFcPA3EZJK4yb2n85F5LtxAkMjonoRsQTrmsl94sC4qaHMDnEHxy1VFbasQW1OhdIaMhm1V0Z5Pb2PktcI1wo0aqlgB3wRasCsGNpcw2J1BWw/smVvBccSlz8OFJSp5EcEkX64iR2PZuNpaUFC6BS+qA9HXx6+KBVA7RiabE7y2t2XotafzXQd3BSvftVXm6cx8ob9MxJT2H7k3uoBmwtbhxXV0M9ktVqp9EOSFt47eH9rDpH1NHU7DyXigBPIqH39D2HmT2FVm4ZrmJKvBafKCk4Gtn9TY9EN7sHjRbAx4FPb8FyF0Eq54dQe7PHueeiCIIgCD9KYvK74AYzRaXO9KfwlNnEdVk5KChhBukzXVOOVXoSE/yR2cyUHTrIpjfeYVspgBdB/j1i4OAk5iSrkalCuf7qcAAsVUYMjlaKjjpTRcKuTCNRA6hjmZ/i3IfhWFn3kZe+9FsfN4/LDQqlkpG+SgJ6+0+jwMfNluYrd52n2iZ2lNlocsC40apuwUR7dQvVjmGMH68h8FQzH5aaaQ/2IzUAONXKMYd75QxEu93hTKlRygg6n0+NRhPVFtDEJTBWXknRF0WUeoRwZZwaWms5WQMcL6W0DdCMY06qrnMCukZPypJZJHcbbJASPSMFvQw0k67kygDAYeRkpXOEICgunmgNWIzlZO/8mNUbnKuwybS+zknr5cUUmQFVFLNn6ZAhRZ+aSqIasJSSXwrQSn6R81oMmjKPReFK567VetJmxtJzHYZ6o4n8bTvJrgPZ2NksO73E1oCOy35mBFClUZ7zdPonzeP3K37FPcunEd33lI2ztTVysNwBEi9m/zyIkNPvp1zOlFkR3OVK7ao83EglQGgID1yjxAdAImfGz4OZ0mURg6wDdTQhYdxVYUzRAYZT7OmZvemQU3JSAlgJGdF35BU5wgpIqDzpKdK4BEEQfmLEiInglqJtO8iesozkkBT+uiaJhkY7Ml81Khk0fPEqGZ8B6nGkPzAXfZMJQ1UjzZ7DGRsO2EwUVfRIKWmTknzXKlKcc3IBM7mZec5c/892kjnjNlKCk1m5JglbhxSZDGjI472dBtzmRn3cOi43fPbR58R95H7VzuXw8SZqUgIJ1OtYOft7DqJm6ZTuiVft1c6VuWb4ymg61syRig5KFIEkSqCyupUmN8shWMe/F/kTJBmGwpnbg0/0KN6/ewTgYM/Wozxf5trndy1UOvyI1Op48SFvKi3f01hwgt/sanav82gzUWkCItVoqg5w1FiGtkZNYghQYcTQAZgP8N7OacRdryfx1pX8Z2Et9fgSpJGCo5z1u3Z2KdAOIdfx4rrrQOb8GLOV5rG3EkBK+PR0HpyUTnWVCVMTaENDUQEN5ZWYANry2LytnOSlocSlr+Q/C+3IPJ0jMGWf7CTbNZJWvXsru9LuIC0givSnnmGJpRWUSmTlH/P7zwrOPk5LHhnbikn+ZRTJS64jMSeD3IEcl8NIaVUrhCiJS/8zL17diM1mYvvq9eyq67IfhQKNSgmeCgYal0ArGzZVsfRPekKmx5GZZKWyTUKQvxQFDvb8swxw0F5cwZqvgnlmspwZd0wh51d22mVSfKS1PLbbSJartPbDtRxsC2ZGpC+RQOXhWtdy1F15kFXgBUnNjB/bimKP6hzXjY1xEVZAzsFvey7hJgiCIPzYiRETwT11B1n95OtsyjFQbZWh8VNCWy1l+QfZ9pXrwRDmMvbvK8Zg9yJoTBRxoUoslQVseXk9W3o+g6F8L2s/KKDaCjazieyM13gt1xW8mPNY+7fX2XLIREOHFBmtGPIzWf3UejLdHi5xsz7uHNcF1FR4gns/rqXEImfG9FH8NgZ27G/ontJib6OyEeB7Dp+w0G5p5rAry6iy2rkilzvlKJQKIvXejNOriFQPc/5S5cm407/rGsfUmHhsex1HGjtQaFWM03szPmAg9zUaKfvOmZZnqSzFYKvlaLnr30YDJgeA3blC1lvZ5FeZwcefIE8bDVXlZH+aRX63TLtWcje8y67KVmwOOw0lmax9eSfOsNWOIe8AuRVNyP30xMWFopPUUpT5Ac++VXDm2SNlm1/h8bcOUnSqFeRSLKcMZG54lcc3dnk+ibmAl598lU1fGai22JEpZViry8nMKjp7pTmX6k+38pkRCEhm2fV6ZAM6LjvZG95le0EtFtToR+sJC9ehGeQ+es2BItKfPsaOwlaaZHJC1BLaa1vI/fIEH56JKqxsWH2AP31UTUm9A4VSisLSQtYuIwe7ZmpZTrGnqPM1WQfMvQYdJV9qOGKFwAnNjDvXN09AE6lhDqj2ZfPhQTtcQRAE4TIxbHRkQu8PMDhP/gH+1J5yc6LoBSDqc2npfMDiB9z25B7307IEQbjMdbD0L0d55goP3vzzWB7rZdJK5MISPv5NCyVvjWXuBjFiIgiC8FMjRkwEQRCEC8CDD98KpMTaxoKfN+HT88+SVm65pgXFKT9e2iqCEkEQhJ8iMcdEEARBuCDaywK44388GaeU4QvdUxSVHmS9E0pWpYod7jzVVBAEQfjREalcF9ilVh9BEARBEARBuBSIVC5BEARBEARBEC46EZgIgiAIgiAIgnDRicBEEARBEARBEISLTgQmwhBQ8sAzaZRvSiPjGnGJDaWYJ65h27EFbPynDrGOkSAIgiAIlzOxKpdwyYqcEsrSSA8aiypZ85W1jy1t3P4/xawc48Vjd4Xx5qmef/dg9rURPHCF75kHCR75OI+5e9vBQ80tW9K4KaKGl9P2sZVwnt41gfjjRdw9v5DjHc7O/wvpqjOlWVvaqSuu4ZPX8vnvJ2499/xHJeS+BF3ezAAAIABJREFUq/nXnRrY9w0Lfl1BX+9Mb+Rxo7nviSgmRalQKYB6A0+lHCDrp3cqLxMyYsPv5O7w8YxSeCF3fM0Tn6zmy47BKl9KygPPcl+iFMPmZ7l3g2GwCj5/sUt4/dEUNOaDrLprPbm2/l/SF/3kWaRFeNF8bC+bcn5Ei5+MTiZ96nCoPcLmncVcSoup6W94iBeX6OFQBjc9m02vb+HYJbzyWApB5oM8d9d6sn/g+zz4ZMyZtJ4/6sBqreZE9TZeyP+EkkFre+fe79C2+R8xzc38Z+pcgrFR11zM7iNr+Nepxu7buNHvAMCnkX//vzKmlIcw98/+lFzwg7k4xO1sYQh0cKy4lqy8ao5Un38pkUmjuf36UJbFK1H0sZ3PFSZ+m2Cj5ssgNpwVlAD+gdw9Q0OkGmpqLBwxNFPS7Ohlw350OLC2OJB7KQhO0HPLPyZzU8zAixlMzcdPkbPPRF5B+4ADhItDQtLt47k6ToWq3UJlYQPHi8znfIq6cAmQz+A30VcQ6Qklho/JOJbDCdFBGQApQYmpzJ83g5lx/he7MoNKFprAonkzWHT1GLSiNzEEbBw7+SHvlX7NiWFBROpv5OYg2dDvVrT589d2hM0lH7O9th4/9TgWx85i1PmW1eTLa7s9UYwz8cBVP503QIyYCEPAyubXD7H5guzLxtLr6wlEyZufqujtprtCoyBIAlhO8Zd/lLHjPGISAOuuA9x4ZxWE63norSSmBPoxdZaK/xZevPuElW9+w+NvXrTdnwcZfoHOL9bC1/Zy/6timOSS5xVIsARo3sO/vn2bgkFdYF4QhL6UVL1LSRVc4fEKq0b7EqzUAj/gjp87RJs/f22HeK/oEHg2MDrtZmI9AwkeBifO8xxm7dFSMvc7ZiyoJ/LLgJ/EqIkITARCrvsZmb/2g8JyHivx4fZrNATZ2sj64DD3bjafeQha4KwEcn7rD+UneGy/nFtmBxHpC00nTnDHg8fJwpdnXk5iaWBn2Vmv7iH9085IQBEfzZeP6QmsNbJmj4zr52gJoo2sjYe54yMz7Ui4ZeUMnkzsLCNwVhJFs3ovj+GNLBjfAdU+7DjW/bgUEaP58rc6zlRHFcirTzv/dSaV6zxYS00cOg5TAkGlVcDpBAYfDbMeGcfCVH9CfMBibCDnv4dZ+2pdtxQHVXI4y+8N46o4NbKOdkzFRnauOcz7X9jcLEfClH/O4dE5nXfOLNv3c/M9pjOjJjF/SeOFW9RYPvmam++scv4+KpKXtownwl7DyzP3sdXoXp1V06N56JFI4keCaV8R71Scz1mTMe+duaxI6vxNzP1z2HY/3VO5FH6s2DmNeSNtZL2QR930GGbEqVB1tJP1zG6eymgHZMQsH8/yX44gItgDm7GBnI2HWbvWWWft8mm8/ScZWZtaCJ8TCNkFvG8YwbKlGqzfFPDU70oobHGz2goVVz8ygV9cE0iInwRrkwXT8VO8/+Q37CzsPLaYO8az/KYRRATLoMlM4e4S1v2tguOnG09/x/VpIE98lsQkRQP/XfI5b+ZD1/fZuGEvtz5aB4D22mjuvGsU8eHO11fmVPLOCwV8Xni6XXR53aZveF8xml+k+qH1sGHcfoA7HjQNbHRtmOs6s1toPvPl6kq/SjCS8cCzbDJ2f0ni71axcrqV7U8+wbqjoEmcy+0LpxAXokbVYcZw9ADvvfURmVX27i+U6Zh/7zIWJ/pDTTE71r9NRr75zJ9VsTO4/aZpJI72R0UrDbW1lO7fyuqNBWeuV1lwPOm3zGPaWB0aDzOGI4d4760PeuxLSljqDSyblcDYYDW01VJacID33v6Y3N5GXTXxrHjsNtKCofqr9Tz+0kGqHSAbMZH0X8527auV6spiMt9/l4xcMyAl7aF/sCKhs5igmXexaabz5/x1f+Kvu1vdfx9GzOL5Z+cSRjEZ/zrJ2OuTiQtWQlMxG59ew6ZKwFNP2i8XMH9SOHoVWKoN5O7eymtbi7Gcfs/CS9lV5EtyvBelH+2geNxs5o+RYtj5Oo9nuNKxPPWkpS9g8eRwglTQUHmEXRtPHxcEXf8QryzVd9Zt9CxefMv5IW3Jep3b1uQ5U6f6rI+7pETPvJHFV48hOsQflYcdS4ORoqydvPbfPKpdl70qdhb33ZpKXCCYDu3gPVMvRfnFs2zFAtLG+GKryiPj015ytyRRLF99F3MCWsnO+ID6hFlMG+OPqsNM9lt/57ndZkBJ9LwbWXZtLOF+SmgycTR3L+vfyqSszVWOTEdK+hIWTw5H7yPFZjFjqjzClvUZ7KocwDYudTYL4AuSC9Bt67XNnyYl+d5VPDhZSfUXG9kiuZLFk/TO6z8rg3v+5Xzv+2/zUsJm3siyn8czNkgJ1lbqTWUc/HAj676qpVuK52cb+SogldnjfKG2lB1vrifjUOfngiZhLrcvnsLEUDVYajmas7vbexG2dCXPX6/DdmgnGe0JLE70R95YypZXXyejoNXN+jj13ea7sDXQDDCMHzb/87gPWVXfccuYehaMDuD58/r+vbyIwVehU/QoVl7tSZPRDmovZtwSx/8k9XKJjNCz8hdBBLVYOHKiHXzl+EgBbFRWNHKkxExN29kv60YbzO1pcmpq7ChUXsxIj+QWVwRRbXSWUelq5+31LRwpaeRISSMlTd2LCfyZmUgJtBerONhzJKS1ncMnmjlS4/rycXRQaWjunsrVYWHfmgO8+HgxefVAvYn3Hz/Ai2sMGM8xcioP15EQ4fy5/jvX16uHinlrp3LvokBCFDYqK1oh2I+r77+Kv9+v7nxtUjR/XzeBWUlqVFIHNhSEJIxm3jTVAMpxYDnZwPHCBipreh/+KdxbQz2gmhBAjCsPTpUUSIgHUGjiQI2b+wocwR+ei2FSuAy5QkZI6njuXOTT+4npR93xOo4XNmB0BQVWo/MYek/lkpF0VxLzYqGuuIHKdhk6rfMLOeLOK3n6T6OJGSmDdlCN9OPq+67i7/drunwBqJmS6g3tEoJTx7NigQJziwRt8hiuvcr9OkfcN4mH0nWEKCwU5tRwvAb8fjaC+NAu29w/lafvH01MMNRVmLEo1MQv+hl/XzuaYA83j6umhpwCB3j4EJPkesMUGhImyIB2ju5tAECVOoEX/hnDlBglnDJjtMgImR7JQ68nMiX47Pr7zYtnxRw17RV1HD8FfoGe7h98V8OAbh0UO4aqWpD4ojtrv0p0gWqw1XLyJKjilvD0H2eRHK6ERhPVbUr0CTO475GbSdZ0f6Vu+o0sm6xDJZOiGhHLontuJu30NuqJrLj3BlIifbFVFZN/rJZmz2AS40M4MwNMHc+dj9zG/AQdGrkdm4cafUIK9z1yMyld9qX/+R08sTyFuBA1Muzg6U/05GlMG9VLp0+uZ9E96aQFQ8Ohjax62RmUoJnIfY8sY36CDlVbLYZG0IbHs+iPf2R5nLOcelM5ZaUGql2fZbYGE2WlBspKyzGYz3NCgyScJctnEOfVhKHchEXmi7cCkPgz5w93syI1Cr2sFYOxEYJCSUm/gyeWdAkiNFEkR0ixeaiJW7KE+cFWLCgJm5lKsgrAn7R77mbFzCiC1GDrkKIZffq4lABY6wwUlRooO+Xq1NnMGEoNlJUaKDU1OoMSd+vTL1+ipyWTGOqLrcZAUWktNrWexHnLuO/nrtQ49URW3DuXxBFKZDIl+kk3cPuMnhemP3NWLGN+rD8qmRRNyERW/CIe7Tn3q2TiknTmjIb6SgOGNiU6tRyQErbkbp5In0i0H9QbTVg8dcSlLuGJP6QQ5Hp12MLl3DcrCr2skaIjxZQ2WNGOjScusPMac2cb98mY984Cth1bwLZ3wvs4Ljed1ebPpp1yA8un+mM1GSirBa2v8/pwp83L4m7k0VuTiQsCU3ExRw1NyHWxTByjPms/+uk3MDu4lepGUAVHsejOzs8FWewNPPGHWSSHq5F12EHtf9Z7cZpsQhrXj2il2gyygCgWLUslTDKA+rjR5s8mO7unPZB+h0NJ1jEZSFqZknDJTYIaEmLEROhkN/PaXw/wfLmUpQ9P5ZkkJTOmB+BzoJpu8YDcTtbaA9yxu5V2wGe4El8rQAtrnj7AGpQ88MwU7orsa2dm3nzqa1ZV+fHiyz/jeq0PE8fAazUOdrx+gB3A7Hum8+p0KU1fF7Dw/zX2mqY1PrwVBRJKTnqe9ff2KiO/WWtEMWY0Xy7XEWg5xWNrK9jTrS/v4Ph2A8fP/NtCzobe7+XJr72Cdw+D3NVvtFaU8t9Nzr3Kp0fwi2QZnKzgqZu+IcsIqmsn8NLacCKWRjLplW/IaZEx445oIhRgLSzh8d8fJu8kqOJ0XKW3DaAcyHtmH3dz9sT8M3JM5NWHc3WgH/FRkJcvIT7ZDzlwPNuEsQPkqf3vq+Ca0SRpgZY63lz2Je+3hLDyrZ8xqa+3tlc2sh7dSxYKFr4zh+VJcHz9fu5f18eoVWkR9y8rpLAeUCgIHmkDHx2Llvkhx0bh6r08vNaCbvmV/ONPgUSkRzHlja/Jc7288I0snrNP5I0/+XH8P9n8uXo8bz+hI3ikDHqfCtuDjJjxGsBB3ot7efhN13sU7kfE6S+PQD2/SNcg7zDz/q/3sC7bASP1PPpBElOSI5k3qYJ12W4cFw4OfNkASX5EJvkj/3cV1tF+xAQDTTV8me0ADwWzfh9KsIeDwtV7eHitGatCxcL/S2N5kp5FiwrJWtv92pW317LuF/t5P98BSAiOkg14LpK3Kgg/gA6b8w6gi+FkLTZ0BOnUEBzF8qUJeJ/IZO1mKyODgEYTpRZ/0m64kiCJnaINz/D4ZhM2iT/zH1nJstiJzJ++lezNnRNDZY4y1j2wjs88Ulj52A3EqaJImaxm104zhIQTrgaM+3l25UaKHIBESViUz5nAVj9zFikBgDGb557MILsjlhWP30HaiIksnrWLzA0GkMWyeF4UKqD6i9d5/I08qjukBE24kuj6HiM4KEn8zW3MGavEUrKTZ/+ZicF16YTNmk2yH1hyM3jgH9lUO6SELf0jz1+vZ+acJN7JzyZ3/T/IRUri71exMkVJ/YGNPPBG8QDfgZ6k1Ge9ysP/KqABQO1PECCbMIvFcUo4dZDnVq4n2wyqhHSefyiZsJlpJH74tuv1Jnat/gelC1dxX2Ijn728isOpq3gw2R+dHxCSyuIEJdgMbHnmJdYf9SLl7j9y32R/Zl6fzJb8PVRnZvBIJsim38F/fxcLVVk899jHGLp8tvZfH3cXFWihaMd6Hsg/SJkrwNPMvItXb40iOiEWzdZMbJMmMVENtJWT8dQ/2dJyJQ89toTErsUEJ5E2Vgq0kvvGszz7pZL5D/2R9LF97LpqD4889QFFFkCiJsivFdTxLL5Wj8xhYstTz7D+qB00E3nwmWUkx6UyJzKT9SVKxo7RAXby33n2zMiYLDiUcOvpa8ydbTpZ7c6W66cKQk7VkM4pPFeb70lmLWX9U6+ypcIOSAkKVmLDnzn9tvladGP1aABLdgYPnB5hU+mI1vUynF27n+ce2Ui+Rywrnr6DtIDTnwsw8/oU9DJoyM3g4X9kUx8+l6f/MouwuNksjtvPy/ldzmXdflY/upH8kBt48akZ6EeGMVYFZWbcqo87bf7MJ7DDhtUOSLWMkgPdBkfd73cAlFQqgGYiI9pRIOu1L/RjIgIToZPxFNtPANjZfqCRJ5P88dF7ESKBI1078zVGXvu89UzjaPqulaazS+tbo5mDVYC1lcpGQCtF4SkBBjIBxEGQ1vmhU9141q3pIXE6KOFkBc/+8ltyapz/DJkU6LxD5eXHov+dynUAUk/UAD6+RIyGnFI/4idIABsH/l8BeSedr7Xkm9iZP4ByzqQQ9aGlhq+/sXF1qusOfLHKdffdTN4XZrf31RztjRyw5pTy0SEHVip4f3cskxb1tRzB4Ch8r8TZeQdob8dYCkwNZKwWaDKx6T9mrEBlRgk5vw3kaq0/8RM4E5hYm1qpcwUgzc1t2FqcP3v7ynEvMLFhMrYDCuLvn8bTcVXs2/cd+z6p60wFiwskxgdolxN/75U8fS+ABzoFgJqIKBk9l/rp9bgA474aKu/2I2RCADGKKkpcI1zWb4zkNQE+gcRGOduINm0CT7hGfrxdN59HRfsix9Ktw2LZV8LW/NNtyoGx2P2vNG+/a7l5eCwJIxOQY6Og+hvqup6dShMmYtEF+6NqmcTMybHIRtex/bPv0PmC7agRgzyU+aFSwI520s2sjLMCcrxdN7P1oXpkdAYmDYf28lmVHRuZ7Dg8m7jJSkJChgNmqD5FvQ2CglN46Ekf9uccITc3j9yjp3N2lESPdRZctn8X2Q0ABbyXaSBtqR79mDA0GGgYHU20BrAVs2VDHtU2ADvVhzLPztxXxzJnCkAtu978mKIzI8Fq4qJ1zh9HTGHFI84cRbnaFwCZPoRwSTb55zmfrU8OA5995ApKAMy1VANh0WFoABR65t97F7MBJL7O0SSVjrBA18wEh43mFhsWiw0cdlosYGmxg0SKTAFBMWHOO83H9rO5oBVoJfPjA6RPnkFQeDjRsj2uc9Y3vRv1ya1y54BbKTpaS9rMG5gz0g+Vpwy5z3BkAJoAtBKQh+iQAbaCLHaUOq+fLbmzSUztvNstCwl2zjU0F7D9i1psNtiy5whLxsZzrunkR3ftcAYlAA4z1aeAhGjGqgCbF3E33sFfHQBydBIAf8JClVBiw1RjBtTE/fIh/jrmAF8dOsL+3HKKzpw7d7bpdKL6ECVjQonU/47nhn1FQe0+/l15rFt7b66xUG+E9rrzC1v6a/M9WfIy2V5xuuNvp9poBs+JRPfb5mupNzZhA1TJ6TzvOc557AeOUFR6dlDWcDiP/DaAYrILW0lLcX0uyJREh0sBM/u3ZTtHMkt2s/1IGisS1ETH+kN+Z06f7UQpR21AzSnqHaBHjkwBmHGjPgNs898XkVnTyFUjxnDzFQ8RXFPM12Uf8uUAsjdPq25y9m98tDYUIAIT4SfEYqfJ1ajaLa5PRqUM37O2s9H4Q79wHQ7aOz/PfrgLsGCF9ZOvufFvNpa/cSXzwkP4xU0lZK12dvK9ta4kIq2amKQeQ9EeHnirAA8ZKi+ANozG3k+gW+W4xUHOvjqsqToik/xR7fNy3n031pCT7/6+vL2cHxGWU+1n7gTV1bRCn+ukDQYb9XVnfzvLfWTOwMncRv3pT+eOduqaAK0Mdc+lgTp6/H+Aclbn8n5oIvMS1MQviCZ+QTQrHqph3T37ef+AA7mPzNnRUiiISAo86/Vyr55j+L0fFwCFJvKM0YQE+xEfJUE1yQ85DvL21TjPvVruXF4ZCcFxgfRMVFGdtS8w19vO+86qn9/VLA4LBaC5YQ8bq3r0Ik3fUW2DuMBgotEhM7di8R9JeISVIA+or3KmuKjkAFKCwkPPSq1Qybp/BTU3NrlCRjsWcwugROapdHY6T2XyWkY49y2ORx8ez5zweOYsvRHD7vU8vi6PBrzQqJzlNdd33iqpb3D9rPLBWwIN3kpnyp/FjMmdiQ4OQOJP2oKJbH7+oDMgkPieaYuq4FDier4ZUi9kHgzsPovbWmgxn/1bb7WX8we1juhYXfc/SmR4e55jyrQDcF0lMiloVc50HEtDU+fd34YG6h0QJFfi7Ylbcb079XFLcAp/fWIJcWdn+IBEihxQeTo/yyzmzjrXNzYCXV7k6XrfG05R7/o8sNU2UQ9nXZdOrTT0km4n81I627xMTdjYsysl9/QCasnd+DZbdDczZ6w/cdNnETd9Fssbiln//KtsKbUDdje26cL8ORurruD+kBHE6q8l1rOGjZXHugQONj6/51M+7/VY3NNvm+/BYm49+1Lw9HKrzVv2bWRt7G3cnqJHn5iMPjGZRb+qJXv9qzy3u/sEoea203eC7Njau3wueChRKQFHI/VnInUb9WYbIEWu8gW6lHX6e8Bx9vvab30G3OYb+bp8D4f8FpCgTmCOOgyqzy8wae/o/Gwf+luCF58ITIROGiUhEqh0QJBG7mwArTYae25nd1wiEbuERosH0IGvygFcgFGTkzWsf6WKGc/pibgxkklvfENOEzQ3WQEF1i8OcONyQ++dQYUNSwug8MQvuPfRIbfKcZPlCxPHH9ERMyGA+KkqQjzAcsBEYbv7+4q5zg4okKtlzpETwNvrAixXeQ7WJhtmQKX2RHv67fZQ4OcDYMNc74CAQdzhSRPrlmznnXA/4qfrSF0czpSoQG65awQ7f23A0mLDAshrKnh8xjfk/JCG0V5HTnY78xb5EDM5EO+fyaCjjrwvXIWarc7UAMy8f9Mu1h364YfXlxMlj3BNRShzJvyJPw6/lvvHFvD1oa87r5NWI4ZaSAwMJ9HLl+qcTAyTk4hObEUnsXP0ZCW0qbF1AJjY8tgq1pf2tqfOryFvtY8zCEGKytWxtbW1nglWyna+zr271YSNiyIx8Up+nhqFPnUB13+ex/qSFhoszpQSb60Pp3MntBrXnChLE80OoLnVeQwqNbr+Otltxaz/236iH1xGcuI80hPyePmQHRyNNLt6wEUZK3lkay+RwhCy9hLwNLe0AGpsuev51fMHezksKSlulF1vcZ43lcYHFTgDMY3GuRxwWyvN/c0fdLs+7gmbPs0ZlJiLyXhxPVuOmmHSbbx+b/yZuUWWNldg5SnjdKKmSqHsXlCb832XKb3wdv1KpvKiz3s9vZxnW0srFkDTkM2quzLIPVfwWVfA+idX8l5wKHHx40hJnUZySBTpi5PY9awr5cedbVy8h/+a+0NGIG/+nCdy3uJLi7sreLiv3zZ/ll7+0tbiRpsHHLVk/utZMjN0xMXFknjVNOYk+JO8dDaJmd3T/LS+nZ8LGl/nrVJbWyu2DrC0AiolWg1QBSBDq3Z+R1nNZ/Vezq3f+gy0zYdyc9wCEjxbOFTwDE9XHKPuPG+QBamcL2xv9hh4dsplSEx+FzoND+SWKXIUKjW3uGaWNRlaqBySu379a3d9+yrUinPeJXDmXjoIGtF+we4kWLaXsuckEBjCQldKU+WBOuoB+aRwFnZZMEAVp+Om+/XOSdDtdeR96wBkTLk1mnjXHRd5zAjmzVO5X467DCZyioHAQBZd55yXkfdlzZmvEnf2daKoGSugmqBzzjXx0jD1KreHbQZffg1H6wEfHdfdokYOhKSHM0kLNNWS9+3g7i54uo6YYLCU1pH170KeXVPlDET8VPh5AN/UUNICBAYzb6mqc/J9sIar74/sdUJ6X/K+rMGChJifu66P4zXknF6FxVJPXrEDPNRMWTaC4NMXvJeCmFvGs3D6Dz/es9jK2VVxmGbAWzXCmXd+msOEwWiH4HFcOdJGaUEOR01K4hLDkdGIoaoV2srJr7CDREfyrHhnKg2ATE30zBuYH9d9d5r4aUwLAIKvJC1WCdiprPzO+UeVnsQEf2Q2M2WHDrLpjXfYVgrgRZC/c+5A0VHn8mBhV6aRqAHUscxPcea6GY6VOTvZFUUUNQCyKGanx+N8LISUoMQZpIT3PH4zhoqDvLOtHBv+pP1iFmEyADNFpc47seEps7vczZcSlDCD9JldJ3fbsdmcd79VauU504YYnsStd/yKe+5YRNrIc210boajBhoAWfR05od3dspVIfEsWjKx89z3o7qwzDmyMuZKrh+rBImalLlJBAG20tLuaUY2mysX36vzRsEg10fu6QpcTUfILDBjc4A+IrhbQGGoNDmDkTEJTFQBslCSezwzxlZpdKb6+EWRGC4FlMQlRvUdmPTmeCmlbYBmHHNSdZ3vp0ZPypJZJLuuhaC4eKI1YDGWk73zY1ZvcK4cJ9P6npmY7s42pwWrgpADJ4yfnCMokTFr7TW8nTWHN9bqz3/ye19t3h1utnlZSCzJIUowm8jP2sP6tTvJt9F5w6ALVUIqM0dIkYWkkBbrTBOrrPwObKWuVCt/rpyVTJAEZJGpzBnrTO8qOur+w0z7r89A2jzgMZJgL6CjmN0/ICgBiBxhBSRU9jKX9sdIjJgIndpkzPhDimtSKYCVPV+ccjtCD0mN4dVZKkBCkKuNjl+UxMczHeBo5KUnjrFnANUpOdFMO374TBnHLn0o1VYHB9/P5bGvOiOlym9VVNJMSEQLkRLv7nNhhkp7HR991MC8OzTE3xxOTEYhhbuK2XRgBMuT/LjlnXksMrZi9VGh9QJKi8hZDWBjz7pjzEuOJiIumqc/H4PFAiofCcY3P2frVrC6U05cOI8+MQqdFOQBrlVQksfzwpYYsNvIeWEfb+4DOizkZJu5JUZNTBzQbiJnb+cJcmdfxk8rOHCfjinBo3noAzXH29VEjL4A5/hcmkxsWl/HlPv8iL8/jXd/73ClSzk4nlFMVj0D72j0IXxREo+mgrHCjKmuA7/oQFRAfVEdpg6gpor/ZjQQv1zDpL9cw7t3WKiTKgnWSqCjjnXvDWzVees+IwUteibF+RECGA+YOp8C3GFh56vlzPtnOMHzruCN1HaMTRL8gmXIcZDz5wLeH4LcIWuHc8lQb3oue9mKoaoREvzReJRTVGykLLaV9FQ1OIo5WQlQy64PDzDnj8kEpdzGK4lmqtulaP2UyLCT+8pHbOlSok0WxorV/+B2pMgkgKWYzK9cdybV40h/YC76JhOGqkaaPYczNhywmShy5bkbPttJ5ozbSAlOZuWaJGwdUmQyoCGP93a6nihvK+C9beUkpoein34br0xpxdIhQ+VpI/P5TDJ7yS017NzK3rS7SAtJ4/ZrsnlkWy1F23aQPWUZySEp/HVNEg2NdmS+alQyaPjiVTI+63x9ZeV32FCjmryMV58xUm+zc3TzP1mX02VfMgXeameakOI8vplth3awuSCWZbGhpD+1iutPNWJT+qNRAVV7yN2U128ZABzdzXu5SaxI1DP/sVXMaZMi8wQctXy2ObtbOpit0ojBEU9YQAoPvhBGdRM0573LXzeWu1Gfg25Vp7SgnIbINeXPAAAgAElEQVRZ/mjCp3H7UsgnnDmzuqeGWXJyOLg0lmS/idz3tD+lVh3hPW8KGA+w9+gswmJ1zP/Tn4j+Top+dG/5Yf0wH+C9ndOIu15P4q0r+c/CWurxJUgjBUc563ftBKSET0/nwUnpVFeZMDWBNjTUOQJVXulKLnJnmy5cgd/pSfC9kfmp0AYCfj9ogdo+2rw73GnzduRjUnlweTgNRiOmmhYYHkK0DKg6ydEeKZY2STjLn/8Hy0//osvnwmebM5k9dgb6Sem88u8bscmkyABL/g7ey3c/T9yd+gykzQPIJYDdgvkHfSzbGBfhnKdz8Nsf9r5eLsSIidCprILH3qul0grt5hb2vHmIvxxwv0X5+KkZF+nLuEg1p1cl9Qk8/TsVQQPMtKr8rIjnv2ik0gKBo5zlRPZYqbb9mIY93wGjm5gxmCk8/dXtvRPktQOjw1k0RwYdFt7/3V5ezDBRaexAFqhCZW/HWGhi50bTmSUArdmF/Pl3h/n8kAWLXYJK0YExv4pP9rk++dwpx8eL8DgNETEaQgJdTVirJiJGQ0SchuAut8qOf2HizCMmCk18XdPlINzZV00V//vnQnIqbBCsRltdypsbGriYjq/dz8MvVFB40gYKCRZjHZ+v/pI/v9Aw6CvVVH5RQU5hG4pADfHJgeg8LBRu/Zan/nZ65MlB4TP7ePiZCvJK28FPRbCig/qKOrI2lJJX088Oeqo3kfPt6TbXTt4X3aeeWj75lvvvKXRePx4KgrUe2Ixm8rYfY+eQzLTuYtjZvzJUOe9UU1dJWZ2d0mOVrn+bMLguaUtuBg8//zGZR2uxyNUEqWVY60zkZ2Wy63j3joPpiw9Yn1OLtcOO5VQxm155m12nLzdzGfv3FWOwexE0Joq4UCWWygK2vLyeLacvcnMea//2OlsOmWjokCKjFUN+JqufWk9ml8vWsPUVHn8jm/wqMzYPJSpaMRzKJvvEOToybcVkbCnAgpTo6xc4lx6uO8jqJ19nU46BaqsMjZ8S2mopyz/Itq+6P4SiYfeHrM8sp9oCmhA9YeGh6NWDnBLpMLHl+Zd4eWcBhjobcj9/VJipLi1g1+5vzjzvo3+17FrzEi/vLnYuqyq301BRwKZ/rGFdfo8E+crdrN+YR1ldK/IAPWHhesJ1vs5RhEGqjy3nXVZvyKOsyZfE665jcaKM7N09noNiPsjLa3aSa2wFPx3ahmwyPjWcdVxbXl3P9qO12JT+6L1MbN548DweVWinaMNLPP6W8/rBx58gTxsNVeVkf5qF87E7dgx5B8itaELupycuLhSdpJaizA949q2CM6mJ/W9zkfXS5t3hTpu3luex65ARq6c/4eOiiPYGQ0E2L7/0EWU9rg3TF++yPseExWbHYixg09rOzwVbwQc8/r87ya4wY/OQgqWWoi828vg/e1nMog9u1WcAbZ5zj40OTEATqWEOqPZl8+HBKfJSN2x0ZMKgPtPTP8Cf2lPuD58NNVGf/nU+YLGIlEcN9Gxel7rIhaV8/JtmSt4ay9wNP407CoJwwfjczOspcxnV8gn3fv5/4inQgnDBybhiwj9ZNcqXgoL7uLd0iJ/8fkm0+S4PWNz8LPdu6BloXuI85/Ji2s3Etu9j5a61fH2e5zByYQkf/6blJ9W/EalcwmWvZJuOD+c2s/TaWqZ8MJysoVzgXRB+alpPYnTAKNVV3B0PhyzH2H5sHycudr2Ey5unGn2gV9/b2JowGM9jGaMfDRmRI24gTTOCK4b7Ai0Ym89+HO2gE23+/HkmsHj0OEZpryJ2GNB6khPnG9hJWrnlmhYUp/x4aetPIygBEZgIPwZtKlY9GU7WaGj0pNeFQgRBOE+2ffy7YBx+kT9j1MhriXRoOFK6jxMXYIlu4cdLNvY6nngoGU1fG5V+zL2P7uQyu1c+qMaMXMBiHVit1RSc+JC3ay5Akpdo8+fPcxzXR84lGBt15kPsKPykM516oJQeZL0TSlalih3uLG3+IyFSuS6wS60+giAIgnDBaZwrZ/WZiW82kH3IdGnMtxAE4YIQIyaCIAiCIFxYDeVkZ5Zf7FoIgnCJGfQRE0EQBEEQBEEQhIESywULgiAIgiAIgnDRicBEEARBEARBEISLTgQmgiAIgiAIgiBcdCIwEQRBEARBEAThohOBiSAIgiAIgiAIF50ITARBEARBEARBuOhEYCIIgiAIgiAIwkUnAhNBEARBEARBEC46EZgIgiAIgiAIgnDRicBEEARBEARBEISLTgQmgiAIgiAIgiBcdCIwEQRBEARBEAThohOBiSAIgiAIgiAIF50ITARBEARBEARBuOhEYCIIgiAIgiAIwkUnAhNBEARBEARBEC46EZgIgiAIgiAIgnDRicBEEARBEARBEISLTgQmgiAIgiAIgiBcdCIwEQRBEARBEAThohOBiSAIgiAIgiAIF92QBiaKmAi+feYKyh8axRQRAgmXOw8VN21ZwLZjC3g6XVzQgiAIgiAIg+mi964UwYG8eGc83666gvJnrqD8sTBmX/RaCUPGQ80tHy9g29GpzBsJjAzn6aML2PZxDBEeF7tyl4/4v89h27H5PLpIcvY5FQRBEARBuAxJh7R0i4Wsox74NLbS6Ohtg2HMTh3F9aM8oLWdEqON9tZ2moa0UoJwnjrsGL8xkVcHhcaLXRlBEARBEIQflyENTNpPGLnj33314KQEeTtvkx/ZVcDcTNtQVkcQfqB2Pn98P59f7GoIgiAIgiD8CA1JYBI4OYqchZrOX9QaSX/+BFlnRk08uP23E1kZ0bnJuHk/o3weYKnhjqfK2NHrCMvQCVu6kuev12E7tJOM9gQWJ/ojbyxly6uvk1HQ6twoIJ70m9KYHKtD56NEZm2luryA7RnvsqWkFcLn8uKTs7BlZ2ONTUJvPsA7u2H24iR0rUdY//fX2V7lLEqTOJfbF04hLkSNqsOM4egB3nvrIzKr7Bf2wH+sFIHcu2cqM05WsEcxghnBZrauqSL41liS1Bb2/M+XvPhhO3ioufqxGK6b6k+EXoHc7qD+ZC373viWdRvMWAEUfqzYOa1bmlTe41t4OKPLReo1gke/voIpUjM7XzIRvCScmIAOKj/NY9WfDRjbL/QJEARBEARBuLx4aPyC/zrYhUq1Kib7Q53NgyAvCbQ2symrkcrvT28hIWSkD6MkNoZ5ylF5QHu9haJaKzX1Fj77xtxl2wtDO34a1471xiMolFDqqP3eB3//QGLDHOTsPkbD9yCLSuOem8ajtTVhMlRTK/FGP2oUCfFqSnbn8506ijkzIhk93BdHK2iHh5E4wZ82swOfAD1B1nx25DehilvCsw+mEu3nga2+hgaHD8NDI0hOCuBEVh6Gtgt77BfU93aa680c21/N4bwWmtqsNFXV821mDQXFVgZtzEyqIvnXo4iO8MG/pQN5sJrx0wPwrm9FrvMmOqidXe/X0awI4jcvRROv6KCmoonKOg90UT7ETA9Enl1GbhWAlJBkDb5t7QxTeaKUgenzInbld7lIZWqm3T6SEJmCUbEK2k5a8dIr0UUFEnjiOHsLB/eCtja3YMg1kvt1I6b6Hue060n0CGPhPTeyYNpEYqUVHKxoGdR6CIIgCIIgDJYhGTFpOnyChYedq3Ll/Nofn7O26GDzlgI2I+P23/6MlRFwJLOYhfsugVSuuv2sfnQj+SE38OJTM9CPDGOsCsrMYKs+QsazO9l7qNbZgZZFsfyFu5gTMI7kMZBrcRZhy/+IB973529PzkJ/ZCsP/9uLR5+fi16nQ0YraTdcSZDETtGGZ3h8swmbxJ/5j6xkWexE5k/fSvbm2gt3vMPUPHLHZH6hPcffzZWsWFtFyu/62WZNEZlu9b0dHN9u4PiZf1vI2WAZYKUHoL6S1QsNTNkxlVmKKtYuLCVhyzTmBXuhk4Kxo5mdT+5l9aY66tsBJEz55xwenaNmUpqadQfM0GHm/d/t5X0PFTd9cA23xPR9fIWv7OXhdQ5mrZvDvdNlhE/QwKa6wT2s7Cp2Znfus/s5FQRBEARBuPwM7eT3y5DtRClHbUDNKeodoEeOTAGYgapiikYms+TWUYz0lSL3UBKkBFCi1UjB1b+2trVibbFjAWxtLVgs0AzIZDLknqFEh0oBO9pJN7MyzgrI8Q52vlYfqkdG7eCNHPTnewfmhlZOnuvvzVas7mwzNLX74VpsNNttWFqADisWu41mCxAsRwXQ3kBe8QhmPTSByGBP5FLQupYH8w7wRI55gMdm4fghZ96W0dgKqFD7yJDDRTpHdpobzVg8obm146LUQBAEQRAEwR0iMOnpdN/N0TM0UBJ36x9ZOVOH7KwXSZHJevzW3ks31EMGnjJUcudrgsJDCeqxiUp2od8SCy+9s4+X+tnqKze2uRxpFyWxZpUebS9LFcsV57FudUcHVtd8EuulEAd0VPLJ/73DJxe7HoIgCIIgCP0QgYm7PGOZfZUzKDHsXs9zG/IwWPxZtGol6aMHUE5bC7YOABNbHlvF+tKhqa771Nx98wS6rlXQVXtzFY+/eYor0vvbpoyvLvC8oB9OwdTFzqDEml/Eqj+XkFdsI+aJa3g6XXWxKycIgiAIgvCTIgITd3mcHulopSw3D4PZDuowxgYMsJy2cvIr7CRG6kieFc/2f+VR7QBkaqKnzyTa9AFb8ge/+uc0DNQ+SgJ8z/F3iRy5O9sMVf2GkocUb1f8YfrmO3KKbeChIiJWeXHrNZg8Qvj5r68mUgGncraSkVN/sWskCIIgCILQq8EPTCTerLx1FFOUgFLpnPju68+Td3rTDlQfKuU3mZfhslOtZeSX24kLV5K48EYWBdeiS04lccA31mvZ9eEB5vwxmaCU23gl0Ux1uxStnxIZdnJf+YgtXMAlg78387dXPuNv/WyW6cY2l50OC3nfWCBGRciccayo+Y7m6FFcl9A9hSs4/Wc8eJMvcsDPNToW+dtpvHQT0H6Kd247TNYlu8qzFE9vJSo5tCl7yVcTBEEQBEG4RJxHEn1/pITovRmn92acv6sjJJUR6fpdpK8UxeDvdOg5TGx6+W22F9RCSDLpNySjP7mXzMqBF2XJzeDh5z8m82gtFrmaILUMa52J/KxMdh2/ZHu4P0qFL+Tw8tY66lWBzLsrhqsD6tj5SfdVwmRBvsTEaIiI0aD1cv5ONdL574g4NWrR3xcEQRAEQfjBho2OTLjsZgYIgiAIgiAIgvDjchnPMVGiCfHBu89tpDiw9zMsZKe+spYhfJLGgKkCdGj7mebgcICkn/Gu5hoTDZdZ1pw8WIUu8IcP5NlqLBiNjv43vFB8FISM7mcmzrDv4fthfW9jaaOy9BJ43o8gCIIgCMIgu3wDE1ksdz69jMS++rCO76hgOKP73KaYl3+3hl2XTGTiT9o9K1kW2dc2bZQZPQkL7mubVjL/dyWrcy6v1LCQW5N56TfqPrepPdqC/1ivPrcxZuzl1scH96GGP4Q8OZa/rx3NuZ5RCYChgSa9ppcHknZRWMjvbiii8lJYilgQBEEQBGEQXcapXP7ETQlF01d+f8cwkHwPfd2E7jBTlF3sXBnrkiBFHxdP2DmW5nX63nlsfc5tsFN9JI+iS6dv7hZVgo5J0Wc/KaarYd9/z/fD+h5ZsBaZyDp0CY0sBGuYMtUbeV+3Ar534OiQIOlrm/pGsj4Z6EMfBUEQBEEQLn2XcWAiCIIgCIIgCMKPxaCvyjUmqs8cJEEQBEEQBEEQhLMMwXLBgiAIgiAIgiAIA3P5Tn4XBOHSFDCJtNQolO2V5Hy0F9MlM39LEARBEIRL2U8qMJFFpnFNoi8nvthMoXQyM6eOov7AZr4ubR1AKUq0kRMYEzESrbcSj++ttJtPYTp+iMOl9V33hjYyjuFe0FyVz4lTQzkRe7D21U85khASr5vGCEUzpbu2UlA7NEtD+U64jpSxPlQfeJevuy2N64E2YR5To5Scyt1Kdklz/4Uporhi3iSChtVzdMc2en+JB566scSOi8Rf441imJX2Fgt1Jwsp/LaMlkE6rjPHkDiPqZHe2Cr28tlXlfygs+gdRmS4Fqm9nhNHy2gZgiDAY/QMZk0e0Tm86qjh8NZPKD/HUtQyjQ9KgOZazEMZlEi0jBwfhi/tVB87wqmBNGNBEARBEC45P6FULg/8AvyQ2Ouprwdv/0BkjibqagbSm5ERkDiTKxMjCfJ1BiUMk6PUjmC4f48Hj0j8GR4dQ/jYCAIUQ3zLeLD21V85Kn9UMqCjiUbzUK1X64FEKgOs2Nt71kGF1t8bHE2cMroRlAD4ap1PZrc2YD5HhOE5aipTUxIYEeAMSmzfy1GotQwfqUU26C1Ejq+P8+k7zY31PywoAWRB4USNjSFypC8M0WWm8GinsbaeerNrLTBLPY19LAumcDRT/V0VVZXVgxzU9aAaTXhUDOFjgvESozKCIAiCcNn76YyYSPzw18rBXE29XUmQnze0l9AwkOeXqMcRE+6DxF5P6b69FJiaQaLEVx9D4Pf13beV+eDjCTgsNDQM8UMnBmtf/ZTjofVBLQHMjTQP4eNR5HIPwEpbzzvy8iACfAGLkRo3e7yeGl/n3fumehp767xKggkfF4JSYuXUt5kcPGrEhgeeARGEBzTTPNgdXokWXx+AVhrrf+gtfg+8Nd5IAFtT7ZAFAS2lWewrBa/Yn5M6Xo7DXE9TH+elufQrvi4dosp04eHjg5cEMDfReAmtDC0IgiAIwvn58QcmkmBiZ6URfuaZfQmkLk5w/RxJ8uJI6r/dzL6j/d+B9/DTOjvmjVWcqHFt72il8UQujae36Zn2gpbYuTcTC1Cdy2efF9IGeI1MZGxkMFpfHxRyD7A2ccpQyOFDJZ3pON7jmDo7Ae33Rkpy61FFhqLzVYKthqOff0KFxr199XtcbtbZW+OLBHCYHfgm/v/27j0+qupe+P/HPZmZTCYzk8lkQkiYBJIhJBC5GZCbyMVKUXqges4D2lfpaavWc3qxv9LHarX1aU9btY+2tWpv+rSWnqrUU6rVqljlJgQMCAQTwmVCSEKSyXWYWyYzkxl/f+wJCSGQBNEofN//IDNr1lqz9x5c372+a+0bmJ1rRhtu43DZVo57egMZA9bCGUwqyCHdqIOIj5YTB6iqbKB7WIN8haQkDcRDdHdDRulNzMk30Lr3L7wbysSSBKGWpkSQMVRbGiwWCwChIGTP+QwFOUaUriaO7N7JCU8M9FasRiDeibvWjTq+jdHdfpRD7f27lUpG4UwmFYzBYtBB2ENLzQEOHmrijDGxYmbs5OnkO8ZgMeqgJ4C3pY4j+w/Q3g0YrKTqgJgX36kYpDqZee3VZBsh3LSPXWXVBOIaksdeyeTJedjTUtHEQnjdRzi0vwpPGFDsFH3qepyWvma1eQtZkQcQ4sS2l6hsGUGAOlSf1RawWtVHP/o7O86e6TEUM//GmVhPX0SDp/tpTBOYOLUYh92MXhMj5Knn2P591HuiZ9aDhxOVHVgKJmBJjuGv3cuefbV0oyFj1krmTOg3Q2kq5Jp/LQTAe+hV3q4ccJNACCGEEJ8Il34ql6Il7nfT7o0AMcIeN+2JO9VRr5vW5loam4eZFtQTUwdk1iJKZxWTYTj7CYd6bQyvx0MglBiQRQJ4PR68Hg+t7vZEoJBK5qRisjOMxEKddHoCxHRmMp2lzCjse+63xmIjVQGusJN/VSHpSd14vQFiV0QJh4bb1tCGV4+WVLNRfd82kan5VvRJGhRjFhOLchPPejQwZtb1zJ0+gQwjRIMBYlozY4vmM6vEPtzeoNVp4P0o4Z5scrLVAaii6Em129ETwdPcNsy2jBjTdAAk5ZRQlGNEr9GgNTmYPKOIFIB4jOj7gJLFpIVXkzswJa/3e81cyuypDqxGDfTEUAxWxpYs5Kp+5wvFTv7CZVw12YHVpIOeCCSlYs3JJLX3eZBmi3pOu3z4U4qZveRqso0xAnXvsLOsmkAcUiYs5Jr5U8i2GaA7QBQD1tzpzJ1brPYZLYQ9eD2B04FU2KueL29HIx0jmTUbTp8BFBsWszqT5fP4zq4nWSHq9eDtTfeK+fB6B/TDOoVZS+bhzLGifT9EKKrBkOFk6sIF5CQnyqRZ1VkQxUxuYRYKoGh0WPKLGWcC0KGNBfB6fIQSs3bxkC9xvbbR1jZI34QQQgjxiXDpz5j0NHB4RxPWmSvIMEWp2bWVpuylXGeN0bh/K5Wtwx/ExZqrqWkfQ1GGjtS8mcxxFOM5fpCKA67TKT9dru3sdGkYM2slsyYYCJ/cw9t7m86sSFEInShj645aAhEADRmlK5mTbyDFZAHUwZXBakEL8H6Q+rItVCYCKI0hFSUC0eG0NQzD67MNi0UNP2LeY5Tvb8Q8YymTMzVoNOrrmrFTmTohFaW7icpt2znhjaGxzeKaxYVYHOOxVrbhGWrWRNGSpAGiXfRkOMhMRl07oaRis6dCpImWjtjw2sJGWiKWirfs5+13asG5lEXT7SjWTCxKFV3hWo7XTCKj0IzW6mTq0glMbDlK5d4KWoLqtaHJnEpJfipKPEDDzreoaA6TUXoDc/JTycjLJ+XoAbqA1MmzKMrUQaQN1ztlHG4OQJKZsfmZ+MNqP1Ktaeo5xcrkhYVY9RE8h3dSfjAx86J3UjwtGz0Bmna9xb6GAOgcTFu2EEfGBLJN1bj8TRze2sRhwxTm3zgdK50c23buxejnM5w+A6CzYjYCcS9ezyC/GU8V5f+s6pt9C3gHpMGZyZ9xJRn6GF7XdnbvayJKKrkLljM1eww54ww0ukKkWNLQA4RbqPjnFho107nm01OwKFp0SRogRPO+N2hW7BQtux6nKUZLxau8W/8hp0sKIYQQ4kN36QcmABjUBcdhF74usKRbINaOZ6TrMeJtuLa+Rkf+FCZNnECGyYDVeTVztWG2vtPQL6XHiNGs3nn3nxokrSQepNNjI6doFgUGAxoFdIk7+9Fw7+hSg8mijqqjTZVU95vViYUC/VJphmhr2IaoR2tFfdtHXcV7tHtBE4oBGsJdAWJoGTs+Vx1UkkrWjKVkAWgM6BUgSYtuWP3Qo9MB4TgmRy5aj5tWgx2tzkaGBeIdjbRGtGQOpy2TBWMSEHNzrDdFrq2drrid1CtAUYB4lPYDr7K1pYiJxZPIyTBgGFPMrIUadm7agyeuIWNCLgYg2lzFocR58LR4iOenoui06BXoIovxeVYUYrRXJgb4AD0+mo/23sXXYLIkZlhMdqxAvLWSdw/2pYMlO/IZowN6wDhxHnMKAJLUTQcUbWL9TeLspyVmX0LeRIA7Qspw+pxgtWJRAP/5Fr5rSLWY1XS/gOfMwMSST066OuOis5Zw1aISALQmDaBBm9jwoPeaDze5aAwBvelqsQCBrn6/1yQL5hQgHjx7ZkYIIYQQn0iXeGBiYMzUOeRZDZhsQCwL5zVLSbbqACvj5y4lo3EfFa4RDOjjATyud9h9/CAZ069jjtOMPmcCGUoDzb0DMcVCWipAiIBv4CjOwJiZ13GV0zxIHl0M/6lTiTrSsaSqg1CP++S5d286b1sjMFQ9aYmF790deLwxwIzJrEv0uQMUG9ZEcEWymYzkAZ+PdA8ztUyLNgmImMkYo8F7pI6uAjtWaxbWJPC2uIkOsy1NWmJNkMdNa+86c40GjQJ0h+nb9CtGV3MVFc2HOZY7n7lzHBhMDnIy9uFpNSa+J3hbGk8HEIpWnfegJ5aY6bBhMQDxTlrPlRqopGNJS6T/xQEFlPRsMpOrqe8G0GCxqet4SErFkpF65ufjIbq7+66EFEti9sXvG3xh/1CG0+eEVJsNLQyx8F3BYkkEt95TZ1yzWptNPRfoMNjsnJkwFyMaCgHGvmvKoy7w0VgS59Dvw99/MY+pd7c1L0H/8L6uEEIIIT7eLu3ARMkgZ0I2mfrE3zWpZIzpHewZsI7RET0xzPUligbi/YZa8RDtdW5CTjOGKzRnBhkpvdvqevENvJubUUKJ04wSD9F8cDfVdS10vT+Bq1ZczVgliLd3eyHFgjkViAfxnTrPlkPna2skhqgn2WpRZyh6d7dSbGpqDyECnjigRR2rf9BnnOhJSgKM6aQrbRxqCJBSoCElsb1zR7MPsAyjLQ0WayL4647Sm5WUkmHFAMS97XjjGjRKjFj/AOVkLZ6IA4MONBpA0aNLUt+LRnsDNi3pmenqblheD6E4oNMmroEYPefasaz3Lj8BGna9Q3DyUoqsdhzjzdQfVmcokrRq4OI5+DI7D59vvYQGUyJPLeTzcEGbUg2nzwBosSTaGnThey/FRmqqOisS9J7Zd41O/Y3Em99h09uuwetQxp2+pnyn1GPdu+vYwIBIazGr12PQ9+E+K0UIIYQQH5lLe/F7vIF9L/2ZNw+0ASFObH2e13Y1ECVG656/8Mpfnqe8bnhDumTnIq6ZO0XdFQsgyUrOxOzBt6I1pagLeKMhwgOqP/3wuVADx11NdIVjJOfmkZEE9PS7+2uxkqJBzen3cm7naWtEzltPv92tfB515sNixZwE9PQ+0yRAOAxgwJaTzultAfRWxhYVk6EfWOc5aLVorwB0OmhtUNN54qgL4oNuWvwMsy3d6bv3pCZSnpKyyZ9gB2K0NzQRtU5jztJ5jB9jTtShxeIsxKYDerx4PDF1liKxDigtMxstoB0zncIcHRDCXZeYzeruIvw+oKSTnWdV61MMWPKcWHu/uzlxlz/chrvZzcnaNuJosE5wqmlSQLg7MSAfk6P2GUBJxZI3ndyM/pstGDEa1Zmc7q5hBtcDDafPoK4vMqmzd12B8wRLWjOpifQq34A0yWhXVJ0ksmaTdXrTCA3JmYU4JyQ2KzD2pt4FCPhi9N9wocvn7RfMaEgxJwKWUAB5rqIQQghxabi0Z0wA0GK1p0NPC55OME+1Jh6sOJJRvAaLNR2LI4tZjukQixG/QqOuUYgFOFFZxcChYRwgOZepy9Lo7oFgzQ72HfcRD4YIA3qDg9IEc20AACAASURBVIklAdqVLCYUZKkpOcG+lBytxazuwOT3MVSmyrnaGqlz1zMgbQvQmC2JZ0gkgrK4h5N1beRPtWMpup5l40OE0WFI1kC3i91Hh9kJrT6xODxCS30tUdJOvxVudycWzw+jLcWKOZEKF9UXMHupma4kO1YTxD2HOXIigDbPgsWajfXaCZTEY8Tf16BoAGJ4j1bR2A0QoKnOzURbFoYJC/lUTgR0OhQgVLefI82J6yjcQMPJEjLzDGRMv4FlkyOQpEOJ1rLnZZf61U4/Ed2LPw7dDcdpL7GTaRrPeHsFFS0xPCcaCIwvJHXMTBatKiYU1aDX61Dw4XrrwKCHzFq0lGscUYi6qd6+j/bhziAMo8+9FAVAw9gZK7hmUhQI07xvKy5POvnzZpFjAJRkNfDCSN6cGxgLhBv3UX7ITcztojGUjcPgYMaNNzE5FENJNqDVgOfAS7gATVq/55L0cEZA5D/VeWbfE99RyZrBok8VEiFE494tHJedgoUQQohPrEt7xgRAsWFL04C3FU/ciNWaCqEOOkb0NLoY3toKXPVtBIIR4leoz9kItLio3PYGlc0DgpyWao7Uewj3aNCbrFisZq7oUZ/kGGs+yMGjbYTiBjInlpBr6aK5JbF98emH5PV7cJ7fq6YKnct52hqR89WjpGExQV/algZzIk0q6u3rX+Dw25QfbMATjIDOgF6JEOho4njl8aF34+ql1aprQMItNDWpxzUeB4jQ4XafLjZkWzoLqYn1EzX7DuPX2bGkxAg0VVG+/QDeOMTbXBw62oDHHyL6vgaFCCFPE8f3vEVZpfv0HfpuVxnlBxvwhmIoSRpiQQ9NldvZuae237qZEM17trDf5SYQTpQL+2itOUFn7zNV0tRZp7DPp57ncB0N7ghgICs/Fy0Qa99H+a5qmj0holcYMGghGmyj6WglJ8+YOfPRcKiadn+EeFIqFqsViz4+7C2ih9fnhHgbJ6pr8YZixPWJtix64t0x0GWQmWVNvGZI/IOiw2BVX9PGEz+0SAOV29/heLOPcFyH3qCDbh/ttVW4GtWwvncXurg/sXA+qXcGxjdgJ7AY3pqDnGgPEH0/0ZZFS1ymToQQQohPtCvynNPfv5gVTix0cuyoa+iCQgghhBBCCJFw6c+YCCGEEEIIIT72JDARQgghhBBCjDoJTIQQQgghhBCjTgITIYQQQgghxKiTwEQIIYQQQggx6iQwEUIIIYQQQow6CUwuhDGbZ19YyokXSvn22NHujBiSxsiav6/i1WOrePBWueSFEEIIIT6OZJQ2anR8emUB960dz+rcIYqaffxm/QGO/KydKf3PWE4+Dx5exav/KKZAA7qbZ/PisVX8+SH7gAoUHDeX8IO/L+eFylW8WLGc3z5TzLyci/yVRoFj1SRu+24xa5brR7srwzd9HGu/W8za2+wYR7sv4rwG/qamPbScV4/9C/fffOY/nTPXHuHEy4d5uHS4TxIVQgghxEASmFyIWDdV+zooO+Dl2Mgetd1H0TPvU+O5fWUei8ed/zTMu7mZT1u1lL1speoCxj2O2+bys4eczCrWY9SDLkWPY342ky+B2Z6sa53c9MVJXD//PEP8WA/u/S1U7Gyh2n3uYh8V3SQHa744iTWfTSddM9q9ERfDvlczKevuZtXaATcPhBBCCDFsSaPdgU+k7k5+/GDnR9OW0cfa60LgyWDDrgsYxWaN47b/UO/Me3ZX8+SjJzlOKvO+4EB30Tv7cRVm6wO72Dra3RCXrnYLL+3XMm9uO3eUZnBXuUQnQgghxEhdBoGJwup7r+XhUgXXpiO8bnewtiQZOjxs+H0lP97Xc7rcynXX8Ni8JBo2V7Nek80dV1uwKz007Kjkxic78OWM5x+/KOi7Ixr38sQ39vJIc19rMz83l403pRDeV8Pj3ZncUWpE7/Xw1BOVPFLZAzobj/1uOitNvZ9I4tPrFnNi3eD12ed6WGwG33YzZRcwO2Nc4mCaGehqYf09RyhrBAiy8UAL9ItzrNdP4qtfy6e0UA++INWbj/L0T+qo8SUKLJnKn3+bj7XtJOv/quX6W+2kE2Tvr9/lp0+fIjLcMoCuMJu1dxeyeFYaVk0U9/E2tj5Rwfo3wmect4JbS7jtCzkU5+ihK0jNnnqe/+kR9tQpLHvmX7hrfl/prNULeXW1+t8VD/yde5+Ngz6d/9y0kBX9UtZOv9drmH22rijh7m/nU5wRpeG1Q+w0T2PtEgX3s9v50gPDC1KzvrqQ338zve+FwmJ+e7gYgOBru/jcN1rU9swmlt09ldXX28gyg6fGzaYnKlj/WnjQes8pbwxrv1vMsjlmrHoIdgap31/H099yUd1blTmNZd+dwk1LbDjMEHSfYs/zlTz5m06CvfUUT+LxvxVTQBvr7+uk+I58puVpobON57+yk4pVS3l0rYngG+V87qtN6ncodPL430so6GnjV9ft5BU3gJbiO0u4bU02BVla8Pmp3uw68zo7fc6ilD1aQee1xSy+0ogxFqbs4c386NkRHoOPjMLm8lTCcz0sXhzAXG7GN/SHhBBCCNHPZXVbz7l4ImvHRmnwxjGPtXH7N4tZbT27XOaCSdx3jZFut5eqDshM06pvRLpxubxUnQgNOejQT5/AF8ZFafCD3m7ja1/OY6YC9PTQcNxLlauLtsSo19fsp8rlpcoVpCHSv5Y482YE0KNQedh4dpueFjY+sJfHnjiJOwaRvS5+cf9ennzx1OkiuZNS1ZmRoy2UNw74fEz9Qze/hId+Vsy8Yj26njhYjUy7eQYPPZlP1sBJmvRxrLlZj8cdRWc2Me+bU1iRN4IyOdnc/cxsbro2DWPQT0M7pBdns+aXC/jPa/suR8dtc3noB/lMy9ejIw4pRoqvd7J4svp+Z10nNdWncHvUv0c8fmqqT1FT3UlD4jV6oriPqOU8Xec6U8Poc2E+9//YybQcBV2SFseqGayZP/KfTrjdT3X1KWoao4kXwjQk+uyqi6oDeo2eZT9byF2r7WRZIdKjYC3MZs3PF/CfS0bQpsbITQ9dzZolaRg9p6jYcwp3JJmCa+3k6vvKrHhyPnfdbMehj9JQF4KsdBatW8BD60yD1GljzQ8mMc3UTcMhP0FjMqlGqN7ehgcwTs2gOFG3sdSOQwNUt7C3TX2tYN18HlyXR3EWdNb5CepNiess7+zrDC2lXytlxWToPHqKhrCWMdaP/j7KwN9U/YsVPHb/Pl7ee3ZOZVuVEVcczFMCXHVZ/csqhBBCXByXwYxJPx0nuevbx9iiSefhR2ew2p7Byrk6Nrx6RjSAPnqKR+6t4IkTcUDBOTaJMECbm7vudau7cj1TzLzzttXE3d85QlluAW8+PB7HOBMlRtjn9/LID/fyiGLih7+czdqxPZQ9u5c7ywZZPKJEKMmLAToa6gZJ4+oKsmdDsO/vdZ1srTvz7r3VqiZsRVq7CTIYPdffmY9DD57N+1n3jTo6ZxTz6NOTKJgzidXXHuexzf3Ln2LjV7ayvsbOXW/OZ5k9DeeVQN3wyhR8oZh5dghu28/Xv1qHO6xQ8J2FPH5bGtd/Pps/bjtJMGUMt3xJTT9zv1jOdx9owh1WyFrqoKgVIM6eB7azB5j18xv5wQotnW/s5+v3D5i5iPnZ+JXtbNQYWfO3T7G2eNADMHSf/3UCxSlA3XEeuOUghwpL+NlvnTjOV90gPBv2s24D6FbP5cUfjYG64/zos0doiPUrNGciq6/VQvgUG7+ynad3a1n0yyXcfb2J628fz8Ztx3HHztlEH72FyZMViJ3i+Tu28/xR9WXr/HT0iUkH3bUF3DJHC411/GjNfsrcYLx+Ko8/mU/Baiezfr2fPWcEdAqdr+xi3X0teGKA3UgWQLCFCk8+i+zpTCuEivcUps1JRwfU7G5R+2sfxy23pqGL+dn471t4encccsZx/99KmTfHyYpZdTy9e8B3OH6EdV+optoD6PVk5URHeMQvggG/Kc/uJjYN7GevjmRcIZhi6WJKBmxp/Wi6KIQQQlwqLqvApO1gayIdqpMth3pYfW0SE3MN6InQP0HEt7+ep070BgpxXM2RsysbQrjOy7sRCLeEaIiDgyTMyYB/JLX0kGmOQ1xDm3fEXRgefZo6gCXIzmfrcIeB3S5e2TuRu+brmTzLBJv7ddrnpfoo0NNFSztg12I0KkB8GGW0TJuRuBM/Po+7nhkHgM5sUP90puPUn6Riqp0iOxBuY+OjTbi7AOK436jjQ1u7fs4+ayguVvtc81ote9qAtmNsqnZy2/SL342sWRnqYH9/LX/dGQfCbP1TA2uvd5I1OYMi/fHE8RhCuAu3G8hPY83/W0juG02Ub2+mbFsnvRNKjll2rAAp6dz88/l8BiApGROA2UJBHuyp7ldn7BRv/DERlAC0BRPno43y/VEWLTFTXKqHo0amT9UCfiq2Ja6dK+0Um4Gwjml3zeXBuwA0jNEDmCgo1MLuMwOP6v9xqUEJQDiM+/gwD+Jo6dHg9QHGHjKtgAQmQgghxIhcVoGJtzt+OgDxdUeBJPSGsw+B19dz1msjFku09UF2D02ibx3IcO6SD8LjiQBadJnJGIGzQiy9FqMRiEXpPD2QitLZFgX0aE3aM8uHY2fXMdC5ymh0pKao/2nMS2fawBSwFI2admbWogfo6qLFw0fjfH1ObPgVaOtd5BOls1WdTbvYrCb1hAc9/Wa4WrvxxCBLr1X7MpzAJHaK535YjePHk5iVk86iteksWltC8L0j/OjL1VR4IDUxm4bVRHHpgNQtjeb09+4TJdA+WGNx9uzsJLJkDM5SG8adKRRnAe429rynltCZterWyHo9BaUDt7MGXcrAYxnF0zkKMyQfVO/v9LL6l1UIIYS4OC6r/31mpunQA2EU7Il1I+HQRQhCLtRQQUuPBm8QMMcxX+ADL+qPBIhgRFc4htlZx9nUf8pBA4SjBIOAWUt6JlANoCXdrh6fqOciDg5jEQKJQXX1o6+x7jfnWMjsi6pBXUoyY6zw4U2TDEMsQiDRzdR0HRAFNKSmfziLCDx+dWRrtPYLJDOTsWqAriiBwfPxBhXceYQHFh3DWmpn9rXZrFidR8GVk7jt1nq+/mSQgC8C6Ils28v/uu3k0AEncaLn+LkEt7VQ890xFE/NYNp8Iw4NBPe2nF5kH+mKEgR0bXU8sHg/ez6ua9g/kDh6IxDX4AuMdl+EEEKIT57LaommeaaDtTkK+txxfKEkCYjTUB9idMZIMcIxAAVz2jlOQ1yHq1EBIjiyL2zqJbi5gYouIGUMa//vJGZdacQxZww3/d9S1swAwqc4dCgOGJl/6ziy9KArzWfFDAUIc2j/iHLPhhCm+qBaX8FnJjItK/GyRiFrST5r16apfz/YxmEPoB/DZ76ZTZYeQCFreT6LBqRPRcLqcTFZkz+k7Y+j1BxVo4GCT02g2Ay6K/NZfOUHqLJ3dsaoJ33ArQH3nnY1DpsxgZvnK6DRs+hWB1lA5FA7h4d7sWr0FC9Px5oSx7O3hU2P7udXL6vH3jhWXaHesFdN69LNyuem0r5r0HjlGNasGzfIgvTzONnCnqOA3c7Nn0lHR5SKHW19wc7+NlxdgD2LFauNfecqK41F65zMyxqs0vPRsuzJT/HnsuX8/slxDLKHxUUsM0ypERwWIJTMseYhSwshhBBigMtqxiSsWLjvl4u5r/eFYDsv7hru+hGFlV+eyR2FQJIOhwJgYvXdpSyOAI0nufOXI7i1H++m8mQP5CYx7/NzeXNpiHAkyPpHqtnQ0VtIQ9mhFCgNUFIUQr/FOPIgyn2Sp3+dx+R1dqxzivnBxt4V4H42bgAI88ZvjvOZGU4cS0r5/bsziegVdEBw9xE2bBtpg+dXvf4IZctLmVfo5ME38/C0x9FlqA9+9Ly4k/UAXS089/s2Zq2z47h5Nr9fESUY02BMibH1G8fZeqCvvvojPiLYMV5fyh/+4aMzFqf61zv41Wtxsm6dwf9eY0EHpCfSxpx3LOTxNUC4nee+XEnZcPr8P/XU3FxMQaGTR7c4COr1GD/ALydyxEtDLJuCnHzu35SO2xcnsK2Sex/thN3H2LAtj7uuTeOmZ1awoktBlwLE/Lzx1InhLXwHSDKy+DsLWfGjIA11XXSGteReaQKiNLynBiiRt47y173Z3FaaztrnVnCzO0TEbMSaAhw/wp5fjOBLxYLs2e1nbbGJ4iuBcAt7tvcLptuaeP7ZU0y7LY1Z3/sUf7kzSGeSgSyrArFOnv4f1wgaU2nTjVjtQPq5Q9KLVWY49EVBShQI16Swb+TL0oQQQojL3mU1Y9Kw+QiPvNOFLxLH19zBU7+oZv2w1zAoWHIsTHFamDLegDnxmj038VqOmiY2fHFef7aaDZVd+NDhHG9hitOIY8DYyLUjjaoI2KcGLviJ0g2/2cU997vYczRMMAyRrjANu5s4lLirG9lZyT3fqqasOkwkSVGfY/LX/dzzjWHuADUSdSf56b+X8/zmU7jDGqxZWvUZJbvrePmffRsiN/xmF/f813Eq6sJEkrQYidKws44dR86szrPhIE+/0onbB9bCNAqK03EkbntrMy0UF6dRUJymDrYBY47694IrTZiGOyPw3hF+fP9xqt1x0Cv4d1ezcbc66I6GL2Amq/o4Tz/eRI07ijZH7bMzT6vOIsTCbPrWdh77axtuD+j0cTxHm3j+/9vBrzaPoK2eIAdeO0mFG9ILbEwrNaPznKLsN+X84n8S6XmxIBu/sp3Hnm2hwR1Dazdi7Anjrm5h0wstIz73Ndta+rLuqlsob+v/bpzqh3dy78N1VBwPQ7qRLH0MT10nZRuOU9F2dn2fNPOuCmBGw7s702gY7c4IIYQQn0BX5Dmnv38xK5xY6OTY0ZHf/fzw9HvA4sZdXPfn4awc/jiJsfp7h3l4tob19xTx/arR7s/lSIujVEfL/iCRGGC1c9cL81mWF6fiJ69x7x8+gYu0xcWlC/DY0y5WksFd/zGOl0awFkgIIYQQqssqleuTScOL/23n9ulNrLrBxyNV8kTpj5w+jVt+NZ9FKVE8njg6q5p6hq+NrW9IUCLAvriDxVYN+/6QKUGJEEIIcYEkMPkECNdmcOd/JTPFoMUCEph81Hq6ObS7k4JSE2PsenQ9UdwHmnjlF5VsahztzomPg+STVr73cCZVZR/OFgxCCCHE5eAySOUSQgghhBBCfNxdVovfhRBCCCGEEB9PEpgIIYQQQgghRp0EJkIIIYQQQohRJ4HJx51xNQv+sp9//ctzFI746dhCCCGEEEJ8MkhgIkZRlNv/q4oTz9eyNmO0+/LR0Y/P4r61Bdx3gwX7EGWdzp/wjxW/5t7MlAHvZPKvc/7IP6/7JkvOuRFUlK899B4n/lzHausH77cQQgghxIdJApOPu1gj7fvKcR+oIBge7c5cXObZLdwxPUrbjkw2tI92bz46+vwsbl85ntuXWsk83y8weRFfLBiPzr+FF9oGPhi0lddrywkkz+aLzikMHptoWf9KGj6zh6/9WxD9RfsGQgghhBAXnwQmH3fdOzj80FfY8ZOHaPSMdmcupiirV3qwY+C1fxq5xGKui8LpWMFsLbgatuIaZFPvQPtO3u6GLMeNLD3HrImvPJ3X2sGxpJ1V5g+3v0IIIYQQH8Tl8YBF+3KKPreGvClFpFh0aCJ+/LU7cP3pQWqO+hOFTJiWfYsZn1mKLdMEET/d7moa//pDDu5qhNyvct0jt5HGYQ5+4xaOugF02G5/lcXLbMT2PcQrP9lA8q0bWXbTBGL7/sTB8AKKr8pB4z3AkSe/zeFKf1+fdBPIWvMtSuZPw2TVE+84TuueDRx85kWCcSDnq1z389tI6w0d4/3b7ZM886tMXf1Zxk6woQQb6XjnTxx8ZgOnukd4iJZNZ88dNjhRz/d36Vj76UycFvDV13Pn/67h3Wuu5OA3MtHX13DjuhNUYeHhX5Wy2t7DSw9u4669oJ82iR3fH4e9w80TW7SsXG4lk27KXqjkzpf9ZwYfY72sKolBq5nXjw3WI4WZnyrg2zdkcVWWDsIhXO818fj6E7zeppbQj83kvi+NZ/lkE3YlgqvSzVPP1LChMa6+P4z+DLfP+pxM7vv33rZ6aKtvZ8MLx3h8b+SM72UvHsf9axwsLkxBH4/QWtvOhueP8URlD86bSnnzc5a+wuML+McLBQD4dhxg1s87+uq6YiJLc7Lh/RO83dI6+EmLVbGjzctyxxSWZFl4rd57dpmIkS3v6Vi92MfKBTE2vKo5z1UghBBCCDF6Lo8ZE8c1OBdMJSWpDb/rIB1+Pabi5cxYdy+ZyWoRzdRvseD2VWRmQteRcjrq29FkzWbspBy1QP2r1LsApYiceRPU15Tp5My0ARHcO98k2q9JzfTVFOf4CfpBa59NyZdux3T6aOeQ8/WnWPAvC0izmSACir2InE8vx9Z75zvSjsd1mI4TjWfU25+m5B6u/fZt5BbY0PZEwJRD5nX3cO3dn8d4occqexz33ZJJZleQqvowWHSYRxq+WrO4famOtrYe9MYUFt/qZO2AxRT2GX6cCoSPGnk3fnYVUz4zjWfuzGVerg49PaA3MGVeHsvzEgVMNn76wJWsnWnCrosTTtLhnJnLww8Us3Lgeoph9Oe8ZayZPJZoyxzqwuUFszOLr33nKu6b1vcT0heO55nvT2JlSQrmpDigw1GczepSA3og3BGkyuWlqq1H/UAkgsvlpcrlpdLdc2Z/UqYw3Qh0H+XQwCyu06Ic6qglgpbJ9pJzpHNBWZWBMDGumh5AJk2EEEII8XF1ecyYtLzFwZ88ReO+WmIAutlMfey3FNpnk1Ooo/VghOTJ0zAC0bIHefMXr6nljEXYshK356mlfsdBphROxXb1UowbnyboXEKOHQi+Tf3ejjPb7HiVXff8gA7Ht1j28OcxjZtEhhH8fqDw85TMtQEdND71Nco3HSamy8G2eBax3kF62wbe/e4GdVeuP9zD2Rty5ZB702cx6aB770Ns+ekGup3fYuH/+Ty2qV+gcOoG9h+MjPxY6Xooe3Ivd24OEQbMYw1YRlyNn/U/KufHTek89qsZrLSauWoiPNXWV6IkP4QeBVdj8tlpXDobd6xMxww0bH6PLz7ViqtHwTk9iymdapEpywpYaQeam7jze9W83pPOwz+eweqcLL5+Qy0v/bn/aH7o/pyvzMwbCvi0DXx7q7jpYTeuuMLMz5Wy8SYTq1dk8niFmzaSWH1zHlN0ED5Rz50/OsYWD9hzbSwf20MYaNhWzY3bwLxkOge/aoOmBu669wRVgwRmOvN4cq8Agk3UD5LG1SsQaKTz/elkmcbjvGInhwYpGz6RTCteHI5unIqFfYO0J4QQQggx2i6PwKSxHM+4VRTffjspaSY0Gh3mFAATyYm765HmRqJMQDvvXhYnz+bk/h24y9+mo6ZvVN6961Xabp1K1oSl5GStp3XOAjWY2f8W7uCZTcbqKjgVAVobCcbBhBltMuCH5KJpmABO/I2Dmw6rQVCkkY5NjcP/Trqp2At0QAeNr/xNTf86+kdqKldjm2nDVpIPBw+P/Fi1uXlqa+h0sOBrDuGDkS2c9vp5twmIhGjwAtYk9MkK0DsijpNpVWcIWr1npxbpx6cx0wpEOnjq2VZcEfUzrn1NuABI4qrJ6pyQa2cdr3sAOnlqq5fVn7PgLEzHQRenE6CG7M/5yiRxVXFiR6yccfz0gbHqf5vVI6J3mJiouGlLsnDVpCSghy1/rWFLYj1QW30H6+tHcvBUqclWdEAkcorA+QqGg+r7ujTSz1XEp8UXB6xRMpOAC4hXhRBCCCE+bJdBYGIi8/bnmL8sh7OHwDo0Wj0QIfr2z9hfksGMa4tIK11FWukqSr7QSP3vv075m7Vqcc+b1FZ+lazSInIWLEU3PQfwc3LXW2pw0V8sMbQf5O50cpo6qI21NzLCpSB9FDM6AxBvI+TpHWn66faHAR1a4wUm7QSjeD/oHfV4nHBvZlLPeUty9oEDUnUkAwTDtAYHeR8tZqOaQtXa2TfKbjiVOOapSZgV+gKT4fTnXGWUJDITeXHmsRZmjh3wuaSkRKqbNhGrRGho/eBTEror1D8jQ1X1flSNM644T5nTx/h92ZlLCCGEEB9bl35gkryUgmvVoMT/5ncp+/Nb+IP5FP30OUrG9ysXr6X+yVuoX1+EbdoschaupmBmDrmfu5367d/FHQHowL2tnGjpUmzL1mG0Ap4dNOwf2S3o7oA6gNZk5JAMDDr2HkrcRyQEGO0YrDpojAB6kk3q0DPq911IrdATH2KHLE1icKv5AFePgjeoAWJYjHG1rv4CETVgM+rJVOPGAaL4gnFAITNdR28k4UgEfAR6uAixgSregzdxgvatf5ubXjrHudZF8YUBnQ5HpgKuD9aBQCRIBNBpU9SZk3MV1BpJBegJnntmxRJTz1lQg2+oQFEIIYQQYpRc+ovfNXo0OgA/7Xvfwu+PgLEI68DFz7lLyco1gf8wHTv+xMHH/kRbBDDaMPS7zRx79zVOegCrTQ0q3n2V1hGmxnRXVuAHGP9Zpl5XpA7LlRxsN6zuW/w+lMhB2moigI2c5TdgVEBTuJaCyWp6V8eh42cUt5Wu4D/+8/N847aFTLqQjZm6EwGLVaemA41NpcQyxGfOw9WgB+JkZofPuosfPnGKfR5AZ+P2tTacOgAFZ+k4VjsBenj3kBotOOc7+LQVMKVz+yK1Q66jnbRxsUQoc6nrVaYsymOxqfd1BefMcdy3zKT2P+Ll3WNxIInFKyewOJEiaM7N5PZ5hjO/XySmHkujXj2Wg1DXjoAuJXOQ9UV9dKnZpA+xFkU/JoJDAdx6KmV9iRBCCCE+pi79GZNQBa21EbIKTIz7t3vxZzVinLeWnAHbVmkK/xcL7vwJ3e7j+Fp9aMZOV4OExiN4+k9pRN7mRHkHE5bZgEYad5SPvE9H/0T1O9cx+2obOXc+x7983k9cGMIywAAABRpJREFUa0KbVE755g10YCLrS09QPEkHGhNmBSCfgrufIycKnNzArsdfpH7j3ygsWo3p6gdY/t/3EtPp0ADRg3/k6MCF73o9aUYDJOsHSWkbWtjloTKSxTxTNj99OJmvG9OYcgH19Go4aKSBAI6CLpxK6pkLwCMd/O7lThavTcexZDpvLujBF1cwJ8d56cGTbACqNtXw0nXTWTl2HL/5XTbhHgW9DvC4efzVc25jdUH2vVzLlgVTWJybyx9+l02bN47eosOsg7bN+3lkE0APGzbWs7ZkPE7neP7wu1x8ITAbFRpeLmd9GadnosL1fhrimTjt43jslxYavHG8B47xxee8fbNV/mMcikJWykQm60isszmb0zqeVMDVUUnnOfp/VVGXutFAtekiBmxCCCGEEBfXpT9jEj/M0V8+SE1lIzhWMfXfVpHW+CK1AxYkx2p3ULvvOFF9DraS2dhMYfyVL1L+8yc4dcZd5ginKg+oW/i6d1B/6EJWEjdS/9jX2PXKDk55ImgMJpRgLa2bN6MuF9FhGDcVW0ERtvE5aFFfM+YWqa+NU1PTYpUPse2Rp2k80UEsSQfBRlq3PMS2R/90Yelh59Ph5pFnW2kIxjHbDHh31PJ6x9AfO5fwsTS2NAN5PhZnnP1+1UsV/PvvTlLWGCGclISZHlz7mthclyjg7+DuH7zH+n1dtPUo6IngqqjnOw9U89LFfhBlh5s7v/ceT73jpSGqYLcloQ+HcFU0sWFXoC/gqK7hlh8f4aXqEL4eBbM2TpurlZf2h85Mj6s/yfefa6Wqowe93cQUp4WSrAH3CGL7eavFC5pCrs5IOUfHsrk6IxPeP0F5c9PgRZQI86aHIW7g9beHOx0nhBBCCPHRuyLPOf08m5GO3MRCJ8eOui5mlR8zNnLW/Y25c034//4FNq0/ONod+sRy3nScf3wxgOu/i7hxgwyaz2L+HP/vmhvJanuGz5e/cfaMSOL99Nbf8eU9WwedMdFPbOEfP2vGsTeP635gpeEj6LYQQgghxIW49GdMLpoJ5H79jyx+bAOz55qg+yCu1yQo+SBcr47hxVaYcn0H8yQuOZvvb/y52YvOvoiVqQPf1DJ7wgJyaeL1YzvPkcYVZ/FnOnDGDax/XoISIYQQQny8XfprTC4WRU/KhKnYciDmOUzNH/8PNZKw/8F0G/nxD/MpywNvMvJ8jbN0sbnyYSLNOQTe14KaQJigpbP5v3mwsZYdp6Ln+Pz7tO4ax12bk9ly5CPorhBCCCHEByCpXEIIIYQQQohRJ6lcQgghhBBCiFF30VO5DlVVXewqhRBCCCGEEB8hrXbgk+Y+fDJjIoQQQgghhBh1EpgIIYQQQgghRp0EJkIIIYQQQohRJ4GJEEIIIYQQYtRJYCKEEEIIIYQYdRKYCCGEEEIIIUadBCZCCCGEEEKIUSeBiRBCCCGEEGLUSWAihBBCCCGEGHUSmAghhBBCCCFGnQQmQgghhBBCiFEngYkQQgghhBBi1ElgIoQQQgghhBh1EpgIIYQQQgghRp0EJkIIIYQQQohRJ4GJEEIIIYQQYtRJYCKEEEIIIYQYdRKYCCGEEEIIIUadBCZCCCGEEEKIUZd0sSvUavUXu0ohhBBCCCHEJU5mTIQQQgghhBCjTgITIYQQQgghxKiTwEQIIYQQQggx6iQwEUIIIYQQQow6CUyEEEIIIYQQo04CEyGEEEIIIcSok8BECCGEEEIIMeokMBFCCCGEEEKMuv8fuQ0gM0tejOkAAAAASUVORK5CYII=;" vertex="1" parent="1">
          <mxGeometry x="261.40999999999997" y="190" width="247.18" height="92" as="geometry" />
        </mxCell>
      </root>
    </mxGraphModel>
  </diagram>
</mxfile>
